solid OpenSCAD_Model
  facet normal 1 -0 0
    outer loop
      vertex 0 -85 5
      vertex 0 85 -5
      vertex 0 85 5
    endloop
  endfacet
  facet normal 1 0 0
    outer loop
      vertex 0 85 -5
      vertex 0 -85 5
      vertex 0 -85 -5
    endloop
  endfacet
  facet normal 0 0 1
    outer loop
      vertex 0 85 5
      vertex -2 83 5
      vertex 0 -85 5
    endloop
  endfacet
  facet normal 0 0 1
    outer loop
      vertex 0 85 5
      vertex -168 83 5
      vertex -2 83 5
    endloop
  endfacet
  facet normal 0 0 1
    outer loop
      vertex -168 83 5
      vertex -170 85 5
      vertex -168 -83 5
    endloop
  endfacet
  facet normal -0 0 1
    outer loop
      vertex -170 85 5
      vertex -168 83 5
      vertex 0 85 5
    endloop
  endfacet
  facet normal -0 0 1
    outer loop
      vertex -2 -83 5
      vertex 0 -85 5
      vertex -2 83 5
    endloop
  endfacet
  facet normal -0 0 1
    outer loop
      vertex -168 -83 5
      vertex 0 -85 5
      vertex -2 -83 5
    endloop
  endfacet
  facet normal 0 0 1
    outer loop
      vertex -168 -83 5
      vertex -170 -85 5
      vertex 0 -85 5
    endloop
  endfacet
  facet normal 0 0 1
    outer loop
      vertex -170 -85 5
      vertex -168 -83 5
      vertex -170 85 5
    endloop
  endfacet
  facet normal 0 0 -1
    outer loop
      vertex 0 -85 -5
      vertex -12 -73 -5
      vertex 0 85 -5
    endloop
  endfacet
  facet normal 0 0 -1
    outer loop
      vertex 0 -85 -5
      vertex -158 -73 -5
      vertex -12 -73 -5
    endloop
  endfacet
  facet normal -0 0 -1
    outer loop
      vertex -158 -73 -5
      vertex -170 -85 -5
      vertex -158 73 -5
    endloop
  endfacet
  facet normal 0 0 -1
    outer loop
      vertex -170 -85 -5
      vertex -158 -73 -5
      vertex 0 -85 -5
    endloop
  endfacet
  facet normal 0 0 -1
    outer loop
      vertex -12 73 -5
      vertex 0 85 -5
      vertex -12 -73 -5
    endloop
  endfacet
  facet normal 0 0 -1
    outer loop
      vertex -158 73 -5
      vertex 0 85 -5
      vertex -12 73 -5
    endloop
  endfacet
  facet normal 0 0 -1
    outer loop
      vertex -158 73 -5
      vertex -170 85 -5
      vertex 0 85 -5
    endloop
  endfacet
  facet normal 0 0 -1
    outer loop
      vertex -170 85 -5
      vertex -158 73 -5
      vertex -170 -85 -5
    endloop
  endfacet
  facet normal -1 0 0
    outer loop
      vertex -170 -85 -5
      vertex -170 85 5
      vertex -170 85 -5
    endloop
  endfacet
  facet normal -1 -0 0
    outer loop
      vertex -170 85 5
      vertex -170 -85 -5
      vertex -170 -85 5
    endloop
  endfacet
  facet normal 0 1 -0
    outer loop
      vertex 0 85 -5
      vertex -170 85 5
      vertex 0 85 5
    endloop
  endfacet
  facet normal 0 1 0
    outer loop
      vertex -170 85 5
      vertex 0 85 -5
      vertex -170 85 -5
    endloop
  endfacet
  facet normal 0 -1 0
    outer loop
      vertex -170 -85 -5
      vertex 0 -85 5
      vertex -170 -85 5
    endloop
  endfacet
  facet normal 0 -1 -0
    outer loop
      vertex 0 -85 5
      vertex -170 -85 -5
      vertex 0 -85 -5
    endloop
  endfacet
  facet normal -1 0 0
    outer loop
      vertex -12 -73 -5
      vertex -12 73 0
      vertex -12 73 -5
    endloop
  endfacet
  facet normal -1 -0 0
    outer loop
      vertex -12 73 0
      vertex -12 -73 -5
      vertex -12 -73 0
    endloop
  endfacet
  facet normal 1 -0 0
    outer loop
      vertex -158 -73 0
      vertex -158 73 -5
      vertex -158 73 0
    endloop
  endfacet
  facet normal 1 0 0
    outer loop
      vertex -158 73 -5
      vertex -158 -73 0
      vertex -158 -73 -5
    endloop
  endfacet
  facet normal 0 -1 0
    outer loop
      vertex -158 73 -5
      vertex -12 73 0
      vertex -158 73 0
    endloop
  endfacet
  facet normal 0 -1 -0
    outer loop
      vertex -12 73 0
      vertex -158 73 -5
      vertex -12 73 -5
    endloop
  endfacet
  facet normal 0 1 -0
    outer loop
      vertex -12 -73 -5
      vertex -158 -73 0
      vertex -12 -73 0
    endloop
  endfacet
  facet normal 0 1 0
    outer loop
      vertex -158 -73 0
      vertex -12 -73 -5
      vertex -158 -73 -5
    endloop
  endfacet
  facet normal -1 0 0
    outer loop
      vertex -2 -83 2
      vertex -2 83 5
      vertex -2 83 2
    endloop
  endfacet
  facet normal -1 -0 0
    outer loop
      vertex -2 83 5
      vertex -2 -83 2
      vertex -2 -83 5
    endloop
  endfacet
  facet normal 0 0 1
    outer loop
      vertex -2 83 2
      vertex -8.5 76.5 2
      vertex -2 -83 2
    endloop
  endfacet
  facet normal 0 0 1
    outer loop
      vertex -2 83 2
      vertex -161.5 76.5 2
      vertex -8.5 76.5 2
    endloop
  endfacet
  facet normal 0 0 1
    outer loop
      vertex -161.5 76.5 2
      vertex -168 83 2
      vertex -161.5 -76.5 2
    endloop
  endfacet
  facet normal -0 0 1
    outer loop
      vertex -168 83 2
      vertex -161.5 76.5 2
      vertex -2 83 2
    endloop
  endfacet
  facet normal -0 0 1
    outer loop
      vertex -8.5 -76.5 2
      vertex -2 -83 2
      vertex -8.5 76.5 2
    endloop
  endfacet
  facet normal -0 0 1
    outer loop
      vertex -161.5 -76.5 2
      vertex -2 -83 2
      vertex -8.5 -76.5 2
    endloop
  endfacet
  facet normal 0 0 1
    outer loop
      vertex -161.5 -76.5 2
      vertex -168 -83 2
      vertex -2 -83 2
    endloop
  endfacet
  facet normal 0 0 1
    outer loop
      vertex -168 -83 2
      vertex -161.5 -76.5 2
      vertex -168 83 2
    endloop
  endfacet
  facet normal 1 -0 0
    outer loop
      vertex -168 -83 5
      vertex -168 83 2
      vertex -168 83 5
    endloop
  endfacet
  facet normal 1 0 0
    outer loop
      vertex -168 83 2
      vertex -168 -83 5
      vertex -168 -83 2
    endloop
  endfacet
  facet normal 0 -1 0
    outer loop
      vertex -168 83 2
      vertex -2 83 5
      vertex -168 83 5
    endloop
  endfacet
  facet normal 0 -1 -0
    outer loop
      vertex -2 83 5
      vertex -168 83 2
      vertex -2 83 2
    endloop
  endfacet
  facet normal 0 1 -0
    outer loop
      vertex -2 -83 2
      vertex -168 -83 5
      vertex -2 -83 5
    endloop
  endfacet
  facet normal 0 1 0
    outer loop
      vertex -168 -83 5
      vertex -2 -83 2
      vertex -168 -83 2
    endloop
  endfacet
  facet normal -1 0 0
    outer loop
      vertex -8.5 -76.5 0
      vertex -8.5 76.5 2
      vertex -8.5 76.5 0
    endloop
  endfacet
  facet normal -1 -0 0
    outer loop
      vertex -8.5 76.5 2
      vertex -8.5 -76.5 0
      vertex -8.5 -76.5 2
    endloop
  endfacet
  facet normal 0 0 1
    outer loop
      vertex -8.5 76.5 0
      vertex -12 73 0
      vertex -8.5 -76.5 0
    endloop
  endfacet
  facet normal 0 0 1
    outer loop
      vertex -8.5 76.5 0
      vertex -158 73 0
      vertex -12 73 0
    endloop
  endfacet
  facet normal 0 0 1
    outer loop
      vertex -158 73 0
      vertex -161.5 76.5 0
      vertex -158 -73 0
    endloop
  endfacet
  facet normal -0 0 1
    outer loop
      vertex -161.5 76.5 0
      vertex -158 73 0
      vertex -8.5 76.5 0
    endloop
  endfacet
  facet normal -0 0 1
    outer loop
      vertex -12 -73 0
      vertex -8.5 -76.5 0
      vertex -12 73 0
    endloop
  endfacet
  facet normal -0 0 1
    outer loop
      vertex -158 -73 0
      vertex -8.5 -76.5 0
      vertex -12 -73 0
    endloop
  endfacet
  facet normal 0 0 1
    outer loop
      vertex -158 -73 0
      vertex -161.5 -76.5 0
      vertex -8.5 -76.5 0
    endloop
  endfacet
  facet normal 0 0 1
    outer loop
      vertex -161.5 -76.5 0
      vertex -158 -73 0
      vertex -161.5 76.5 0
    endloop
  endfacet
  facet normal 1 -0 0
    outer loop
      vertex -161.5 -76.5 2
      vertex -161.5 76.5 0
      vertex -161.5 76.5 2
    endloop
  endfacet
  facet normal 1 0 0
    outer loop
      vertex -161.5 76.5 0
      vertex -161.5 -76.5 2
      vertex -161.5 -76.5 0
    endloop
  endfacet
  facet normal 0 -1 0
    outer loop
      vertex -161.5 76.5 0
      vertex -8.5 76.5 2
      vertex -161.5 76.5 2
    endloop
  endfacet
  facet normal 0 -1 -0
    outer loop
      vertex -8.5 76.5 2
      vertex -161.5 76.5 0
      vertex -8.5 76.5 0
    endloop
  endfacet
  facet normal 0 1 -0
    outer loop
      vertex -8.5 -76.5 0
      vertex -161.5 -76.5 2
      vertex -8.5 -76.5 2
    endloop
  endfacet
  facet normal 0 1 0
    outer loop
      vertex -161.5 -76.5 2
      vertex -8.5 -76.5 0
      vertex -161.5 -76.5 0
    endloop
  endfacet
  facet normal 1 -0 0
    outer loop
      vertex 161.1 -76.1 -3
      vertex 161.1 76.1 -5
      vertex 161.1 76.1 -3
    endloop
  endfacet
  facet normal 1 0 0
    outer loop
      vertex 161.1 76.1 -5
      vertex 161.1 -76.1 -3
      vertex 161.1 -76.1 -5
    endloop
  endfacet
  facet normal -0 0 1
    outer loop
      vertex 91 30 -3
      vertex 155 20 -3
      vertex 155 30 -3
    endloop
  endfacet
  facet normal 0 0 1
    outer loop
      vertex 155 20 -3
      vertex 91 30 -3
      vertex 91 20 -3
    endloop
  endfacet
  facet normal 0 0 1
    outer loop
      vertex 155 30 -3
      vertex 161.1 76.1 -3
      vertex 155 70 -3
    endloop
  endfacet
  facet normal 0 0 1
    outer loop
      vertex 161.1 76.1 -3
      vertex 15 70 -3
      vertex 155 70 -3
    endloop
  endfacet
  facet normal 0 0 1
    outer loop
      vertex 8.9 76.1 -3
      vertex 15 30 -3
      vertex 15 70 -3
    endloop
  endfacet
  facet normal 0 0 1
    outer loop
      vertex 15 30 -3
      vertex 8.9 76.1 -3
      vertex 15 20 -3
    endloop
  endfacet
  facet normal 0 0 1
    outer loop
      vertex 8.9 -76.1 -3
      vertex 15 20 -3
      vertex 8.9 76.1 -3
    endloop
  endfacet
  facet normal -0 0 1
    outer loop
      vertex 8.9 76.1 -3
      vertex 15 70 -3
      vertex 161.1 76.1 -3
    endloop
  endfacet
  facet normal 0 0 1
    outer loop
      vertex 155 20 -3
      vertex 161.1 76.1 -3
      vertex 155 30 -3
    endloop
  endfacet
  facet normal 0 0 1
    outer loop
      vertex 161.1 76.1 -3
      vertex 155 20 -3
      vertex 161.1 -76.1 -3
    endloop
  endfacet
  facet normal -0 0 1
    outer loop
      vertex 155 -70 -3
      vertex 161.1 -76.1 -3
      vertex 155 20 -3
    endloop
  endfacet
  facet normal -0 0 1
    outer loop
      vertex 15 -70 -3
      vertex 161.1 -76.1 -3
      vertex 155 -70 -3
    endloop
  endfacet
  facet normal 0 0 1
    outer loop
      vertex 15 -70 -3
      vertex 8.9 -76.1 -3
      vertex 161.1 -76.1 -3
    endloop
  endfacet
  facet normal 0 0 1
    outer loop
      vertex 15 20 -3
      vertex 8.9 -76.1 -3
      vertex 15 -70 -3
    endloop
  endfacet
  facet normal -0 0 1
    outer loop
      vertex 15 30 -3
      vertex 79 20 -3
      vertex 79 30 -3
    endloop
  endfacet
  facet normal 0 0 1
    outer loop
      vertex 79 20 -3
      vertex 15 30 -3
      vertex 15 20 -3
    endloop
  endfacet
  facet normal 0 0 -1
    outer loop
      vertex 15 20 -5
      vertex 59.5 30 -5
      vertex 59.5 20 -5
    endloop
  endfacet
  facet normal -0 0 -1
    outer loop
      vertex 59.5 30 -5
      vertex 15 20 -5
      vertex 15 30 -5
    endloop
  endfacet
  facet normal 0 0 -1
    outer loop
      vertex 15 -25.5 -5
      vertex 59.5 -24.5 -5
      vertex 59.5 -25.5 -5
    endloop
  endfacet
  facet normal -0 0 -1
    outer loop
      vertex 59.5 -24.5 -5
      vertex 15 -25.5 -5
      vertex 15 -24.5 -5
    endloop
  endfacet
  facet normal 0 0 -1
    outer loop
      vertex 60.5 20 -5
      vertex 109.5 30 -5
      vertex 109.5 20 -5
    endloop
  endfacet
  facet normal -0 0 -1
    outer loop
      vertex 109.5 30 -5
      vertex 60.5 20 -5
      vertex 60.5 30 -5
    endloop
  endfacet
  facet normal 0 0 -1
    outer loop
      vertex 60.5 -25.5 -5
      vertex 109.5 -24.5 -5
      vertex 109.5 -25.5 -5
    endloop
  endfacet
  facet normal -0 0 -1
    outer loop
      vertex 109.5 -24.5 -5
      vertex 60.5 -25.5 -5
      vertex 60.5 -24.5 -5
    endloop
  endfacet
  facet normal 0 0 -1
    outer loop
      vertex 110.5 20 -5
      vertex 155 30 -5
      vertex 155 20 -5
    endloop
  endfacet
  facet normal -0 0 -1
    outer loop
      vertex 155 30 -5
      vertex 110.5 20 -5
      vertex 110.5 30 -5
    endloop
  endfacet
  facet normal 0 0 -1
    outer loop
      vertex 110.5 -25.5 -5
      vertex 155 -24.5 -5
      vertex 155 -25.5 -5
    endloop
  endfacet
  facet normal -0 0 -1
    outer loop
      vertex 155 -24.5 -5
      vertex 110.5 -25.5 -5
      vertex 110.5 -24.5 -5
    endloop
  endfacet
  facet normal 0 0 -1
    outer loop
      vertex 155 -25.5 -5
      vertex 161.1 -76.1 -5
      vertex 155 -70 -5
    endloop
  endfacet
  facet normal 0 0 -1
    outer loop
      vertex 161.1 -76.1 -5
      vertex 110.5 -70 -5
      vertex 155 -70 -5
    endloop
  endfacet
  facet normal 0 0 -1
    outer loop
      vertex 109.5 -25.5 -5
      vertex 110.5 -25.5 -5
      vertex 110.5 -70 -5
    endloop
  endfacet
  facet normal 0 0 -1
    outer loop
      vertex 110.5 -25.5 -5
      vertex 109.5 -25.5 -5
      vertex 110.5 -24.5 -5
    endloop
  endfacet
  facet normal 0 0 -1
    outer loop
      vertex 110.5 -24.5 -5
      vertex 109.5 -24.5 -5
      vertex 110.5 20 -5
    endloop
  endfacet
  facet normal 0 0 -1
    outer loop
      vertex 109.5 20 -5
      vertex 110.5 20 -5
      vertex 109.5 -24.5 -5
    endloop
  endfacet
  facet normal 0 0 -1
    outer loop
      vertex 109.5 -25.5 -5
      vertex 110.5 -70 -5
      vertex 109.5 -70 -5
    endloop
  endfacet
  facet normal 0 0 -1
    outer loop
      vertex 161.1 -76.1 -5
      vertex 109.5 -70 -5
      vertex 110.5 -70 -5
    endloop
  endfacet
  facet normal 0 0 -1
    outer loop
      vertex 161.1 -76.1 -5
      vertex 60.5 -70 -5
      vertex 109.5 -70 -5
    endloop
  endfacet
  facet normal 0 0 -1
    outer loop
      vertex 59.5 -25.5 -5
      vertex 60.5 -25.5 -5
      vertex 60.5 -70 -5
    endloop
  endfacet
  facet normal 0 0 -1
    outer loop
      vertex 60.5 -25.5 -5
      vertex 59.5 -25.5 -5
      vertex 60.5 -24.5 -5
    endloop
  endfacet
  facet normal 0 0 -1
    outer loop
      vertex 60.5 -24.5 -5
      vertex 59.5 -24.5 -5
      vertex 60.5 20 -5
    endloop
  endfacet
  facet normal 0 0 -1
    outer loop
      vertex 59.5 20 -5
      vertex 60.5 20 -5
      vertex 59.5 -24.5 -5
    endloop
  endfacet
  facet normal 0 0 -1
    outer loop
      vertex 59.5 -25.5 -5
      vertex 60.5 -70 -5
      vertex 59.5 -70 -5
    endloop
  endfacet
  facet normal 0 0 -1
    outer loop
      vertex 8.9 -76.1 -5
      vertex 60.5 -70 -5
      vertex 161.1 -76.1 -5
    endloop
  endfacet
  facet normal -0 0 -1
    outer loop
      vertex 60.5 -70 -5
      vertex 8.9 -76.1 -5
      vertex 59.5 -70 -5
    endloop
  endfacet
  facet normal 0 0 -1
    outer loop
      vertex 8.9 -76.1 -5
      vertex 15 -25.5 -5
      vertex 15 -70 -5
    endloop
  endfacet
  facet normal -0 0 -1
    outer loop
      vertex 15 -25.5 -5
      vertex 8.9 -76.1 -5
      vertex 15 -24.5 -5
    endloop
  endfacet
  facet normal -0 0 -1
    outer loop
      vertex 15 -24.5 -5
      vertex 8.9 -76.1 -5
      vertex 15 20 -5
    endloop
  endfacet
  facet normal 0 0 -1
    outer loop
      vertex 8.9 76.1 -5
      vertex 15 20 -5
      vertex 8.9 -76.1 -5
    endloop
  endfacet
  facet normal 0 0 -1
    outer loop
      vertex 15 20 -5
      vertex 8.9 76.1 -5
      vertex 15 30 -5
    endloop
  endfacet
  facet normal -0 0 -1
    outer loop
      vertex 59.5 -70 -5
      vertex 8.9 -76.1 -5
      vertex 15 -70 -5
    endloop
  endfacet
  facet normal 0 0 -1
    outer loop
      vertex 155 -24.5 -5
      vertex 161.1 -76.1 -5
      vertex 155 -25.5 -5
    endloop
  endfacet
  facet normal 0 0 -1
    outer loop
      vertex 161.1 -76.1 -5
      vertex 155 -24.5 -5
      vertex 161.1 76.1 -5
    endloop
  endfacet
  facet normal 0 0 -1
    outer loop
      vertex 155 20 -5
      vertex 161.1 76.1 -5
      vertex 155 -24.5 -5
    endloop
  endfacet
  facet normal 0 0 -1
    outer loop
      vertex 155 30 -5
      vertex 161.1 76.1 -5
      vertex 155 20 -5
    endloop
  endfacet
  facet normal 0 0 -1
    outer loop
      vertex 155 70 -5
      vertex 161.1 76.1 -5
      vertex 155 30 -5
    endloop
  endfacet
  facet normal 0 0 -1
    outer loop
      vertex 110.5 70 -5
      vertex 161.1 76.1 -5
      vertex 155 70 -5
    endloop
  endfacet
  facet normal -0 0 -1
    outer loop
      vertex 110.5 -24.5 -5
      vertex 109.5 -25.5 -5
      vertex 109.5 -24.5 -5
    endloop
  endfacet
  facet normal 0 0 -1
    outer loop
      vertex 110.5 20 -5
      vertex 109.5 20 -5
      vertex 110.5 30 -5
    endloop
  endfacet
  facet normal 0 0 -1
    outer loop
      vertex 109.5 30 -5
      vertex 110.5 30 -5
      vertex 109.5 20 -5
    endloop
  endfacet
  facet normal 0 0 -1
    outer loop
      vertex 110.5 30 -5
      vertex 109.5 30 -5
      vertex 110.5 70 -5
    endloop
  endfacet
  facet normal 0 0 -1
    outer loop
      vertex 109.5 70 -5
      vertex 110.5 70 -5
      vertex 109.5 30 -5
    endloop
  endfacet
  facet normal 0 0 -1
    outer loop
      vertex 109.5 70 -5
      vertex 161.1 76.1 -5
      vertex 110.5 70 -5
    endloop
  endfacet
  facet normal 0 0 -1
    outer loop
      vertex 60.5 70 -5
      vertex 161.1 76.1 -5
      vertex 109.5 70 -5
    endloop
  endfacet
  facet normal -0 0 -1
    outer loop
      vertex 60.5 -24.5 -5
      vertex 59.5 -25.5 -5
      vertex 59.5 -24.5 -5
    endloop
  endfacet
  facet normal 0 0 -1
    outer loop
      vertex 60.5 20 -5
      vertex 59.5 20 -5
      vertex 60.5 30 -5
    endloop
  endfacet
  facet normal 0 0 -1
    outer loop
      vertex 59.5 30 -5
      vertex 60.5 30 -5
      vertex 59.5 20 -5
    endloop
  endfacet
  facet normal 0 0 -1
    outer loop
      vertex 60.5 30 -5
      vertex 59.5 30 -5
      vertex 60.5 70 -5
    endloop
  endfacet
  facet normal 0 0 -1
    outer loop
      vertex 59.5 70 -5
      vertex 60.5 70 -5
      vertex 59.5 30 -5
    endloop
  endfacet
  facet normal 0 0 -1
    outer loop
      vertex 8.9 76.1 -5
      vertex 60.5 70 -5
      vertex 59.5 70 -5
    endloop
  endfacet
  facet normal 0 0 -1
    outer loop
      vertex 8.9 76.1 -5
      vertex 59.5 70 -5
      vertex 15 70 -5
    endloop
  endfacet
  facet normal 0 0 -1
    outer loop
      vertex 60.5 70 -5
      vertex 8.9 76.1 -5
      vertex 161.1 76.1 -5
    endloop
  endfacet
  facet normal 0 0 -1
    outer loop
      vertex 15 30 -5
      vertex 8.9 76.1 -5
      vertex 15 70 -5
    endloop
  endfacet
  facet normal -1 0 0
    outer loop
      vertex 8.9 -76.1 -5
      vertex 8.9 76.1 -3
      vertex 8.9 76.1 -5
    endloop
  endfacet
  facet normal -1 -0 0
    outer loop
      vertex 8.9 76.1 -3
      vertex 8.9 -76.1 -5
      vertex 8.9 -76.1 -3
    endloop
  endfacet
  facet normal 0 1 -0
    outer loop
      vertex 161.1 76.1 -5
      vertex 8.9 76.1 -3
      vertex 161.1 76.1 -3
    endloop
  endfacet
  facet normal 0 1 0
    outer loop
      vertex 8.9 76.1 -3
      vertex 161.1 76.1 -5
      vertex 8.9 76.1 -5
    endloop
  endfacet
  facet normal 0 -1 0
    outer loop
      vertex 8.9 -76.1 -5
      vertex 161.1 -76.1 -3
      vertex 8.9 -76.1 -3
    endloop
  endfacet
  facet normal 0 -1 -0
    outer loop
      vertex 161.1 -76.1 -3
      vertex 8.9 -76.1 -5
      vertex 161.1 -76.1 -5
    endloop
  endfacet
  facet normal -1 0 0
    outer loop
      vertex 155 30 -5
      vertex 155 70 -3
      vertex 155 70 -5
    endloop
  endfacet
  facet normal -1 -0 0
    outer loop
      vertex 155 70 -3
      vertex 155 30 -5
      vertex 155 30 -3
    endloop
  endfacet
  facet normal -1 0 0
    outer loop
      vertex 155 -25.5 -5
      vertex 155 -70 -5
      vertex 155 -25.5 -4
    endloop
  endfacet
  facet normal -1 0 0
    outer loop
      vertex 155 -24.5 -4
      vertex 155 20 -5
      vertex 155 -24.5 -5
    endloop
  endfacet
  facet normal -1 0 0
    outer loop
      vertex 155 20 -5
      vertex 155 -24.5 -4
      vertex 155 20 -3
    endloop
  endfacet
  facet normal -1 0 0
    outer loop
      vertex 155 -25.5 -4
      vertex 155 20 -3
      vertex 155 -24.5 -4
    endloop
  endfacet
  facet normal -1 0 0
    outer loop
      vertex 155 -25.5 -4
      vertex 155 -70 -3
      vertex 155 20 -3
    endloop
  endfacet
  facet normal -1 0 0
    outer loop
      vertex 155 -70 -3
      vertex 155 -25.5 -4
      vertex 155 -70 -5
    endloop
  endfacet
  facet normal 1 0 0
    outer loop
      vertex 15 20 -3
      vertex 15 -24.5 -4
      vertex 15 20 -5
    endloop
  endfacet
  facet normal 1 0 0
    outer loop
      vertex 15 20 -3
      vertex 15 -25.5 -4
      vertex 15 -24.5 -4
    endloop
  endfacet
  facet normal 1 -0 0
    outer loop
      vertex 15 -70 -3
      vertex 15 -25.5 -4
      vertex 15 20 -3
    endloop
  endfacet
  facet normal 1 0 0
    outer loop
      vertex 15 -70 -5
      vertex 15 -25.5 -4
      vertex 15 -70 -3
    endloop
  endfacet
  facet normal 1 0 0
    outer loop
      vertex 15 -25.5 -4
      vertex 15 -70 -5
      vertex 15 -25.5 -5
    endloop
  endfacet
  facet normal 1 0 0
    outer loop
      vertex 15 20 -5
      vertex 15 -24.5 -4
      vertex 15 -24.5 -5
    endloop
  endfacet
  facet normal 1 -0 0
    outer loop
      vertex 15 30 -3
      vertex 15 70 -5
      vertex 15 70 -3
    endloop
  endfacet
  facet normal 1 0 0
    outer loop
      vertex 15 70 -5
      vertex 15 30 -3
      vertex 15 30 -5
    endloop
  endfacet
  facet normal 0 -1 0
    outer loop
      vertex 60.5 70 -5
      vertex 109.5 70 -4
      vertex 60.5 70 -4
    endloop
  endfacet
  facet normal 0 -1 -0
    outer loop
      vertex 109.5 70 -4
      vertex 60.5 70 -5
      vertex 109.5 70 -5
    endloop
  endfacet
  facet normal 0 -1 0
    outer loop
      vertex 60.5 70 -4
      vertex 15 70 -3
      vertex 59.5 70 -4
    endloop
  endfacet
  facet normal 0 -1 0
    outer loop
      vertex 15 70 -5
      vertex 59.5 70 -4
      vertex 15 70 -3
    endloop
  endfacet
  facet normal 0 -1 -0
    outer loop
      vertex 59.5 70 -4
      vertex 15 70 -5
      vertex 59.5 70 -5
    endloop
  endfacet
  facet normal 0 -1 0
    outer loop
      vertex 15 70 -3
      vertex 60.5 70 -4
      vertex 155 70 -3
    endloop
  endfacet
  facet normal 0 -1 0
    outer loop
      vertex 109.5 70 -4
      vertex 155 70 -3
      vertex 60.5 70 -4
    endloop
  endfacet
  facet normal 0 -1 0
    outer loop
      vertex 110.5 70 -4
      vertex 155 70 -3
      vertex 109.5 70 -4
    endloop
  endfacet
  facet normal 0 -1 0
    outer loop
      vertex 155 70 -5
      vertex 110.5 70 -4
      vertex 110.5 70 -5
    endloop
  endfacet
  facet normal 0 -1 0
    outer loop
      vertex 110.5 70 -4
      vertex 155 70 -5
      vertex 155 70 -3
    endloop
  endfacet
  facet normal 0 1 -0
    outer loop
      vertex 109.5 -70 -5
      vertex 60.5 -70 -4
      vertex 109.5 -70 -4
    endloop
  endfacet
  facet normal 0 1 0
    outer loop
      vertex 60.5 -70 -4
      vertex 109.5 -70 -5
      vertex 60.5 -70 -5
    endloop
  endfacet
  facet normal 0 1 0
    outer loop
      vertex 109.5 -70 -4
      vertex 155 -70 -3
      vertex 110.5 -70 -4
    endloop
  endfacet
  facet normal 0 1 -0
    outer loop
      vertex 155 -70 -5
      vertex 110.5 -70 -4
      vertex 155 -70 -3
    endloop
  endfacet
  facet normal 0 1 0
    outer loop
      vertex 110.5 -70 -4
      vertex 155 -70 -5
      vertex 110.5 -70 -5
    endloop
  endfacet
  facet normal 0 1 0
    outer loop
      vertex 155 -70 -3
      vertex 109.5 -70 -4
      vertex 15 -70 -3
    endloop
  endfacet
  facet normal 0 1 -0
    outer loop
      vertex 60.5 -70 -4
      vertex 15 -70 -3
      vertex 109.5 -70 -4
    endloop
  endfacet
  facet normal 0 1 -0
    outer loop
      vertex 59.5 -70 -4
      vertex 15 -70 -3
      vertex 60.5 -70 -4
    endloop
  endfacet
  facet normal 0 1 0
    outer loop
      vertex 15 -70 -5
      vertex 59.5 -70 -4
      vertex 59.5 -70 -5
    endloop
  endfacet
  facet normal 0 1 0
    outer loop
      vertex 59.5 -70 -4
      vertex 15 -70 -5
      vertex 15 -70 -3
    endloop
  endfacet
  facet normal 1 -0 0
    outer loop
      vertex 91 20 2
      vertex 91 30 -3
      vertex 91 30 2
    endloop
  endfacet
  facet normal 1 0 0
    outer loop
      vertex 91 30 -3
      vertex 91 20 2
      vertex 91 20 -3
    endloop
  endfacet
  facet normal 0 0 1
    outer loop
      vertex 91 30 2
      vertex 89.0711 20 2
      vertex 91 20 2
    endloop
  endfacet
  facet normal 0 0 1
    outer loop
      vertex 91 30 2
      vertex 85 24.0711 2
      vertex 89.0711 20 2
    endloop
  endfacet
  facet normal -0 0 1
    outer loop
      vertex 79 30 2
      vertex 85 24.0711 2
      vertex 91 30 2
    endloop
  endfacet
  facet normal 0 0 1
    outer loop
      vertex 79 30 2
      vertex 80.9289 20 2
      vertex 85 24.0711 2
    endloop
  endfacet
  facet normal 0 0 1
    outer loop
      vertex 80.9289 20 2
      vertex 79 30 2
      vertex 79 20 2
    endloop
  endfacet
  facet normal 0 -0 1
    outer loop
      vertex 81 20 0
      vertex 81 20.0711 0
      vertex 80.9289 20 0
    endloop
  endfacet
  facet normal 0 0 1
    outer loop
      vertex 89.0711 20 0
      vertex 89 20.0711 0
      vertex 89 20 0
    endloop
  endfacet
  facet normal 0 0 -1
    outer loop
      vertex 85 24.0711 0
      vertex 89 28 0
      vertex 89 20.0711 0
    endloop
  endfacet
  facet normal 0 0 -1
    outer loop
      vertex 85 24.0711 0
      vertex 81 28 0
      vertex 89 28 0
    endloop
  endfacet
  facet normal 0 0 -1
    outer loop
      vertex 81 28 0
      vertex 85 24.0711 0
      vertex 81 20.0711 0
    endloop
  endfacet
  facet normal -1 0 0
    outer loop
      vertex 79 20 -3
      vertex 79 30 2
      vertex 79 30 -3
    endloop
  endfacet
  facet normal -1 -0 0
    outer loop
      vertex 79 30 2
      vertex 79 20 -3
      vertex 79 20 2
    endloop
  endfacet
  facet normal 0 1 0
    outer loop
      vertex 60.5 30 -5
      vertex 79 30 -3
      vertex 109.5 30 -5
    endloop
  endfacet
  facet normal 0 1 0
    outer loop
      vertex 79 30 -3
      vertex 60.5 30 -5
      vertex 60.5 30 -4
    endloop
  endfacet
  facet normal 0 1 -0
    outer loop
      vertex 110.5 30 -4
      vertex 91 30 -3
      vertex 155 30 -3
    endloop
  endfacet
  facet normal 0 1 -0
    outer loop
      vertex 109.5 30 -4
      vertex 91 30 -3
      vertex 110.5 30 -4
    endloop
  endfacet
  facet normal 0 1 -0
    outer loop
      vertex 109.5 30 -5
      vertex 91 30 -3
      vertex 109.5 30 -4
    endloop
  endfacet
  facet normal 0 1 -0
    outer loop
      vertex 155 30 -5
      vertex 110.5 30 -4
      vertex 155 30 -3
    endloop
  endfacet
  facet normal 0 1 0
    outer loop
      vertex 110.5 30 -4
      vertex 155 30 -5
      vertex 110.5 30 -5
    endloop
  endfacet
  facet normal 0 1 -0
    outer loop
      vertex 91 30 -3
      vertex 79 30 2
      vertex 91 30 2
    endloop
  endfacet
  facet normal 0 1 0
    outer loop
      vertex 79 30 2
      vertex 91 30 -3
      vertex 79 30 -3
    endloop
  endfacet
  facet normal 0 1 0
    outer loop
      vertex 91 30 -3
      vertex 109.5 30 -5
      vertex 79 30 -3
    endloop
  endfacet
  facet normal 0 1 0
    outer loop
      vertex 59.5 30 -4
      vertex 79 30 -3
      vertex 60.5 30 -4
    endloop
  endfacet
  facet normal 0 1 0
    outer loop
      vertex 79 30 -3
      vertex 59.5 30 -4
      vertex 15 30 -3
    endloop
  endfacet
  facet normal 0 1 0
    outer loop
      vertex 15 30 -5
      vertex 59.5 30 -4
      vertex 59.5 30 -5
    endloop
  endfacet
  facet normal 0 1 0
    outer loop
      vertex 59.5 30 -4
      vertex 15 30 -5
      vertex 15 30 -3
    endloop
  endfacet
  facet normal 0 -1 0
    outer loop
      vertex 89 20 0
      vertex 89 20 -3
      vertex 89.0711 20 0
    endloop
  endfacet
  facet normal 0 -1 0
    outer loop
      vertex 89.0711 20 0
      vertex 91 20 2
      vertex 89.0711 20 2
    endloop
  endfacet
  facet normal 0 -1 0
    outer loop
      vertex 91 20 -3
      vertex 89.0711 20 0
      vertex 89 20 -3
    endloop
  endfacet
  facet normal 0 -1 0
    outer loop
      vertex 89.0711 20 0
      vertex 91 20 -3
      vertex 91 20 2
    endloop
  endfacet
  facet normal 0 -1 0
    outer loop
      vertex 109.5 20 -5
      vertex 89 20 -3
      vertex 60.5 20 -5
    endloop
  endfacet
  facet normal 0 -1 0
    outer loop
      vertex 89 20 -3
      vertex 109.5 20 -5
      vertex 109.5 20 -4
    endloop
  endfacet
  facet normal 0 -1 0
    outer loop
      vertex 59.5 20 -4
      vertex 79 20 -3
      vertex 15 20 -3
    endloop
  endfacet
  facet normal 0 -1 0
    outer loop
      vertex 60.5 20 -4
      vertex 79 20 -3
      vertex 59.5 20 -4
    endloop
  endfacet
  facet normal 0 -1 0
    outer loop
      vertex 60.5 20 -5
      vertex 79 20 -3
      vertex 60.5 20 -4
    endloop
  endfacet
  facet normal 0 -1 -0
    outer loop
      vertex 79 20 -3
      vertex 60.5 20 -5
      vertex 81 20 -3
    endloop
  endfacet
  facet normal 0 -1 -0
    outer loop
      vertex 81 20 -3
      vertex 60.5 20 -5
      vertex 89 20 -3
    endloop
  endfacet
  facet normal 0 -1 0
    outer loop
      vertex 15 20 -5
      vertex 59.5 20 -4
      vertex 15 20 -3
    endloop
  endfacet
  facet normal 0 -1 -0
    outer loop
      vertex 59.5 20 -4
      vertex 15 20 -5
      vertex 59.5 20 -5
    endloop
  endfacet
  facet normal 0 -1 0
    outer loop
      vertex 79 20 2
      vertex 80.9289 20 0
      vertex 80.9289 20 2
    endloop
  endfacet
  facet normal 0 -1 0
    outer loop
      vertex 79 20 -3
      vertex 80.9289 20 0
      vertex 79 20 2
    endloop
  endfacet
  facet normal 0 -1 0
    outer loop
      vertex 81 20 -3
      vertex 80.9289 20 0
      vertex 79 20 -3
    endloop
  endfacet
  facet normal 0 -1 0
    outer loop
      vertex 80.9289 20 0
      vertex 81 20 -3
      vertex 81 20 0
    endloop
  endfacet
  facet normal 0 -1 0
    outer loop
      vertex 89 20 -3
      vertex 109.5 20 -4
      vertex 91 20 -3
    endloop
  endfacet
  facet normal 0 -1 0
    outer loop
      vertex 110.5 20 -4
      vertex 91 20 -3
      vertex 109.5 20 -4
    endloop
  endfacet
  facet normal 0 -1 0
    outer loop
      vertex 91 20 -3
      vertex 110.5 20 -4
      vertex 155 20 -3
    endloop
  endfacet
  facet normal 0 -1 0
    outer loop
      vertex 155 20 -5
      vertex 110.5 20 -4
      vertex 110.5 20 -5
    endloop
  endfacet
  facet normal 0 -1 0
    outer loop
      vertex 110.5 20 -4
      vertex 155 20 -5
      vertex 155 20 -3
    endloop
  endfacet
  facet normal 0.707107 -0.707107 0
    outer loop
      vertex 85 24.0711 2
      vertex 81 20.0711 0
      vertex 85 24.0711 0
    endloop
  endfacet
  facet normal 0.707107 -0.707107 0
    outer loop
      vertex 80.9289 20 2
      vertex 81 20.0711 0
      vertex 85 24.0711 2
    endloop
  endfacet
  facet normal 0.707107 -0.707107 0
    outer loop
      vertex 81 20.0711 0
      vertex 80.9289 20 2
      vertex 80.9289 20 0
    endloop
  endfacet
  facet normal -0.707107 -0.707107 0
    outer loop
      vertex 89 20.0711 0
      vertex 85 24.0711 2
      vertex 85 24.0711 0
    endloop
  endfacet
  facet normal -0.707107 -0.707107 -0
    outer loop
      vertex 89.0711 20 2
      vertex 89 20.0711 0
      vertex 89.0711 20 0
    endloop
  endfacet
  facet normal -0.707107 -0.707107 0
    outer loop
      vertex 89 20.0711 0
      vertex 89.0711 20 2
      vertex 85 24.0711 2
    endloop
  endfacet
  facet normal -0 0 1
    outer loop
      vertex 81 28 -3
      vertex 89 20 -3
      vertex 89 28 -3
    endloop
  endfacet
  facet normal 0 0 1
    outer loop
      vertex 89 20 -3
      vertex 81 28 -3
      vertex 81 20 -3
    endloop
  endfacet
  facet normal -1 0 0
    outer loop
      vertex 89 28 -3
      vertex 89 20.0711 0
      vertex 89 28 0
    endloop
  endfacet
  facet normal -1 0 0
    outer loop
      vertex 89 20 -3
      vertex 89 20.0711 0
      vertex 89 28 -3
    endloop
  endfacet
  facet normal -1 -0 0
    outer loop
      vertex 89 20.0711 0
      vertex 89 20 -3
      vertex 89 20 0
    endloop
  endfacet
  facet normal 1 -0 0
    outer loop
      vertex 81 20.0711 0
      vertex 81 28 -3
      vertex 81 28 0
    endloop
  endfacet
  facet normal 1 0 0
    outer loop
      vertex 81 20 -3
      vertex 81 20.0711 0
      vertex 81 20 0
    endloop
  endfacet
  facet normal 1 0 0
    outer loop
      vertex 81 20.0711 0
      vertex 81 20 -3
      vertex 81 28 -3
    endloop
  endfacet
  facet normal 0 -1 0
    outer loop
      vertex 81 28 -3
      vertex 89 28 0
      vertex 81 28 0
    endloop
  endfacet
  facet normal 0 -1 -0
    outer loop
      vertex 89 28 0
      vertex 81 28 -3
      vertex 89 28 -3
    endloop
  endfacet
  facet normal -0 0 1
    outer loop
      vertex 15 -24.5 -4
      vertex 59.5 -25.5 -4
      vertex 59.5 -24.5 -4
    endloop
  endfacet
  facet normal 0 0 1
    outer loop
      vertex 59.5 -25.5 -4
      vertex 15 -24.5 -4
      vertex 15 -25.5 -4
    endloop
  endfacet
  facet normal 0 0 1
    outer loop
      vertex 59.5 -24.5 -4
      vertex 60.5 -24.5 -4
      vertex 60.5 20 -4
    endloop
  endfacet
  facet normal 0 0 1
    outer loop
      vertex 60.5 -24.5 -4
      vertex 59.5 -24.5 -4
      vertex 60.5 -25.5 -4
    endloop
  endfacet
  facet normal 0 0 1
    outer loop
      vertex 59.5 -24.5 -4
      vertex 60.5 20 -4
      vertex 59.5 20 -4
    endloop
  endfacet
  facet normal 0 0 1
    outer loop
      vertex 59.5 -25.5 -4
      vertex 60.5 -25.5 -4
      vertex 59.5 -24.5 -4
    endloop
  endfacet
  facet normal 0 0 1
    outer loop
      vertex 60.5 -25.5 -4
      vertex 59.5 -25.5 -4
      vertex 60.5 -70 -4
    endloop
  endfacet
  facet normal 0 0 1
    outer loop
      vertex 60.5 -70 -4
      vertex 59.5 -25.5 -4
      vertex 59.5 -70 -4
    endloop
  endfacet
  facet normal -0 0 1
    outer loop
      vertex 60.5 -24.5 -4
      vertex 109.5 -25.5 -4
      vertex 109.5 -24.5 -4
    endloop
  endfacet
  facet normal 0 0 1
    outer loop
      vertex 109.5 -25.5 -4
      vertex 60.5 -24.5 -4
      vertex 60.5 -25.5 -4
    endloop
  endfacet
  facet normal 0 0 1
    outer loop
      vertex 109.5 -24.5 -4
      vertex 110.5 -24.5 -4
      vertex 110.5 20 -4
    endloop
  endfacet
  facet normal 0 0 1
    outer loop
      vertex 110.5 -24.5 -4
      vertex 109.5 -24.5 -4
      vertex 110.5 -25.5 -4
    endloop
  endfacet
  facet normal 0 0 1
    outer loop
      vertex 109.5 -24.5 -4
      vertex 110.5 20 -4
      vertex 109.5 20 -4
    endloop
  endfacet
  facet normal 0 0 1
    outer loop
      vertex 109.5 -25.5 -4
      vertex 110.5 -25.5 -4
      vertex 109.5 -24.5 -4
    endloop
  endfacet
  facet normal 0 0 1
    outer loop
      vertex 110.5 -25.5 -4
      vertex 109.5 -25.5 -4
      vertex 110.5 -70 -4
    endloop
  endfacet
  facet normal 0 0 1
    outer loop
      vertex 110.5 -70 -4
      vertex 109.5 -25.5 -4
      vertex 109.5 -70 -4
    endloop
  endfacet
  facet normal -0 0 1
    outer loop
      vertex 110.5 -24.5 -4
      vertex 155 -25.5 -4
      vertex 155 -24.5 -4
    endloop
  endfacet
  facet normal 0 0 1
    outer loop
      vertex 155 -25.5 -4
      vertex 110.5 -24.5 -4
      vertex 110.5 -25.5 -4
    endloop
  endfacet
  facet normal -0 0 1
    outer loop
      vertex 59.5 70 -4
      vertex 60.5 30 -4
      vertex 60.5 70 -4
    endloop
  endfacet
  facet normal 0 0 1
    outer loop
      vertex 60.5 30 -4
      vertex 59.5 70 -4
      vertex 59.5 30 -4
    endloop
  endfacet
  facet normal -0 0 1
    outer loop
      vertex 109.5 70 -4
      vertex 110.5 30 -4
      vertex 110.5 70 -4
    endloop
  endfacet
  facet normal 0 0 1
    outer loop
      vertex 110.5 30 -4
      vertex 109.5 70 -4
      vertex 109.5 30 -4
    endloop
  endfacet
  facet normal 0 1 -0
    outer loop
      vertex 59.5 -24.5 -5
      vertex 15 -24.5 -4
      vertex 59.5 -24.5 -4
    endloop
  endfacet
  facet normal 0 1 0
    outer loop
      vertex 15 -24.5 -4
      vertex 59.5 -24.5 -5
      vertex 15 -24.5 -5
    endloop
  endfacet
  facet normal 0 1 -0
    outer loop
      vertex 109.5 -24.5 -5
      vertex 60.5 -24.5 -4
      vertex 109.5 -24.5 -4
    endloop
  endfacet
  facet normal 0 1 0
    outer loop
      vertex 60.5 -24.5 -4
      vertex 109.5 -24.5 -5
      vertex 60.5 -24.5 -5
    endloop
  endfacet
  facet normal 0 1 -0
    outer loop
      vertex 155 -24.5 -5
      vertex 110.5 -24.5 -4
      vertex 155 -24.5 -4
    endloop
  endfacet
  facet normal 0 1 0
    outer loop
      vertex 110.5 -24.5 -4
      vertex 155 -24.5 -5
      vertex 110.5 -24.5 -5
    endloop
  endfacet
  facet normal 0 -1 0
    outer loop
      vertex 15 -25.5 -5
      vertex 59.5 -25.5 -4
      vertex 15 -25.5 -4
    endloop
  endfacet
  facet normal 0 -1 -0
    outer loop
      vertex 59.5 -25.5 -4
      vertex 15 -25.5 -5
      vertex 59.5 -25.5 -5
    endloop
  endfacet
  facet normal 0 -1 0
    outer loop
      vertex 60.5 -25.5 -5
      vertex 109.5 -25.5 -4
      vertex 60.5 -25.5 -4
    endloop
  endfacet
  facet normal 0 -1 -0
    outer loop
      vertex 109.5 -25.5 -4
      vertex 60.5 -25.5 -5
      vertex 109.5 -25.5 -5
    endloop
  endfacet
  facet normal 0 -1 0
    outer loop
      vertex 110.5 -25.5 -5
      vertex 155 -25.5 -4
      vertex 110.5 -25.5 -4
    endloop
  endfacet
  facet normal 0 -1 -0
    outer loop
      vertex 155 -25.5 -4
      vertex 110.5 -25.5 -5
      vertex 155 -25.5 -5
    endloop
  endfacet
  facet normal 1 -0 0
    outer loop
      vertex 60.5 -24.5 -4
      vertex 60.5 20 -5
      vertex 60.5 20 -4
    endloop
  endfacet
  facet normal 1 0 0
    outer loop
      vertex 60.5 20 -5
      vertex 60.5 -24.5 -4
      vertex 60.5 -24.5 -5
    endloop
  endfacet
  facet normal 1 -0 0
    outer loop
      vertex 60.5 -70 -4
      vertex 60.5 -25.5 -5
      vertex 60.5 -25.5 -4
    endloop
  endfacet
  facet normal 1 0 0
    outer loop
      vertex 60.5 -25.5 -5
      vertex 60.5 -70 -4
      vertex 60.5 -70 -5
    endloop
  endfacet
  facet normal 1 -0 0
    outer loop
      vertex 60.5 30 -4
      vertex 60.5 70 -5
      vertex 60.5 70 -4
    endloop
  endfacet
  facet normal 1 0 0
    outer loop
      vertex 60.5 70 -5
      vertex 60.5 30 -4
      vertex 60.5 30 -5
    endloop
  endfacet
  facet normal -1 0 0
    outer loop
      vertex 59.5 -24.5 -5
      vertex 59.5 20 -4
      vertex 59.5 20 -5
    endloop
  endfacet
  facet normal -1 -0 0
    outer loop
      vertex 59.5 20 -4
      vertex 59.5 -24.5 -5
      vertex 59.5 -24.5 -4
    endloop
  endfacet
  facet normal -1 0 0
    outer loop
      vertex 59.5 -70 -5
      vertex 59.5 -25.5 -4
      vertex 59.5 -25.5 -5
    endloop
  endfacet
  facet normal -1 -0 0
    outer loop
      vertex 59.5 -25.5 -4
      vertex 59.5 -70 -5
      vertex 59.5 -70 -4
    endloop
  endfacet
  facet normal -1 0 0
    outer loop
      vertex 59.5 30 -5
      vertex 59.5 70 -4
      vertex 59.5 70 -5
    endloop
  endfacet
  facet normal -1 -0 0
    outer loop
      vertex 59.5 70 -4
      vertex 59.5 30 -5
      vertex 59.5 30 -4
    endloop
  endfacet
  facet normal 1 -0 0
    outer loop
      vertex 110.5 -70 -4
      vertex 110.5 -25.5 -5
      vertex 110.5 -25.5 -4
    endloop
  endfacet
  facet normal 1 0 0
    outer loop
      vertex 110.5 -25.5 -5
      vertex 110.5 -70 -4
      vertex 110.5 -70 -5
    endloop
  endfacet
  facet normal 1 -0 0
    outer loop
      vertex 110.5 -24.5 -4
      vertex 110.5 20 -5
      vertex 110.5 20 -4
    endloop
  endfacet
  facet normal 1 0 0
    outer loop
      vertex 110.5 20 -5
      vertex 110.5 -24.5 -4
      vertex 110.5 -24.5 -5
    endloop
  endfacet
  facet normal 1 -0 0
    outer loop
      vertex 110.5 30 -4
      vertex 110.5 70 -5
      vertex 110.5 70 -4
    endloop
  endfacet
  facet normal 1 0 0
    outer loop
      vertex 110.5 70 -5
      vertex 110.5 30 -4
      vertex 110.5 30 -5
    endloop
  endfacet
  facet normal -1 0 0
    outer loop
      vertex 109.5 -70 -5
      vertex 109.5 -25.5 -4
      vertex 109.5 -25.5 -5
    endloop
  endfacet
  facet normal -1 -0 0
    outer loop
      vertex 109.5 -25.5 -4
      vertex 109.5 -70 -5
      vertex 109.5 -70 -4
    endloop
  endfacet
  facet normal -1 0 0
    outer loop
      vertex 109.5 -24.5 -5
      vertex 109.5 20 -4
      vertex 109.5 20 -5
    endloop
  endfacet
  facet normal -1 -0 0
    outer loop
      vertex 109.5 20 -4
      vertex 109.5 -24.5 -5
      vertex 109.5 -24.5 -4
    endloop
  endfacet
  facet normal -1 0 0
    outer loop
      vertex 109.5 30 -5
      vertex 109.5 70 -4
      vertex 109.5 70 -5
    endloop
  endfacet
  facet normal -1 -0 0
    outer loop
      vertex 109.5 70 -4
      vertex 109.5 30 -5
      vertex 109.5 30 -4
    endloop
  endfacet
endsolid OpenSCAD_Model
