solid OpenSCAD_Model
  facet normal 1 -0 0
    outer loop
      vertex 97.5 -145 5
      vertex 97.5 0 -5
      vertex 97.5 0 5
    endloop
  endfacet
  facet normal 1 0 0
    outer loop
      vertex 97.5 0 -5
      vertex 97.5 -145 5
      vertex 97.5 -145 -5
    endloop
  endfacet
  facet normal 0 0 1
    outer loop
      vertex 97.5 0 5
      vertex 95.5 -2 5
      vertex 97.5 -145 5
    endloop
  endfacet
  facet normal 0 0 1
    outer loop
      vertex 97.5 0 5
      vertex -95.5 -2 5
      vertex 95.5 -2 5
    endloop
  endfacet
  facet normal 0 0 1
    outer loop
      vertex -95.5 -2 5
      vertex -97.5 0 5
      vertex -95.5 -143 5
    endloop
  endfacet
  facet normal -0 0 1
    outer loop
      vertex -97.5 0 5
      vertex -95.5 -2 5
      vertex 97.5 0 5
    endloop
  endfacet
  facet normal -0 0 1
    outer loop
      vertex 95.5 -143 5
      vertex 97.5 -145 5
      vertex 95.5 -2 5
    endloop
  endfacet
  facet normal -0 0 1
    outer loop
      vertex -95.5 -143 5
      vertex 97.5 -145 5
      vertex 95.5 -143 5
    endloop
  endfacet
  facet normal 0 0 1
    outer loop
      vertex -95.5 -143 5
      vertex -97.5 -145 5
      vertex 97.5 -145 5
    endloop
  endfacet
  facet normal 0 0 1
    outer loop
      vertex -97.5 -145 5
      vertex -95.5 -143 5
      vertex -97.5 0 5
    endloop
  endfacet
  facet normal 0 0 -1
    outer loop
      vertex 97.5 -145 -5
      vertex 85.5 -133 -5
      vertex 97.5 0 -5
    endloop
  endfacet
  facet normal 0 0 -1
    outer loop
      vertex 97.5 -145 -5
      vertex -85.5 -133 -5
      vertex 85.5 -133 -5
    endloop
  endfacet
  facet normal -0 0 -1
    outer loop
      vertex -85.5 -133 -5
      vertex -97.5 -145 -5
      vertex -85.5 -12 -5
    endloop
  endfacet
  facet normal 0 0 -1
    outer loop
      vertex -97.5 -145 -5
      vertex -85.5 -133 -5
      vertex 97.5 -145 -5
    endloop
  endfacet
  facet normal 0 0 -1
    outer loop
      vertex 85.5 -12 -5
      vertex 97.5 0 -5
      vertex 85.5 -133 -5
    endloop
  endfacet
  facet normal 0 0 -1
    outer loop
      vertex -85.5 -12 -5
      vertex 97.5 0 -5
      vertex 85.5 -12 -5
    endloop
  endfacet
  facet normal 0 0 -1
    outer loop
      vertex -85.5 -12 -5
      vertex -97.5 0 -5
      vertex 97.5 0 -5
    endloop
  endfacet
  facet normal 0 0 -1
    outer loop
      vertex -97.5 0 -5
      vertex -85.5 -12 -5
      vertex -97.5 -145 -5
    endloop
  endfacet
  facet normal -1 0 0
    outer loop
      vertex -97.5 -145 -5
      vertex -97.5 0 5
      vertex -97.5 0 -5
    endloop
  endfacet
  facet normal -1 -0 0
    outer loop
      vertex -97.5 0 5
      vertex -97.5 -145 -5
      vertex -97.5 -145 5
    endloop
  endfacet
  facet normal 0 1 -0
    outer loop
      vertex 97.5 0 -5
      vertex -97.5 0 5
      vertex 97.5 0 5
    endloop
  endfacet
  facet normal 0 1 0
    outer loop
      vertex -97.5 0 5
      vertex 97.5 0 -5
      vertex -97.5 0 -5
    endloop
  endfacet
  facet normal 0 -1 0
    outer loop
      vertex -97.5 -145 -5
      vertex 97.5 -145 5
      vertex -97.5 -145 5
    endloop
  endfacet
  facet normal 0 -1 -0
    outer loop
      vertex 97.5 -145 5
      vertex -97.5 -145 -5
      vertex 97.5 -145 -5
    endloop
  endfacet
  facet normal -1 0 0
    outer loop
      vertex 85.5 -133 -5
      vertex 85.5 -12 0
      vertex 85.5 -12 -5
    endloop
  endfacet
  facet normal -1 -0 0
    outer loop
      vertex 85.5 -12 0
      vertex 85.5 -133 -5
      vertex 85.5 -133 0
    endloop
  endfacet
  facet normal 1 -0 0
    outer loop
      vertex -85.5 -133 0
      vertex -85.5 -12 -5
      vertex -85.5 -12 0
    endloop
  endfacet
  facet normal 1 0 0
    outer loop
      vertex -85.5 -12 -5
      vertex -85.5 -133 0
      vertex -85.5 -133 -5
    endloop
  endfacet
  facet normal 0 -1 0
    outer loop
      vertex -85.5 -12 -5
      vertex 85.5 -12 0
      vertex -85.5 -12 0
    endloop
  endfacet
  facet normal 0 -1 -0
    outer loop
      vertex 85.5 -12 0
      vertex -85.5 -12 -5
      vertex 85.5 -12 -5
    endloop
  endfacet
  facet normal 0 1 -0
    outer loop
      vertex 85.5 -133 -5
      vertex -85.5 -133 0
      vertex 85.5 -133 0
    endloop
  endfacet
  facet normal 0 1 0
    outer loop
      vertex -85.5 -133 0
      vertex 85.5 -133 -5
      vertex -85.5 -133 -5
    endloop
  endfacet
  facet normal -1 0 0
    outer loop
      vertex 95.5 -143 2
      vertex 95.5 -2 5
      vertex 95.5 -2 2
    endloop
  endfacet
  facet normal -1 -0 0
    outer loop
      vertex 95.5 -2 5
      vertex 95.5 -143 2
      vertex 95.5 -143 5
    endloop
  endfacet
  facet normal 0 0 1
    outer loop
      vertex 95.5 -2 2
      vertex 89 -8.5 2
      vertex 95.5 -143 2
    endloop
  endfacet
  facet normal 0 0 1
    outer loop
      vertex 95.5 -2 2
      vertex -89 -8.5 2
      vertex 89 -8.5 2
    endloop
  endfacet
  facet normal 0 0 1
    outer loop
      vertex -89 -8.5 2
      vertex -95.5 -2 2
      vertex -89 -136.5 2
    endloop
  endfacet
  facet normal -0 0 1
    outer loop
      vertex -95.5 -2 2
      vertex -89 -8.5 2
      vertex 95.5 -2 2
    endloop
  endfacet
  facet normal -0 0 1
    outer loop
      vertex 89 -136.5 2
      vertex 95.5 -143 2
      vertex 89 -8.5 2
    endloop
  endfacet
  facet normal -0 0 1
    outer loop
      vertex -89 -136.5 2
      vertex 95.5 -143 2
      vertex 89 -136.5 2
    endloop
  endfacet
  facet normal 0 0 1
    outer loop
      vertex -89 -136.5 2
      vertex -95.5 -143 2
      vertex 95.5 -143 2
    endloop
  endfacet
  facet normal 0 0 1
    outer loop
      vertex -95.5 -143 2
      vertex -89 -136.5 2
      vertex -95.5 -2 2
    endloop
  endfacet
  facet normal 1 -0 0
    outer loop
      vertex -95.5 -143 5
      vertex -95.5 -2 2
      vertex -95.5 -2 5
    endloop
  endfacet
  facet normal 1 0 0
    outer loop
      vertex -95.5 -2 2
      vertex -95.5 -143 5
      vertex -95.5 -143 2
    endloop
  endfacet
  facet normal 0 -1 0
    outer loop
      vertex -95.5 -2 2
      vertex 95.5 -2 5
      vertex -95.5 -2 5
    endloop
  endfacet
  facet normal 0 -1 -0
    outer loop
      vertex 95.5 -2 5
      vertex -95.5 -2 2
      vertex 95.5 -2 2
    endloop
  endfacet
  facet normal 0 1 -0
    outer loop
      vertex 95.5 -143 2
      vertex -95.5 -143 5
      vertex 95.5 -143 5
    endloop
  endfacet
  facet normal 0 1 0
    outer loop
      vertex -95.5 -143 5
      vertex 95.5 -143 2
      vertex -95.5 -143 2
    endloop
  endfacet
  facet normal -1 0 0
    outer loop
      vertex 89 -136.5 0
      vertex 89 -8.5 2
      vertex 89 -8.5 0
    endloop
  endfacet
  facet normal -1 -0 0
    outer loop
      vertex 89 -8.5 2
      vertex 89 -136.5 0
      vertex 89 -136.5 2
    endloop
  endfacet
  facet normal 0 0 1
    outer loop
      vertex 89 -8.5 0
      vertex 85.5 -12 0
      vertex 89 -136.5 0
    endloop
  endfacet
  facet normal 0 0 1
    outer loop
      vertex 89 -8.5 0
      vertex -85.5 -12 0
      vertex 85.5 -12 0
    endloop
  endfacet
  facet normal 0 0 1
    outer loop
      vertex -85.5 -12 0
      vertex -89 -8.5 0
      vertex -85.5 -133 0
    endloop
  endfacet
  facet normal -0 0 1
    outer loop
      vertex -89 -8.5 0
      vertex -85.5 -12 0
      vertex 89 -8.5 0
    endloop
  endfacet
  facet normal -0 0 1
    outer loop
      vertex 85.5 -133 0
      vertex 89 -136.5 0
      vertex 85.5 -12 0
    endloop
  endfacet
  facet normal -0 0 1
    outer loop
      vertex -85.5 -133 0
      vertex 89 -136.5 0
      vertex 85.5 -133 0
    endloop
  endfacet
  facet normal 0 0 1
    outer loop
      vertex -85.5 -133 0
      vertex -89 -136.5 0
      vertex 89 -136.5 0
    endloop
  endfacet
  facet normal 0 0 1
    outer loop
      vertex -89 -136.5 0
      vertex -85.5 -133 0
      vertex -89 -8.5 0
    endloop
  endfacet
  facet normal 1 -0 0
    outer loop
      vertex -89 -136.5 2
      vertex -89 -8.5 0
      vertex -89 -8.5 2
    endloop
  endfacet
  facet normal 1 0 0
    outer loop
      vertex -89 -8.5 0
      vertex -89 -136.5 2
      vertex -89 -136.5 0
    endloop
  endfacet
  facet normal 0 -1 0
    outer loop
      vertex -89 -8.5 0
      vertex 89 -8.5 2
      vertex -89 -8.5 2
    endloop
  endfacet
  facet normal 0 -1 -0
    outer loop
      vertex 89 -8.5 2
      vertex -89 -8.5 0
      vertex 89 -8.5 0
    endloop
  endfacet
  facet normal 0 1 -0
    outer loop
      vertex 89 -136.5 0
      vertex -89 -136.5 2
      vertex 89 -136.5 2
    endloop
  endfacet
  facet normal 0 1 0
    outer loop
      vertex -89 -136.5 2
      vertex 89 -136.5 0
      vertex -89 -136.5 0
    endloop
  endfacet
  facet normal 1 -0 0
    outer loop
      vertex 88.6 8.9 -3
      vertex 88.6 136.1 -5
      vertex 88.6 136.1 -3
    endloop
  endfacet
  facet normal 1 0 0
    outer loop
      vertex 88.6 136.1 -5
      vertex 88.6 8.9 -3
      vertex 88.6 8.9 -5
    endloop
  endfacet
  facet normal -0 0 1
    outer loop
      vertex 6 98.3333 -3
      vertex 82.5 88.3333 -3
      vertex 82.5 98.3333 -3
    endloop
  endfacet
  facet normal 0 0 1
    outer loop
      vertex 82.5 88.3333 -3
      vertex 6 98.3333 -3
      vertex 6 88.3333 -3
    endloop
  endfacet
  facet normal 0 0 1
    outer loop
      vertex 82.5 98.3333 -3
      vertex 88.6 136.1 -3
      vertex 82.5 130 -3
    endloop
  endfacet
  facet normal 0 0 1
    outer loop
      vertex 88.6 136.1 -3
      vertex -82.5 130 -3
      vertex 82.5 130 -3
    endloop
  endfacet
  facet normal 0 0 1
    outer loop
      vertex -88.6 136.1 -3
      vertex -82.5 98.3333 -3
      vertex -82.5 130 -3
    endloop
  endfacet
  facet normal 0 0 1
    outer loop
      vertex -82.5 98.3333 -3
      vertex -88.6 136.1 -3
      vertex -82.5 88.3333 -3
    endloop
  endfacet
  facet normal 0 0 1
    outer loop
      vertex -88.6 8.9 -3
      vertex -82.5 88.3333 -3
      vertex -88.6 136.1 -3
    endloop
  endfacet
  facet normal -0 0 1
    outer loop
      vertex -88.6 136.1 -3
      vertex -82.5 130 -3
      vertex 88.6 136.1 -3
    endloop
  endfacet
  facet normal 0 0 1
    outer loop
      vertex 82.5 88.3333 -3
      vertex 88.6 136.1 -3
      vertex 82.5 98.3333 -3
    endloop
  endfacet
  facet normal 0 0 1
    outer loop
      vertex 88.6 136.1 -3
      vertex 82.5 88.3333 -3
      vertex 88.6 8.9 -3
    endloop
  endfacet
  facet normal -0 0 1
    outer loop
      vertex 82.5 15 -3
      vertex 88.6 8.9 -3
      vertex 82.5 88.3333 -3
    endloop
  endfacet
  facet normal -0 0 1
    outer loop
      vertex -82.5 15 -3
      vertex 88.6 8.9 -3
      vertex 82.5 15 -3
    endloop
  endfacet
  facet normal 0 0 1
    outer loop
      vertex -82.5 15 -3
      vertex -88.6 8.9 -3
      vertex 88.6 8.9 -3
    endloop
  endfacet
  facet normal 0 0 1
    outer loop
      vertex -82.5 88.3333 -3
      vertex -88.6 8.9 -3
      vertex -82.5 15 -3
    endloop
  endfacet
  facet normal -0 0 1
    outer loop
      vertex -82.5 98.3333 -3
      vertex -6 88.3333 -3
      vertex -6 98.3333 -3
    endloop
  endfacet
  facet normal 0 0 1
    outer loop
      vertex -6 88.3333 -3
      vertex -82.5 98.3333 -3
      vertex -82.5 88.3333 -3
    endloop
  endfacet
  facet normal 0 0 -1
    outer loop
      vertex -82.5 88.3333 -5
      vertex -29.6667 98.3333 -5
      vertex -29.6667 88.3333 -5
    endloop
  endfacet
  facet normal -0 0 -1
    outer loop
      vertex -29.6667 98.3333 -5
      vertex -82.5 88.3333 -5
      vertex -82.5 98.3333 -5
    endloop
  endfacet
  facet normal 0 0 -1
    outer loop
      vertex -82.5 51.1667 -5
      vertex -29.6667 52.1667 -5
      vertex -29.6667 51.1667 -5
    endloop
  endfacet
  facet normal -0 0 -1
    outer loop
      vertex -29.6667 52.1667 -5
      vertex -82.5 51.1667 -5
      vertex -82.5 52.1667 -5
    endloop
  endfacet
  facet normal 0 0 -1
    outer loop
      vertex -28.6667 88.3333 -5
      vertex 28.6667 98.3333 -5
      vertex 28.6667 88.3333 -5
    endloop
  endfacet
  facet normal -0 0 -1
    outer loop
      vertex 28.6667 98.3333 -5
      vertex -28.6667 88.3333 -5
      vertex -28.6667 98.3333 -5
    endloop
  endfacet
  facet normal 0 0 -1
    outer loop
      vertex -28.6667 51.1667 -5
      vertex 28.6667 52.1667 -5
      vertex 28.6667 51.1667 -5
    endloop
  endfacet
  facet normal -0 0 -1
    outer loop
      vertex 28.6667 52.1667 -5
      vertex -28.6667 51.1667 -5
      vertex -28.6667 52.1667 -5
    endloop
  endfacet
  facet normal 0 0 -1
    outer loop
      vertex 29.6667 88.3333 -5
      vertex 82.5 98.3333 -5
      vertex 82.5 88.3333 -5
    endloop
  endfacet
  facet normal -0 0 -1
    outer loop
      vertex 82.5 98.3333 -5
      vertex 29.6667 88.3333 -5
      vertex 29.6667 98.3333 -5
    endloop
  endfacet
  facet normal 0 0 -1
    outer loop
      vertex 29.6667 51.1667 -5
      vertex 82.5 52.1667 -5
      vertex 82.5 51.1667 -5
    endloop
  endfacet
  facet normal -0 0 -1
    outer loop
      vertex 82.5 52.1667 -5
      vertex 29.6667 51.1667 -5
      vertex 29.6667 52.1667 -5
    endloop
  endfacet
  facet normal 0 0 -1
    outer loop
      vertex 82.5 51.1667 -5
      vertex 88.6 8.9 -5
      vertex 82.5 15 -5
    endloop
  endfacet
  facet normal 0 0 -1
    outer loop
      vertex 88.6 8.9 -5
      vertex 29.6667 15 -5
      vertex 82.5 15 -5
    endloop
  endfacet
  facet normal 0 0 -1
    outer loop
      vertex 28.6667 51.1667 -5
      vertex 29.6667 51.1667 -5
      vertex 29.6667 15 -5
    endloop
  endfacet
  facet normal 0 0 -1
    outer loop
      vertex 29.6667 51.1667 -5
      vertex 28.6667 51.1667 -5
      vertex 29.6667 52.1667 -5
    endloop
  endfacet
  facet normal 0 0 -1
    outer loop
      vertex 29.6667 52.1667 -5
      vertex 28.6667 52.1667 -5
      vertex 29.6667 88.3333 -5
    endloop
  endfacet
  facet normal 0 0 -1
    outer loop
      vertex 28.6667 88.3333 -5
      vertex 29.6667 88.3333 -5
      vertex 28.6667 52.1667 -5
    endloop
  endfacet
  facet normal 0 0 -1
    outer loop
      vertex 28.6667 51.1667 -5
      vertex 29.6667 15 -5
      vertex 28.6667 15 -5
    endloop
  endfacet
  facet normal 0 0 -1
    outer loop
      vertex 88.6 8.9 -5
      vertex 28.6667 15 -5
      vertex 29.6667 15 -5
    endloop
  endfacet
  facet normal 0 0 -1
    outer loop
      vertex 88.6 8.9 -5
      vertex -28.6667 15 -5
      vertex 28.6667 15 -5
    endloop
  endfacet
  facet normal 0 0 -1
    outer loop
      vertex -29.6667 51.1667 -5
      vertex -28.6667 51.1667 -5
      vertex -28.6667 15 -5
    endloop
  endfacet
  facet normal 0 0 -1
    outer loop
      vertex -28.6667 51.1667 -5
      vertex -29.6667 51.1667 -5
      vertex -28.6667 52.1667 -5
    endloop
  endfacet
  facet normal 0 0 -1
    outer loop
      vertex -28.6667 52.1667 -5
      vertex -29.6667 52.1667 -5
      vertex -28.6667 88.3333 -5
    endloop
  endfacet
  facet normal 0 0 -1
    outer loop
      vertex -29.6667 88.3333 -5
      vertex -28.6667 88.3333 -5
      vertex -29.6667 52.1667 -5
    endloop
  endfacet
  facet normal 0 0 -1
    outer loop
      vertex -29.6667 51.1667 -5
      vertex -28.6667 15 -5
      vertex -29.6667 15 -5
    endloop
  endfacet
  facet normal 0 0 -1
    outer loop
      vertex -88.6 8.9 -5
      vertex -28.6667 15 -5
      vertex 88.6 8.9 -5
    endloop
  endfacet
  facet normal -0 0 -1
    outer loop
      vertex -28.6667 15 -5
      vertex -88.6 8.9 -5
      vertex -29.6667 15 -5
    endloop
  endfacet
  facet normal 0 0 -1
    outer loop
      vertex -88.6 8.9 -5
      vertex -82.5 51.1667 -5
      vertex -82.5 15 -5
    endloop
  endfacet
  facet normal -0 0 -1
    outer loop
      vertex -82.5 51.1667 -5
      vertex -88.6 8.9 -5
      vertex -82.5 52.1667 -5
    endloop
  endfacet
  facet normal -0 0 -1
    outer loop
      vertex -82.5 52.1667 -5
      vertex -88.6 8.9 -5
      vertex -82.5 88.3333 -5
    endloop
  endfacet
  facet normal 0 0 -1
    outer loop
      vertex -88.6 136.1 -5
      vertex -82.5 88.3333 -5
      vertex -88.6 8.9 -5
    endloop
  endfacet
  facet normal 0 0 -1
    outer loop
      vertex -82.5 88.3333 -5
      vertex -88.6 136.1 -5
      vertex -82.5 98.3333 -5
    endloop
  endfacet
  facet normal -0 0 -1
    outer loop
      vertex -29.6667 15 -5
      vertex -88.6 8.9 -5
      vertex -82.5 15 -5
    endloop
  endfacet
  facet normal 0 0 -1
    outer loop
      vertex 82.5 52.1667 -5
      vertex 88.6 8.9 -5
      vertex 82.5 51.1667 -5
    endloop
  endfacet
  facet normal 0 0 -1
    outer loop
      vertex 82.5 88.3333 -5
      vertex 88.6 8.9 -5
      vertex 82.5 52.1667 -5
    endloop
  endfacet
  facet normal 0 0 -1
    outer loop
      vertex 88.6 8.9 -5
      vertex 82.5 88.3333 -5
      vertex 88.6 136.1 -5
    endloop
  endfacet
  facet normal 0 0 -1
    outer loop
      vertex 82.5 98.3333 -5
      vertex 88.6 136.1 -5
      vertex 82.5 88.3333 -5
    endloop
  endfacet
  facet normal 0 0 -1
    outer loop
      vertex 82.5 130 -5
      vertex 88.6 136.1 -5
      vertex 82.5 98.3333 -5
    endloop
  endfacet
  facet normal 0 0 -1
    outer loop
      vertex 29.6667 130 -5
      vertex 88.6 136.1 -5
      vertex 82.5 130 -5
    endloop
  endfacet
  facet normal -0 0 -1
    outer loop
      vertex 29.6667 52.1667 -5
      vertex 28.6667 51.1667 -5
      vertex 28.6667 52.1667 -5
    endloop
  endfacet
  facet normal 0 0 -1
    outer loop
      vertex 29.6667 88.3333 -5
      vertex 28.6667 88.3333 -5
      vertex 29.6667 98.3333 -5
    endloop
  endfacet
  facet normal 0 0 -1
    outer loop
      vertex 28.6667 98.3333 -5
      vertex 29.6667 98.3333 -5
      vertex 28.6667 88.3333 -5
    endloop
  endfacet
  facet normal 0 0 -1
    outer loop
      vertex 29.6667 98.3333 -5
      vertex 28.6667 98.3333 -5
      vertex 29.6667 130 -5
    endloop
  endfacet
  facet normal 0 0 -1
    outer loop
      vertex 28.6667 130 -5
      vertex 29.6667 130 -5
      vertex 28.6667 98.3333 -5
    endloop
  endfacet
  facet normal 0 0 -1
    outer loop
      vertex 28.6667 130 -5
      vertex 88.6 136.1 -5
      vertex 29.6667 130 -5
    endloop
  endfacet
  facet normal 0 0 -1
    outer loop
      vertex -28.6667 130 -5
      vertex 88.6 136.1 -5
      vertex 28.6667 130 -5
    endloop
  endfacet
  facet normal -0 0 -1
    outer loop
      vertex -28.6667 52.1667 -5
      vertex -29.6667 51.1667 -5
      vertex -29.6667 52.1667 -5
    endloop
  endfacet
  facet normal 0 0 -1
    outer loop
      vertex -28.6667 88.3333 -5
      vertex -29.6667 88.3333 -5
      vertex -28.6667 98.3333 -5
    endloop
  endfacet
  facet normal 0 0 -1
    outer loop
      vertex -29.6667 98.3333 -5
      vertex -28.6667 98.3333 -5
      vertex -29.6667 88.3333 -5
    endloop
  endfacet
  facet normal 0 0 -1
    outer loop
      vertex -28.6667 98.3333 -5
      vertex -29.6667 98.3333 -5
      vertex -28.6667 130 -5
    endloop
  endfacet
  facet normal 0 0 -1
    outer loop
      vertex -29.6667 130 -5
      vertex -28.6667 130 -5
      vertex -29.6667 98.3333 -5
    endloop
  endfacet
  facet normal 0 0 -1
    outer loop
      vertex -88.6 136.1 -5
      vertex -28.6667 130 -5
      vertex -29.6667 130 -5
    endloop
  endfacet
  facet normal 0 0 -1
    outer loop
      vertex -88.6 136.1 -5
      vertex -29.6667 130 -5
      vertex -82.5 130 -5
    endloop
  endfacet
  facet normal 0 0 -1
    outer loop
      vertex -28.6667 130 -5
      vertex -88.6 136.1 -5
      vertex 88.6 136.1 -5
    endloop
  endfacet
  facet normal 0 0 -1
    outer loop
      vertex -82.5 98.3333 -5
      vertex -88.6 136.1 -5
      vertex -82.5 130 -5
    endloop
  endfacet
  facet normal -1 0 0
    outer loop
      vertex -88.6 8.9 -5
      vertex -88.6 136.1 -3
      vertex -88.6 136.1 -5
    endloop
  endfacet
  facet normal -1 -0 0
    outer loop
      vertex -88.6 136.1 -3
      vertex -88.6 8.9 -5
      vertex -88.6 8.9 -3
    endloop
  endfacet
  facet normal 0 1 -0
    outer loop
      vertex 88.6 136.1 -5
      vertex -88.6 136.1 -3
      vertex 88.6 136.1 -3
    endloop
  endfacet
  facet normal 0 1 0
    outer loop
      vertex -88.6 136.1 -3
      vertex 88.6 136.1 -5
      vertex -88.6 136.1 -5
    endloop
  endfacet
  facet normal 0 -1 0
    outer loop
      vertex -88.6 8.9 -5
      vertex 88.6 8.9 -3
      vertex -88.6 8.9 -3
    endloop
  endfacet
  facet normal 0 -1 -0
    outer loop
      vertex 88.6 8.9 -3
      vertex -88.6 8.9 -5
      vertex 88.6 8.9 -5
    endloop
  endfacet
  facet normal -1 0 0
    outer loop
      vertex 82.5 98.3333 -5
      vertex 82.5 130 -3
      vertex 82.5 130 -5
    endloop
  endfacet
  facet normal -1 -0 0
    outer loop
      vertex 82.5 130 -3
      vertex 82.5 98.3333 -5
      vertex 82.5 98.3333 -3
    endloop
  endfacet
  facet normal -1 0 0
    outer loop
      vertex 82.5 51.1667 -5
      vertex 82.5 15 -5
      vertex 82.5 51.1667 -4
    endloop
  endfacet
  facet normal -1 0 0
    outer loop
      vertex 82.5 52.1667 -4
      vertex 82.5 88.3333 -5
      vertex 82.5 52.1667 -5
    endloop
  endfacet
  facet normal -1 0 0
    outer loop
      vertex 82.5 88.3333 -5
      vertex 82.5 52.1667 -4
      vertex 82.5 88.3333 -3
    endloop
  endfacet
  facet normal -1 0 0
    outer loop
      vertex 82.5 51.1667 -4
      vertex 82.5 88.3333 -3
      vertex 82.5 52.1667 -4
    endloop
  endfacet
  facet normal -1 0 0
    outer loop
      vertex 82.5 51.1667 -4
      vertex 82.5 15 -3
      vertex 82.5 88.3333 -3
    endloop
  endfacet
  facet normal -1 0 0
    outer loop
      vertex 82.5 15 -3
      vertex 82.5 51.1667 -4
      vertex 82.5 15 -5
    endloop
  endfacet
  facet normal 1 -0 0
    outer loop
      vertex -82.5 98.3333 -3
      vertex -82.5 130 -5
      vertex -82.5 130 -3
    endloop
  endfacet
  facet normal 1 0 0
    outer loop
      vertex -82.5 130 -5
      vertex -82.5 98.3333 -3
      vertex -82.5 98.3333 -5
    endloop
  endfacet
  facet normal 1 0 0
    outer loop
      vertex -82.5 88.3333 -3
      vertex -82.5 52.1667 -4
      vertex -82.5 88.3333 -5
    endloop
  endfacet
  facet normal 1 0 0
    outer loop
      vertex -82.5 88.3333 -3
      vertex -82.5 51.1667 -4
      vertex -82.5 52.1667 -4
    endloop
  endfacet
  facet normal 1 -0 0
    outer loop
      vertex -82.5 15 -3
      vertex -82.5 51.1667 -4
      vertex -82.5 88.3333 -3
    endloop
  endfacet
  facet normal 1 0 0
    outer loop
      vertex -82.5 15 -5
      vertex -82.5 51.1667 -4
      vertex -82.5 15 -3
    endloop
  endfacet
  facet normal 1 0 0
    outer loop
      vertex -82.5 51.1667 -4
      vertex -82.5 15 -5
      vertex -82.5 51.1667 -5
    endloop
  endfacet
  facet normal 1 0 0
    outer loop
      vertex -82.5 88.3333 -5
      vertex -82.5 52.1667 -4
      vertex -82.5 52.1667 -5
    endloop
  endfacet
  facet normal 0 -1 0
    outer loop
      vertex -28.6667 130 -5
      vertex 28.6667 130 -4
      vertex -28.6667 130 -4
    endloop
  endfacet
  facet normal 0 -1 -0
    outer loop
      vertex 28.6667 130 -4
      vertex -28.6667 130 -5
      vertex 28.6667 130 -5
    endloop
  endfacet
  facet normal 0 -1 0
    outer loop
      vertex -82.5 130 -3
      vertex -29.6667 130 -4
      vertex 82.5 130 -3
    endloop
  endfacet
  facet normal 0 -1 0
    outer loop
      vertex -82.5 130 -5
      vertex -29.6667 130 -4
      vertex -82.5 130 -3
    endloop
  endfacet
  facet normal 0 -1 -0
    outer loop
      vertex -29.6667 130 -4
      vertex -82.5 130 -5
      vertex -29.6667 130 -5
    endloop
  endfacet
  facet normal 0 -1 0
    outer loop
      vertex -28.6667 130 -4
      vertex 82.5 130 -3
      vertex -29.6667 130 -4
    endloop
  endfacet
  facet normal 0 -1 0
    outer loop
      vertex 28.6667 130 -4
      vertex 82.5 130 -3
      vertex -28.6667 130 -4
    endloop
  endfacet
  facet normal 0 -1 0
    outer loop
      vertex 29.6667 130 -4
      vertex 82.5 130 -3
      vertex 28.6667 130 -4
    endloop
  endfacet
  facet normal 0 -1 0
    outer loop
      vertex 82.5 130 -5
      vertex 29.6667 130 -4
      vertex 29.6667 130 -5
    endloop
  endfacet
  facet normal 0 -1 0
    outer loop
      vertex 29.6667 130 -4
      vertex 82.5 130 -5
      vertex 82.5 130 -3
    endloop
  endfacet
  facet normal 0 1 -0
    outer loop
      vertex 28.6667 15 -5
      vertex -28.6667 15 -4
      vertex 28.6667 15 -4
    endloop
  endfacet
  facet normal 0 1 0
    outer loop
      vertex -28.6667 15 -4
      vertex 28.6667 15 -5
      vertex -28.6667 15 -5
    endloop
  endfacet
  facet normal 0 1 0
    outer loop
      vertex 82.5 15 -3
      vertex 29.6667 15 -4
      vertex -82.5 15 -3
    endloop
  endfacet
  facet normal 0 1 -0
    outer loop
      vertex 82.5 15 -5
      vertex 29.6667 15 -4
      vertex 82.5 15 -3
    endloop
  endfacet
  facet normal 0 1 0
    outer loop
      vertex 29.6667 15 -4
      vertex 82.5 15 -5
      vertex 29.6667 15 -5
    endloop
  endfacet
  facet normal 0 1 -0
    outer loop
      vertex 28.6667 15 -4
      vertex -82.5 15 -3
      vertex 29.6667 15 -4
    endloop
  endfacet
  facet normal 0 1 -0
    outer loop
      vertex -28.6667 15 -4
      vertex -82.5 15 -3
      vertex 28.6667 15 -4
    endloop
  endfacet
  facet normal 0 1 -0
    outer loop
      vertex -29.6667 15 -4
      vertex -82.5 15 -3
      vertex -28.6667 15 -4
    endloop
  endfacet
  facet normal 0 1 0
    outer loop
      vertex -82.5 15 -5
      vertex -29.6667 15 -4
      vertex -29.6667 15 -5
    endloop
  endfacet
  facet normal 0 1 0
    outer loop
      vertex -29.6667 15 -4
      vertex -82.5 15 -5
      vertex -82.5 15 -3
    endloop
  endfacet
  facet normal 1 -0 0
    outer loop
      vertex 6 88.3333 2
      vertex 6 98.3333 -3
      vertex 6 98.3333 2
    endloop
  endfacet
  facet normal 1 0 0
    outer loop
      vertex 6 98.3333 -3
      vertex 6 88.3333 2
      vertex 6 88.3333 -3
    endloop
  endfacet
  facet normal 0 0 1
    outer loop
      vertex 6 98.3333 2
      vertex 4.07107 88.3333 2
      vertex 6 88.3333 2
    endloop
  endfacet
  facet normal 0 0 1
    outer loop
      vertex 6 98.3333 2
      vertex 0 92.4044 2
      vertex 4.07107 88.3333 2
    endloop
  endfacet
  facet normal -0 0 1
    outer loop
      vertex -6 98.3333 2
      vertex 0 92.4044 2
      vertex 6 98.3333 2
    endloop
  endfacet
  facet normal 0 0 1
    outer loop
      vertex -6 98.3333 2
      vertex -4.07107 88.3333 2
      vertex 0 92.4044 2
    endloop
  endfacet
  facet normal 0 0 1
    outer loop
      vertex -4.07107 88.3333 2
      vertex -6 98.3333 2
      vertex -6 88.3333 2
    endloop
  endfacet
  facet normal 0 -0 1
    outer loop
      vertex -4 88.3333 0
      vertex -4 88.4044 0
      vertex -4.07107 88.3333 0
    endloop
  endfacet
  facet normal 0 0 1
    outer loop
      vertex 4.07107 88.3333 0
      vertex 4 88.4044 0
      vertex 4 88.3333 0
    endloop
  endfacet
  facet normal 0 0 -1
    outer loop
      vertex 0 92.4044 0
      vertex 4 96.3333 0
      vertex 4 88.4044 0
    endloop
  endfacet
  facet normal 0 0 -1
    outer loop
      vertex 0 92.4044 0
      vertex -4 96.3333 0
      vertex 4 96.3333 0
    endloop
  endfacet
  facet normal 0 0 -1
    outer loop
      vertex -4 96.3333 0
      vertex 0 92.4044 0
      vertex -4 88.4044 0
    endloop
  endfacet
  facet normal -1 0 0
    outer loop
      vertex -6 88.3333 -3
      vertex -6 98.3333 2
      vertex -6 98.3333 -3
    endloop
  endfacet
  facet normal -1 -0 0
    outer loop
      vertex -6 98.3333 2
      vertex -6 88.3333 -3
      vertex -6 88.3333 2
    endloop
  endfacet
  facet normal 0 1 0
    outer loop
      vertex -28.6667 98.3333 -5
      vertex -6 98.3333 -3
      vertex 28.6667 98.3333 -5
    endloop
  endfacet
  facet normal 0 1 0
    outer loop
      vertex -6 98.3333 -3
      vertex -28.6667 98.3333 -5
      vertex -28.6667 98.3333 -4
    endloop
  endfacet
  facet normal 0 1 -0
    outer loop
      vertex 29.6667 98.3333 -4
      vertex 6 98.3333 -3
      vertex 82.5 98.3333 -3
    endloop
  endfacet
  facet normal 0 1 -0
    outer loop
      vertex 28.6667 98.3333 -4
      vertex 6 98.3333 -3
      vertex 29.6667 98.3333 -4
    endloop
  endfacet
  facet normal 0 1 -0
    outer loop
      vertex 28.6667 98.3333 -5
      vertex 6 98.3333 -3
      vertex 28.6667 98.3333 -4
    endloop
  endfacet
  facet normal 0 1 -0
    outer loop
      vertex 82.5 98.3333 -5
      vertex 29.6667 98.3333 -4
      vertex 82.5 98.3333 -3
    endloop
  endfacet
  facet normal 0 1 0
    outer loop
      vertex 29.6667 98.3333 -4
      vertex 82.5 98.3333 -5
      vertex 29.6667 98.3333 -5
    endloop
  endfacet
  facet normal 0 1 -0
    outer loop
      vertex 6 98.3333 -3
      vertex -6 98.3333 2
      vertex 6 98.3333 2
    endloop
  endfacet
  facet normal 0 1 0
    outer loop
      vertex -6 98.3333 2
      vertex 6 98.3333 -3
      vertex -6 98.3333 -3
    endloop
  endfacet
  facet normal 0 1 0
    outer loop
      vertex 6 98.3333 -3
      vertex 28.6667 98.3333 -5
      vertex -6 98.3333 -3
    endloop
  endfacet
  facet normal 0 1 0
    outer loop
      vertex -29.6667 98.3333 -4
      vertex -6 98.3333 -3
      vertex -28.6667 98.3333 -4
    endloop
  endfacet
  facet normal 0 1 0
    outer loop
      vertex -6 98.3333 -3
      vertex -29.6667 98.3333 -4
      vertex -82.5 98.3333 -3
    endloop
  endfacet
  facet normal 0 1 0
    outer loop
      vertex -82.5 98.3333 -5
      vertex -29.6667 98.3333 -4
      vertex -29.6667 98.3333 -5
    endloop
  endfacet
  facet normal 0 1 0
    outer loop
      vertex -29.6667 98.3333 -4
      vertex -82.5 98.3333 -5
      vertex -82.5 98.3333 -3
    endloop
  endfacet
  facet normal 0 -1 0
    outer loop
      vertex 4 88.3333 0
      vertex 4 88.3333 -3
      vertex 4.07107 88.3333 0
    endloop
  endfacet
  facet normal 0 -1 0
    outer loop
      vertex 4.07107 88.3333 0
      vertex 6 88.3333 2
      vertex 4.07107 88.3333 2
    endloop
  endfacet
  facet normal 0 -1 0
    outer loop
      vertex 6 88.3333 -3
      vertex 4.07107 88.3333 0
      vertex 4 88.3333 -3
    endloop
  endfacet
  facet normal 0 -1 0
    outer loop
      vertex 4.07107 88.3333 0
      vertex 6 88.3333 -3
      vertex 6 88.3333 2
    endloop
  endfacet
  facet normal 0 -1 0
    outer loop
      vertex 28.6667 88.3333 -5
      vertex 4 88.3333 -3
      vertex -28.6667 88.3333 -5
    endloop
  endfacet
  facet normal 0 -1 0
    outer loop
      vertex 4 88.3333 -3
      vertex 28.6667 88.3333 -5
      vertex 28.6667 88.3333 -4
    endloop
  endfacet
  facet normal 0 -1 0
    outer loop
      vertex -29.6667 88.3333 -4
      vertex -6 88.3333 -3
      vertex -82.5 88.3333 -3
    endloop
  endfacet
  facet normal 0 -1 0
    outer loop
      vertex -28.6667 88.3333 -4
      vertex -6 88.3333 -3
      vertex -29.6667 88.3333 -4
    endloop
  endfacet
  facet normal 0 -1 0
    outer loop
      vertex -28.6667 88.3333 -5
      vertex -6 88.3333 -3
      vertex -28.6667 88.3333 -4
    endloop
  endfacet
  facet normal 0 -1 -0
    outer loop
      vertex -6 88.3333 -3
      vertex -28.6667 88.3333 -5
      vertex -4 88.3333 -3
    endloop
  endfacet
  facet normal 0 -1 -0
    outer loop
      vertex -4 88.3333 -3
      vertex -28.6667 88.3333 -5
      vertex 4 88.3333 -3
    endloop
  endfacet
  facet normal 0 -1 0
    outer loop
      vertex -82.5 88.3333 -5
      vertex -29.6667 88.3333 -4
      vertex -82.5 88.3333 -3
    endloop
  endfacet
  facet normal 0 -1 -0
    outer loop
      vertex -29.6667 88.3333 -4
      vertex -82.5 88.3333 -5
      vertex -29.6667 88.3333 -5
    endloop
  endfacet
  facet normal 0 -1 0
    outer loop
      vertex -6 88.3333 2
      vertex -4.07107 88.3333 0
      vertex -4.07107 88.3333 2
    endloop
  endfacet
  facet normal 0 -1 0
    outer loop
      vertex -6 88.3333 -3
      vertex -4.07107 88.3333 0
      vertex -6 88.3333 2
    endloop
  endfacet
  facet normal 0 -1 0
    outer loop
      vertex -4 88.3333 -3
      vertex -4.07107 88.3333 0
      vertex -6 88.3333 -3
    endloop
  endfacet
  facet normal 0 -1 0
    outer loop
      vertex -4.07107 88.3333 0
      vertex -4 88.3333 -3
      vertex -4 88.3333 0
    endloop
  endfacet
  facet normal 0 -1 0
    outer loop
      vertex 4 88.3333 -3
      vertex 28.6667 88.3333 -4
      vertex 6 88.3333 -3
    endloop
  endfacet
  facet normal 0 -1 0
    outer loop
      vertex 29.6667 88.3333 -4
      vertex 6 88.3333 -3
      vertex 28.6667 88.3333 -4
    endloop
  endfacet
  facet normal 0 -1 0
    outer loop
      vertex 6 88.3333 -3
      vertex 29.6667 88.3333 -4
      vertex 82.5 88.3333 -3
    endloop
  endfacet
  facet normal 0 -1 0
    outer loop
      vertex 82.5 88.3333 -5
      vertex 29.6667 88.3333 -4
      vertex 29.6667 88.3333 -5
    endloop
  endfacet
  facet normal 0 -1 0
    outer loop
      vertex 29.6667 88.3333 -4
      vertex 82.5 88.3333 -5
      vertex 82.5 88.3333 -3
    endloop
  endfacet
  facet normal 0.707256 -0.706958 0
    outer loop
      vertex -4 88.4044 0
      vertex -4.07107 88.3333 2
      vertex -4.07107 88.3333 0
    endloop
  endfacet
  facet normal 0.707109 -0.707104 -1.04214e-05
    outer loop
      vertex -4.07107 88.3333 2
      vertex -4 88.4044 0
      vertex 0 92.4044 2
    endloop
  endfacet
  facet normal 0.707107 -0.707107 0
    outer loop
      vertex 0 92.4044 2
      vertex -4 88.4044 0
      vertex 0 92.4044 0
    endloop
  endfacet
  facet normal -0.707107 -0.707107 0
    outer loop
      vertex 4 88.4044 0
      vertex 0 92.4044 2
      vertex 0 92.4044 0
    endloop
  endfacet
  facet normal -0.707109 -0.707104 -1.04214e-05
    outer loop
      vertex 0 92.4044 2
      vertex 4 88.4044 0
      vertex 4.07107 88.3333 2
    endloop
  endfacet
  facet normal -0.707256 -0.706958 -0
    outer loop
      vertex 4.07107 88.3333 2
      vertex 4 88.4044 0
      vertex 4.07107 88.3333 0
    endloop
  endfacet
  facet normal -0 0 1
    outer loop
      vertex -4 96.3333 -3
      vertex 4 88.3333 -3
      vertex 4 96.3333 -3
    endloop
  endfacet
  facet normal 0 0 1
    outer loop
      vertex 4 88.3333 -3
      vertex -4 96.3333 -3
      vertex -4 88.3333 -3
    endloop
  endfacet
  facet normal -1 0 0
    outer loop
      vertex 4 96.3333 -3
      vertex 4 88.4044 0
      vertex 4 96.3333 0
    endloop
  endfacet
  facet normal -1 0 0
    outer loop
      vertex 4 88.3333 -3
      vertex 4 88.4044 0
      vertex 4 96.3333 -3
    endloop
  endfacet
  facet normal -1 -0 0
    outer loop
      vertex 4 88.4044 0
      vertex 4 88.3333 -3
      vertex 4 88.3333 0
    endloop
  endfacet
  facet normal 1 -0 0
    outer loop
      vertex -4 88.4044 0
      vertex -4 96.3333 -3
      vertex -4 96.3333 0
    endloop
  endfacet
  facet normal 1 0 0
    outer loop
      vertex -4 88.3333 -3
      vertex -4 88.4044 0
      vertex -4 88.3333 0
    endloop
  endfacet
  facet normal 1 0 0
    outer loop
      vertex -4 88.4044 0
      vertex -4 88.3333 -3
      vertex -4 96.3333 -3
    endloop
  endfacet
  facet normal 0 -1 0
    outer loop
      vertex -4 96.3333 -3
      vertex 4 96.3333 0
      vertex -4 96.3333 0
    endloop
  endfacet
  facet normal 0 -1 -0
    outer loop
      vertex 4 96.3333 0
      vertex -4 96.3333 -3
      vertex 4 96.3333 -3
    endloop
  endfacet
  facet normal -0 0 1
    outer loop
      vertex -82.5 52.1667 -4
      vertex -29.6667 51.1667 -4
      vertex -29.6667 52.1667 -4
    endloop
  endfacet
  facet normal 0 0 1
    outer loop
      vertex -29.6667 51.1667 -4
      vertex -82.5 52.1667 -4
      vertex -82.5 51.1667 -4
    endloop
  endfacet
  facet normal 0 0 1
    outer loop
      vertex -29.6667 52.1667 -4
      vertex -28.6667 52.1667 -4
      vertex -28.6667 88.3333 -4
    endloop
  endfacet
  facet normal 0 0 1
    outer loop
      vertex -28.6667 52.1667 -4
      vertex -29.6667 52.1667 -4
      vertex -28.6667 51.1667 -4
    endloop
  endfacet
  facet normal 0 0 1
    outer loop
      vertex -29.6667 52.1667 -4
      vertex -28.6667 88.3333 -4
      vertex -29.6667 88.3333 -4
    endloop
  endfacet
  facet normal 0 0 1
    outer loop
      vertex -29.6667 51.1667 -4
      vertex -28.6667 51.1667 -4
      vertex -29.6667 52.1667 -4
    endloop
  endfacet
  facet normal 0 0 1
    outer loop
      vertex -28.6667 51.1667 -4
      vertex -29.6667 51.1667 -4
      vertex -28.6667 15 -4
    endloop
  endfacet
  facet normal 0 0 1
    outer loop
      vertex -28.6667 15 -4
      vertex -29.6667 51.1667 -4
      vertex -29.6667 15 -4
    endloop
  endfacet
  facet normal -0 0 1
    outer loop
      vertex -28.6667 52.1667 -4
      vertex 28.6667 51.1667 -4
      vertex 28.6667 52.1667 -4
    endloop
  endfacet
  facet normal 0 0 1
    outer loop
      vertex 28.6667 51.1667 -4
      vertex -28.6667 52.1667 -4
      vertex -28.6667 51.1667 -4
    endloop
  endfacet
  facet normal 0 0 1
    outer loop
      vertex 28.6667 52.1667 -4
      vertex 29.6667 52.1667 -4
      vertex 29.6667 88.3333 -4
    endloop
  endfacet
  facet normal 0 0 1
    outer loop
      vertex 29.6667 52.1667 -4
      vertex 28.6667 52.1667 -4
      vertex 29.6667 51.1667 -4
    endloop
  endfacet
  facet normal 0 0 1
    outer loop
      vertex 28.6667 52.1667 -4
      vertex 29.6667 88.3333 -4
      vertex 28.6667 88.3333 -4
    endloop
  endfacet
  facet normal 0 0 1
    outer loop
      vertex 28.6667 51.1667 -4
      vertex 29.6667 51.1667 -4
      vertex 28.6667 52.1667 -4
    endloop
  endfacet
  facet normal 0 0 1
    outer loop
      vertex 29.6667 51.1667 -4
      vertex 28.6667 51.1667 -4
      vertex 29.6667 15 -4
    endloop
  endfacet
  facet normal 0 0 1
    outer loop
      vertex 29.6667 15 -4
      vertex 28.6667 51.1667 -4
      vertex 28.6667 15 -4
    endloop
  endfacet
  facet normal -0 0 1
    outer loop
      vertex 29.6667 52.1667 -4
      vertex 82.5 51.1667 -4
      vertex 82.5 52.1667 -4
    endloop
  endfacet
  facet normal 0 0 1
    outer loop
      vertex 82.5 51.1667 -4
      vertex 29.6667 52.1667 -4
      vertex 29.6667 51.1667 -4
    endloop
  endfacet
  facet normal -0 0 1
    outer loop
      vertex -29.6667 130 -4
      vertex -28.6667 98.3333 -4
      vertex -28.6667 130 -4
    endloop
  endfacet
  facet normal 0 0 1
    outer loop
      vertex -28.6667 98.3333 -4
      vertex -29.6667 130 -4
      vertex -29.6667 98.3333 -4
    endloop
  endfacet
  facet normal -0 0 1
    outer loop
      vertex 28.6667 130 -4
      vertex 29.6667 98.3333 -4
      vertex 29.6667 130 -4
    endloop
  endfacet
  facet normal 0 0 1
    outer loop
      vertex 29.6667 98.3333 -4
      vertex 28.6667 130 -4
      vertex 28.6667 98.3333 -4
    endloop
  endfacet
  facet normal 0 1 -0
    outer loop
      vertex -29.6667 52.1667 -5
      vertex -82.5 52.1667 -4
      vertex -29.6667 52.1667 -4
    endloop
  endfacet
  facet normal 0 1 0
    outer loop
      vertex -82.5 52.1667 -4
      vertex -29.6667 52.1667 -5
      vertex -82.5 52.1667 -5
    endloop
  endfacet
  facet normal 0 1 -0
    outer loop
      vertex 28.6667 52.1667 -5
      vertex -28.6667 52.1667 -4
      vertex 28.6667 52.1667 -4
    endloop
  endfacet
  facet normal 0 1 0
    outer loop
      vertex -28.6667 52.1667 -4
      vertex 28.6667 52.1667 -5
      vertex -28.6667 52.1667 -5
    endloop
  endfacet
  facet normal 0 1 -0
    outer loop
      vertex 82.5 52.1667 -5
      vertex 29.6667 52.1667 -4
      vertex 82.5 52.1667 -4
    endloop
  endfacet
  facet normal 0 1 0
    outer loop
      vertex 29.6667 52.1667 -4
      vertex 82.5 52.1667 -5
      vertex 29.6667 52.1667 -5
    endloop
  endfacet
  facet normal 0 -1 0
    outer loop
      vertex -82.5 51.1667 -5
      vertex -29.6667 51.1667 -4
      vertex -82.5 51.1667 -4
    endloop
  endfacet
  facet normal 0 -1 -0
    outer loop
      vertex -29.6667 51.1667 -4
      vertex -82.5 51.1667 -5
      vertex -29.6667 51.1667 -5
    endloop
  endfacet
  facet normal 0 -1 0
    outer loop
      vertex -28.6667 51.1667 -5
      vertex 28.6667 51.1667 -4
      vertex -28.6667 51.1667 -4
    endloop
  endfacet
  facet normal 0 -1 -0
    outer loop
      vertex 28.6667 51.1667 -4
      vertex -28.6667 51.1667 -5
      vertex 28.6667 51.1667 -5
    endloop
  endfacet
  facet normal 0 -1 0
    outer loop
      vertex 29.6667 51.1667 -5
      vertex 82.5 51.1667 -4
      vertex 29.6667 51.1667 -4
    endloop
  endfacet
  facet normal 0 -1 -0
    outer loop
      vertex 82.5 51.1667 -4
      vertex 29.6667 51.1667 -5
      vertex 82.5 51.1667 -5
    endloop
  endfacet
  facet normal 1 -0 0
    outer loop
      vertex -28.6667 52.1667 -4
      vertex -28.6667 88.3333 -5
      vertex -28.6667 88.3333 -4
    endloop
  endfacet
  facet normal 1 0 0
    outer loop
      vertex -28.6667 88.3333 -5
      vertex -28.6667 52.1667 -4
      vertex -28.6667 52.1667 -5
    endloop
  endfacet
  facet normal 1 -0 0
    outer loop
      vertex -28.6667 15 -4
      vertex -28.6667 51.1667 -5
      vertex -28.6667 51.1667 -4
    endloop
  endfacet
  facet normal 1 0 0
    outer loop
      vertex -28.6667 51.1667 -5
      vertex -28.6667 15 -4
      vertex -28.6667 15 -5
    endloop
  endfacet
  facet normal 1 -0 0
    outer loop
      vertex -28.6667 98.3333 -4
      vertex -28.6667 130 -5
      vertex -28.6667 130 -4
    endloop
  endfacet
  facet normal 1 0 0
    outer loop
      vertex -28.6667 130 -5
      vertex -28.6667 98.3333 -4
      vertex -28.6667 98.3333 -5
    endloop
  endfacet
  facet normal -1 0 0
    outer loop
      vertex -29.6667 52.1667 -5
      vertex -29.6667 88.3333 -4
      vertex -29.6667 88.3333 -5
    endloop
  endfacet
  facet normal -1 -0 0
    outer loop
      vertex -29.6667 88.3333 -4
      vertex -29.6667 52.1667 -5
      vertex -29.6667 52.1667 -4
    endloop
  endfacet
  facet normal -1 0 0
    outer loop
      vertex -29.6667 15 -5
      vertex -29.6667 51.1667 -4
      vertex -29.6667 51.1667 -5
    endloop
  endfacet
  facet normal -1 -0 0
    outer loop
      vertex -29.6667 51.1667 -4
      vertex -29.6667 15 -5
      vertex -29.6667 15 -4
    endloop
  endfacet
  facet normal -1 0 0
    outer loop
      vertex -29.6667 98.3333 -5
      vertex -29.6667 130 -4
      vertex -29.6667 130 -5
    endloop
  endfacet
  facet normal -1 -0 0
    outer loop
      vertex -29.6667 130 -4
      vertex -29.6667 98.3333 -5
      vertex -29.6667 98.3333 -4
    endloop
  endfacet
  facet normal 1 -0 0
    outer loop
      vertex 29.6667 15 -4
      vertex 29.6667 51.1667 -5
      vertex 29.6667 51.1667 -4
    endloop
  endfacet
  facet normal 1 0 0
    outer loop
      vertex 29.6667 51.1667 -5
      vertex 29.6667 15 -4
      vertex 29.6667 15 -5
    endloop
  endfacet
  facet normal 1 -0 0
    outer loop
      vertex 29.6667 52.1667 -4
      vertex 29.6667 88.3333 -5
      vertex 29.6667 88.3333 -4
    endloop
  endfacet
  facet normal 1 0 0
    outer loop
      vertex 29.6667 88.3333 -5
      vertex 29.6667 52.1667 -4
      vertex 29.6667 52.1667 -5
    endloop
  endfacet
  facet normal 1 -0 0
    outer loop
      vertex 29.6667 98.3333 -4
      vertex 29.6667 130 -5
      vertex 29.6667 130 -4
    endloop
  endfacet
  facet normal 1 0 0
    outer loop
      vertex 29.6667 130 -5
      vertex 29.6667 98.3333 -4
      vertex 29.6667 98.3333 -5
    endloop
  endfacet
  facet normal -1 0 0
    outer loop
      vertex 28.6667 15 -5
      vertex 28.6667 51.1667 -4
      vertex 28.6667 51.1667 -5
    endloop
  endfacet
  facet normal -1 -0 0
    outer loop
      vertex 28.6667 51.1667 -4
      vertex 28.6667 15 -5
      vertex 28.6667 15 -4
    endloop
  endfacet
  facet normal -1 0 0
    outer loop
      vertex 28.6667 52.1667 -5
      vertex 28.6667 88.3333 -4
      vertex 28.6667 88.3333 -5
    endloop
  endfacet
  facet normal -1 -0 0
    outer loop
      vertex 28.6667 88.3333 -4
      vertex 28.6667 52.1667 -5
      vertex 28.6667 52.1667 -4
    endloop
  endfacet
  facet normal -1 0 0
    outer loop
      vertex 28.6667 98.3333 -5
      vertex 28.6667 130 -4
      vertex 28.6667 130 -5
    endloop
  endfacet
  facet normal -1 -0 0
    outer loop
      vertex 28.6667 130 -4
      vertex 28.6667 98.3333 -5
      vertex 28.6667 98.3333 -4
    endloop
  endfacet
endsolid OpenSCAD_Model
