solid OpenSCAD_Model
  facet normal -1 0 0
    outer loop
      vertex 7.5 13.9904 -2.5
      vertex 7.5 50 7.5
      vertex 7.5 50 -2.5
    endloop
  endfacet
  facet normal -1 -0 0
    outer loop
      vertex 7.5 50 7.5
      vertex 7.5 13.9904 -2.5
      vertex 7.5 13.9904 7.5
    endloop
  endfacet
  facet normal -1 0 0
    outer loop
      vertex 7.5 -50 -2.5
      vertex 7.5 3.75278 7.5
      vertex 7.5 3.75278 -2.5
    endloop
  endfacet
  facet normal -1 -0 0
    outer loop
      vertex 7.5 3.75278 7.5
      vertex 7.5 -50 -2.5
      vertex 7.5 -50 7.5
    endloop
  endfacet
  facet normal -1 0 0
    outer loop
      vertex 7.5 4.90748 -2.5
      vertex 7.5 11.9904 7.5
      vertex 7.5 11.9904 -2.5
    endloop
  endfacet
  facet normal -1 -0 0
    outer loop
      vertex 7.5 11.9904 7.5
      vertex 7.5 4.90748 -2.5
      vertex 7.5 4.90748 7.5
    endloop
  endfacet
  facet normal -0 0 1
    outer loop
      vertex -12.5 50 7.5
      vertex -7.5 -3.75278 7.5
      vertex -7.5 50 7.5
    endloop
  endfacet
  facet normal 0 0 1
    outer loop
      vertex -7.5 -3.75278 7.5
      vertex -12.5 50 7.5
      vertex -12.5 -6.63953 7.5
    endloop
  endfacet
  facet normal 0 0 1
    outer loop
      vertex 12.5 50 7.5
      vertex 12.067 21.9006 7.5
      vertex 12.5 21.6506 7.5
    endloop
  endfacet
  facet normal -0 0 1
    outer loop
      vertex 7.5 50 7.5
      vertex 12.067 21.9006 7.5
      vertex 12.5 50 7.5
    endloop
  endfacet
  facet normal 0 0 1
    outer loop
      vertex 12.067 21.9006 7.5
      vertex 7.5 50 7.5
      vertex 7.5 13.9904 7.5
    endloop
  endfacet
  facet normal -0 0 1
    outer loop
      vertex -12.067 -21.9006 7.5
      vertex -7.5 -50 7.5
      vertex -7.5 -13.9904 7.5
    endloop
  endfacet
  facet normal 0 0 1
    outer loop
      vertex -12.5 -50 7.5
      vertex -12.067 -21.9006 7.5
      vertex -12.5 -21.6506 7.5
    endloop
  endfacet
  facet normal 0 0 1
    outer loop
      vertex -12.067 -21.9006 7.5
      vertex -12.5 -50 7.5
      vertex -7.5 -50 7.5
    endloop
  endfacet
  facet normal -0 0 1
    outer loop
      vertex 7.5 3.75278 7.5
      vertex 12.5 -50 7.5
      vertex 12.5 6.63953 7.5
    endloop
  endfacet
  facet normal 0 0 1
    outer loop
      vertex 12.5 -50 7.5
      vertex 7.5 3.75278 7.5
      vertex 7.5 -50 7.5
    endloop
  endfacet
  facet normal -0 0 1
    outer loop
      vertex -12.5 -7.79423 7.5
      vertex -7.5 -11.9904 7.5
      vertex -7.5 -4.90748 7.5
    endloop
  endfacet
  facet normal 0 0 1
    outer loop
      vertex -7.5 -11.9904 7.5
      vertex -12.5 -7.79423 7.5
      vertex -12.5 -20.6506 7.5
    endloop
  endfacet
  facet normal -0 0 1
    outer loop
      vertex 7.5 11.9904 7.5
      vertex 12.5 7.79423 7.5
      vertex 12.5 20.6506 7.5
    endloop
  endfacet
  facet normal 0 0 1
    outer loop
      vertex 12.5 7.79423 7.5
      vertex 7.5 11.9904 7.5
      vertex 7.5 4.90748 7.5
    endloop
  endfacet
  facet normal -0 0 1
    outer loop
      vertex -7.5 50 -2.5
      vertex 7.5 13.9904 -2.5
      vertex 7.5 50 -2.5
    endloop
  endfacet
  facet normal 0 0 1
    outer loop
      vertex -7.5 -3.75278 -2.5
      vertex 7.5 13.9904 -2.5
      vertex -7.5 50 -2.5
    endloop
  endfacet
  facet normal 0 0 1
    outer loop
      vertex 7.5 13.9904 -2.5
      vertex -7.5 -3.75278 -2.5
      vertex -0.366025 0.366025 -2.5
    endloop
  endfacet
  facet normal 0 0 1
    outer loop
      vertex -7.5 -13.9904 -2.5
      vertex 7.5 3.75278 -2.5
      vertex 0.366025 -0.366025 -2.5
    endloop
  endfacet
  facet normal 0 0 1
    outer loop
      vertex 7.5 3.75278 -2.5
      vertex -7.5 -13.9904 -2.5
      vertex 7.5 -50 -2.5
    endloop
  endfacet
  facet normal 0 0 1
    outer loop
      vertex 7.5 -50 -2.5
      vertex -7.5 -13.9904 -2.5
      vertex -7.5 -50 -2.5
    endloop
  endfacet
  facet normal 0 0 1
    outer loop
      vertex -1.36602 -1.36602 -2.5
      vertex -7.5 -4.90748 -2.5
      vertex -7.5 -11.9904 -2.5
    endloop
  endfacet
  facet normal 0 -0 1
    outer loop
      vertex 7.5 4.90748 -2.5
      vertex 7.5 11.9904 -2.5
      vertex 1.36602 1.36602 -2.5
    endloop
  endfacet
  facet normal 1 -0 0
    outer loop
      vertex -7.5 -3.75278 7.5
      vertex -7.5 50 -2.5
      vertex -7.5 50 7.5
    endloop
  endfacet
  facet normal 1 0 0
    outer loop
      vertex -7.5 50 -2.5
      vertex -7.5 -3.75278 7.5
      vertex -7.5 -3.75278 -2.5
    endloop
  endfacet
  facet normal 1 -0 0
    outer loop
      vertex -7.5 -50 7.5
      vertex -7.5 -13.9904 -2.5
      vertex -7.5 -13.9904 7.5
    endloop
  endfacet
  facet normal 1 0 0
    outer loop
      vertex -7.5 -13.9904 -2.5
      vertex -7.5 -50 7.5
      vertex -7.5 -50 -2.5
    endloop
  endfacet
  facet normal 1 -0 0
    outer loop
      vertex -7.5 -11.9904 7.5
      vertex -7.5 -4.90748 -2.5
      vertex -7.5 -4.90748 7.5
    endloop
  endfacet
  facet normal 1 0 0
    outer loop
      vertex -7.5 -4.90748 -2.5
      vertex -7.5 -11.9904 7.5
      vertex -7.5 -11.9904 -2.5
    endloop
  endfacet
  facet normal 0 1 0
    outer loop
      vertex 12.5 50 7.5
      vertex 7.5 50 -2.5
      vertex 7.5 50 7.5
    endloop
  endfacet
  facet normal 0 1 0
    outer loop
      vertex 7.5 50 -2.5
      vertex 12.5 50 -7.5
      vertex -7.5 50 -2.5
    endloop
  endfacet
  facet normal 0 1 -0
    outer loop
      vertex 12.5 50 -7.5
      vertex 7.5 50 -2.5
      vertex 12.5 50 7.5
    endloop
  endfacet
  facet normal 0 1 -0
    outer loop
      vertex -7.5 50 -2.5
      vertex -12.5 50 7.5
      vertex -7.5 50 7.5
    endloop
  endfacet
  facet normal 0 1 0
    outer loop
      vertex -7.5 50 -2.5
      vertex -12.5 50 -7.5
      vertex -12.5 50 7.5
    endloop
  endfacet
  facet normal 0 1 0
    outer loop
      vertex -12.5 50 -7.5
      vertex -7.5 50 -2.5
      vertex 12.5 50 -7.5
    endloop
  endfacet
  facet normal 0 -1 0
    outer loop
      vertex -12.5 -50 7.5
      vertex -7.5 -50 -2.5
      vertex -7.5 -50 7.5
    endloop
  endfacet
  facet normal 0 -1 -0
    outer loop
      vertex -7.5 -50 -2.5
      vertex -12.5 -50 -7.5
      vertex 7.5 -50 -2.5
    endloop
  endfacet
  facet normal 0 -1 0
    outer loop
      vertex -12.5 -50 -7.5
      vertex -7.5 -50 -2.5
      vertex -12.5 -50 7.5
    endloop
  endfacet
  facet normal 0 -1 0
    outer loop
      vertex 7.5 -50 -2.5
      vertex 12.5 -50 7.5
      vertex 7.5 -50 7.5
    endloop
  endfacet
  facet normal 0 -1 0
    outer loop
      vertex 7.5 -50 -2.5
      vertex 12.5 -50 -7.5
      vertex 12.5 -50 7.5
    endloop
  endfacet
  facet normal 0 -1 0
    outer loop
      vertex 12.5 -50 -7.5
      vertex 7.5 -50 -2.5
      vertex -12.5 -50 -7.5
    endloop
  endfacet
  facet normal -0.500011 -0.866019 0
    outer loop
      vertex 12.067 21.9006 -3
      vertex 12.5 21.6506 7.5
      vertex 12.067 21.9006 7.5
    endloop
  endfacet
  facet normal -0.500011 -0.866019 -0
    outer loop
      vertex 12.5 21.6506 7.5
      vertex 12.067 21.9006 -3
      vertex 12.5 21.6506 -3
    endloop
  endfacet
  facet normal 0.500011 0.866019 -0
    outer loop
      vertex -12.067 -21.9006 -3
      vertex -12.5 -21.6506 7.5
      vertex -12.067 -21.9006 7.5
    endloop
  endfacet
  facet normal 0.500011 0.866019 0
    outer loop
      vertex -12.5 -21.6506 7.5
      vertex -12.067 -21.9006 -3
      vertex -12.5 -21.6506 -3
    endloop
  endfacet
  facet normal 0.866023 -0.500004 0
    outer loop
      vertex 7.5 13.9904 -2.5
      vertex 12.067 21.9006 7.5
      vertex 7.5 13.9904 7.5
    endloop
  endfacet
  facet normal 0.866023 -0.500004 0
    outer loop
      vertex 12.067 21.9006 7.5
      vertex 7.5 13.9904 -2.5
      vertex 12.067 21.9006 -3
    endloop
  endfacet
  facet normal 0.866026 -0.499999 0
    outer loop
      vertex -0.366025 0.366025 -3
      vertex 7.5 13.9904 -2.5
      vertex -0.366025 0.366025 -2.5
    endloop
  endfacet
  facet normal 0.866025 -0.500001 5.54709e-05
    outer loop
      vertex 7.5 13.9904 -2.5
      vertex -0.366025 0.366025 -3
      vertex 12.067 21.9006 -3
    endloop
  endfacet
  facet normal 0.866024 -0.500002 0
    outer loop
      vertex -7.5 -11.9904 7.5
      vertex -12.5 -20.6506 7.5
      vertex -7.5 -11.9904 -2.5
    endloop
  endfacet
  facet normal 0.866026 -0.499999 0
    outer loop
      vertex -7.5 -11.9904 -2.5
      vertex -1.36602 -1.36602 -3
      vertex -1.36602 -1.36602 -2.5
    endloop
  endfacet
  facet normal 0.866025 -0.500001 -3.65013e-05
    outer loop
      vertex -7.5 -11.9904 -2.5
      vertex -12.5 -20.6506 -3
      vertex -1.36602 -1.36602 -3
    endloop
  endfacet
  facet normal 0.866024 -0.500002 0
    outer loop
      vertex -12.5 -20.6506 -3
      vertex -7.5 -11.9904 -2.5
      vertex -12.5 -20.6506 7.5
    endloop
  endfacet
  facet normal 0 0 1
    outer loop
      vertex -12.5 -6.63953 -3
      vertex -1.36602 -1.36602 -3
      vertex -0.366025 0.366025 -3
    endloop
  endfacet
  facet normal 0 0 1
    outer loop
      vertex -1.36602 -1.36602 -3
      vertex -12.5 -6.63953 -3
      vertex -12.5 -7.79423 -3
    endloop
  endfacet
  facet normal 0 0 1
    outer loop
      vertex 12.067 21.9006 -3
      vertex 12.5 20.6506 -3
      vertex 12.5 21.6506 -3
    endloop
  endfacet
  facet normal 0 0 1
    outer loop
      vertex 12.067 21.9006 -3
      vertex 1.36602 1.36602 -3
      vertex 12.5 20.6506 -3
    endloop
  endfacet
  facet normal 0 0 1
    outer loop
      vertex -0.366025 0.366025 -3
      vertex 1.36602 1.36602 -3
      vertex 12.067 21.9006 -3
    endloop
  endfacet
  facet normal 0 0 1
    outer loop
      vertex 1.36602 1.36602 -3
      vertex -0.366025 0.366025 -3
      vertex 0.366025 -0.366025 -3
    endloop
  endfacet
  facet normal 0 0 1
    outer loop
      vertex -1.36602 -1.36602 -3
      vertex 0.366025 -0.366025 -3
      vertex -0.366025 0.366025 -3
    endloop
  endfacet
  facet normal -0 0 1
    outer loop
      vertex -1.36602 -1.36602 -3
      vertex -12.067 -21.9006 -3
      vertex 0.366025 -0.366025 -3
    endloop
  endfacet
  facet normal -0 0 1
    outer loop
      vertex -12.5 -20.6506 -3
      vertex -12.067 -21.9006 -3
      vertex -1.36602 -1.36602 -3
    endloop
  endfacet
  facet normal 0 0 1
    outer loop
      vertex -12.067 -21.9006 -3
      vertex -12.5 -20.6506 -3
      vertex -12.5 -21.6506 -3
    endloop
  endfacet
  facet normal 0 0 1
    outer loop
      vertex 1.36602 1.36602 -3
      vertex 12.5 6.63953 -3
      vertex 12.5 7.79423 -3
    endloop
  endfacet
  facet normal 0 0 1
    outer loop
      vertex 12.5 6.63953 -3
      vertex 1.36602 1.36602 -3
      vertex 0.366025 -0.366025 -3
    endloop
  endfacet
  facet normal -0.866026 0.499999 0
    outer loop
      vertex 0.366025 -0.366025 -3
      vertex -7.5 -13.9904 -2.5
      vertex 0.366025 -0.366025 -2.5
    endloop
  endfacet
  facet normal -0.866025 0.500001 5.54709e-05
    outer loop
      vertex -12.067 -21.9006 -3
      vertex -7.5 -13.9904 -2.5
      vertex 0.366025 -0.366025 -3
    endloop
  endfacet
  facet normal -0.866023 0.500004 0
    outer loop
      vertex -12.067 -21.9006 7.5
      vertex -7.5 -13.9904 -2.5
      vertex -12.067 -21.9006 -3
    endloop
  endfacet
  facet normal -0.866023 0.500004 0
    outer loop
      vertex -7.5 -13.9904 -2.5
      vertex -12.067 -21.9006 7.5
      vertex -7.5 -13.9904 7.5
    endloop
  endfacet
  facet normal -0.866024 0.500002 0
    outer loop
      vertex 12.5 20.6506 -3
      vertex 7.5 11.9904 -2.5
      vertex 12.5 20.6506 7.5
    endloop
  endfacet
  facet normal -0.866025 0.500001 -3.65013e-05
    outer loop
      vertex 1.36602 1.36602 -3
      vertex 7.5 11.9904 -2.5
      vertex 12.5 20.6506 -3
    endloop
  endfacet
  facet normal -0.866026 0.499999 0
    outer loop
      vertex 7.5 11.9904 -2.5
      vertex 1.36602 1.36602 -3
      vertex 1.36602 1.36602 -2.5
    endloop
  endfacet
  facet normal -0.866024 0.500002 0
    outer loop
      vertex 12.5 20.6506 7.5
      vertex 7.5 11.9904 -2.5
      vertex 7.5 11.9904 7.5
    endloop
  endfacet
  facet normal 0.5 -0.866026 0
    outer loop
      vertex -12.5 -6.63953 7.5
      vertex -7.5 -3.75278 -2.5
      vertex -7.5 -3.75278 7.5
    endloop
  endfacet
  facet normal 0.5 -0.866026 0
    outer loop
      vertex -12.5 -6.63953 -3
      vertex -7.5 -3.75278 -2.5
      vertex -12.5 -6.63953 7.5
    endloop
  endfacet
  facet normal 0.5 -0.866025 -3.23583e-06
    outer loop
      vertex -0.366025 0.366025 -3
      vertex -7.5 -3.75278 -2.5
      vertex -12.5 -6.63953 -3
    endloop
  endfacet
  facet normal 0.5 -0.866025 0
    outer loop
      vertex -7.5 -3.75278 -2.5
      vertex -0.366025 0.366025 -3
      vertex -0.366025 0.366025 -2.5
    endloop
  endfacet
  facet normal 0.500001 -0.866025 0
    outer loop
      vertex 1.36602 1.36602 -2.5
      vertex 1.36602 1.36602 -3
      vertex 7.5 4.90748 -2.5
    endloop
  endfacet
  facet normal 0.5 -0.866026 0
    outer loop
      vertex 7.5 4.90748 -2.5
      vertex 12.5 7.79423 7.5
      vertex 7.5 4.90748 7.5
    endloop
  endfacet
  facet normal 0.5 -0.866026 0
    outer loop
      vertex 7.5 4.90748 -2.5
      vertex 12.5 7.79423 -3
      vertex 12.5 7.79423 7.5
    endloop
  endfacet
  facet normal 0.5 -0.866025 5.17018e-06
    outer loop
      vertex 12.5 7.79423 -3
      vertex 7.5 4.90748 -2.5
      vertex 1.36602 1.36602 -3
    endloop
  endfacet
  facet normal -0.500001 0.866025 0
    outer loop
      vertex -1.36602 -1.36602 -2.5
      vertex -1.36602 -1.36602 -3
      vertex -7.5 -4.90748 -2.5
    endloop
  endfacet
  facet normal -0.5 0.866026 0
    outer loop
      vertex -7.5 -4.90748 -2.5
      vertex -12.5 -7.79423 7.5
      vertex -7.5 -4.90748 7.5
    endloop
  endfacet
  facet normal -0.5 0.866026 0
    outer loop
      vertex -7.5 -4.90748 -2.5
      vertex -12.5 -7.79423 -3
      vertex -12.5 -7.79423 7.5
    endloop
  endfacet
  facet normal -0.5 0.866025 5.17018e-06
    outer loop
      vertex -12.5 -7.79423 -3
      vertex -7.5 -4.90748 -2.5
      vertex -1.36602 -1.36602 -3
    endloop
  endfacet
  facet normal -0.5 0.866026 0
    outer loop
      vertex 12.5 6.63953 7.5
      vertex 7.5 3.75278 -2.5
      vertex 7.5 3.75278 7.5
    endloop
  endfacet
  facet normal -0.5 0.866026 0
    outer loop
      vertex 12.5 6.63953 -3
      vertex 7.5 3.75278 -2.5
      vertex 12.5 6.63953 7.5
    endloop
  endfacet
  facet normal -0.5 0.866025 -3.23583e-06
    outer loop
      vertex 0.366025 -0.366025 -3
      vertex 7.5 3.75278 -2.5
      vertex 12.5 6.63953 -3
    endloop
  endfacet
  facet normal -0.5 0.866025 0
    outer loop
      vertex 7.5 3.75278 -2.5
      vertex 0.366025 -0.366025 -3
      vertex 0.366025 -0.366025 -2.5
    endloop
  endfacet
  facet normal 1 0 0
    outer loop
      vertex 12.5 6.63953 7.5
      vertex 12.5 -50 7.5
      vertex 12.5 6.63953 -3
    endloop
  endfacet
  facet normal 1 0 0
    outer loop
      vertex 12.5 20.6506 7.5
      vertex 12.5 7.79423 7.5
      vertex 12.5 20.6506 -3
    endloop
  endfacet
  facet normal 1 0 0
    outer loop
      vertex 12.5 21.6506 -3
      vertex 12.5 50 7.5
      vertex 12.5 21.6506 7.5
    endloop
  endfacet
  facet normal 1 0 0
    outer loop
      vertex 12.5 50 7.5
      vertex 12.5 21.6506 -3
      vertex 12.5 50 -7.5
    endloop
  endfacet
  facet normal 1 -0 0
    outer loop
      vertex 12.5 20.6506 -3
      vertex 12.5 50 -7.5
      vertex 12.5 21.6506 -3
    endloop
  endfacet
  facet normal 1 0 0
    outer loop
      vertex 12.5 7.79423 -3
      vertex 12.5 20.6506 -3
      vertex 12.5 7.79423 7.5
    endloop
  endfacet
  facet normal 1 -0 0
    outer loop
      vertex 12.5 7.79423 -3
      vertex 12.5 50 -7.5
      vertex 12.5 20.6506 -3
    endloop
  endfacet
  facet normal 1 -0 0
    outer loop
      vertex 12.5 6.63953 -3
      vertex 12.5 50 -7.5
      vertex 12.5 7.79423 -3
    endloop
  endfacet
  facet normal 1 0 0
    outer loop
      vertex 12.5 6.63953 -3
      vertex 12.5 -50 -7.5
      vertex 12.5 50 -7.5
    endloop
  endfacet
  facet normal 1 0 0
    outer loop
      vertex 12.5 -50 -7.5
      vertex 12.5 6.63953 -3
      vertex 12.5 -50 7.5
    endloop
  endfacet
  facet normal 0 0 -1
    outer loop
      vertex -12.5 -50 -7.5
      vertex 12.5 50 -7.5
      vertex 12.5 -50 -7.5
    endloop
  endfacet
  facet normal -0 0 -1
    outer loop
      vertex 12.5 50 -7.5
      vertex -12.5 -50 -7.5
      vertex -12.5 50 -7.5
    endloop
  endfacet
  facet normal -1 0 0
    outer loop
      vertex -12.5 50 -7.5
      vertex -12.5 -6.63953 -3
      vertex -12.5 50 7.5
    endloop
  endfacet
  facet normal -1 0 0
    outer loop
      vertex -12.5 -50 -7.5
      vertex -12.5 -6.63953 -3
      vertex -12.5 50 -7.5
    endloop
  endfacet
  facet normal -1 0 0
    outer loop
      vertex -12.5 -7.79423 -3
      vertex -12.5 -20.6506 -3
      vertex -12.5 -7.79423 7.5
    endloop
  endfacet
  facet normal -1 -0 0
    outer loop
      vertex -12.5 -6.63953 -3
      vertex -12.5 -50 -7.5
      vertex -12.5 -7.79423 -3
    endloop
  endfacet
  facet normal -1 -0 0
    outer loop
      vertex -12.5 -7.79423 -3
      vertex -12.5 -50 -7.5
      vertex -12.5 -20.6506 -3
    endloop
  endfacet
  facet normal -1 -0 0
    outer loop
      vertex -12.5 -20.6506 -3
      vertex -12.5 -50 -7.5
      vertex -12.5 -21.6506 -3
    endloop
  endfacet
  facet normal -1 0 0
    outer loop
      vertex -12.5 -50 7.5
      vertex -12.5 -21.6506 -3
      vertex -12.5 -50 -7.5
    endloop
  endfacet
  facet normal -1 0 0
    outer loop
      vertex -12.5 -21.6506 -3
      vertex -12.5 -50 7.5
      vertex -12.5 -21.6506 7.5
    endloop
  endfacet
  facet normal -1 -0 0
    outer loop
      vertex -12.5 50 7.5
      vertex -12.5 -6.63953 -3
      vertex -12.5 -6.63953 7.5
    endloop
  endfacet
  facet normal -1 -0 0
    outer loop
      vertex -12.5 -7.79423 7.5
      vertex -12.5 -20.6506 -3
      vertex -12.5 -20.6506 7.5
    endloop
  endfacet
endsolid OpenSCAD_Model
