solid OpenSCAD_Model
  facet normal -1 0 0
    outer loop
      vertex 7.5 13.9904 -2.5
      vertex 7.5 50 7.5
      vertex 7.5 50 -2.5
    endloop
  endfacet
  facet normal -1 -0 0
    outer loop
      vertex 7.5 50 7.5
      vertex 7.5 13.9904 -2.5
      vertex 7.5 13.9904 7.5
    endloop
  endfacet
  facet normal -1 0 0
    outer loop
      vertex 7.5 -50 -2.5
      vertex 7.5 3.75278 7.5
      vertex 7.5 3.75278 -2.5
    endloop
  endfacet
  facet normal -1 -0 0
    outer loop
      vertex 7.5 3.75278 7.5
      vertex 7.5 -50 -2.5
      vertex 7.5 -50 7.5
    endloop
  endfacet
  facet normal -1 0 0
    outer loop
      vertex 7.5 4.90748 -2.5
      vertex 7.5 11.9904 7.5
      vertex 7.5 11.9904 -2.5
    endloop
  endfacet
  facet normal -1 -0 0
    outer loop
      vertex 7.5 11.9904 7.5
      vertex 7.5 4.90748 -2.5
      vertex 7.5 4.90748 7.5
    endloop
  endfacet
  facet normal -0 0 1
    outer loop
      vertex -10 50 7.5
      vertex -7.5 -3.75278 7.5
      vertex -7.5 50 7.5
    endloop
  endfacet
  facet normal 0 0 1
    outer loop
      vertex -7.5 -3.75278 7.5
      vertex -10 50 7.5
      vertex -10 -5.19615 7.5
    endloop
  endfacet
  facet normal -0 0 1
    outer loop
      vertex 7.5 50 7.5
      vertex 10 18.3205 7.5
      vertex 10 50 7.5
    endloop
  endfacet
  facet normal 0 0 1
    outer loop
      vertex 10 18.3205 7.5
      vertex 7.5 50 7.5
      vertex 7.5 13.9904 7.5
    endloop
  endfacet
  facet normal -0 0 1
    outer loop
      vertex -10 -18.3205 7.5
      vertex -7.5 -50 7.5
      vertex -7.5 -13.9904 7.5
    endloop
  endfacet
  facet normal 0 0 1
    outer loop
      vertex -7.5 -50 7.5
      vertex -10 -18.3205 7.5
      vertex -10 -50 7.5
    endloop
  endfacet
  facet normal -0 0 1
    outer loop
      vertex 7.5 3.75278 7.5
      vertex 10 -50 7.5
      vertex 10 5.19615 7.5
    endloop
  endfacet
  facet normal 0 0 1
    outer loop
      vertex 10 -50 7.5
      vertex 7.5 3.75278 7.5
      vertex 7.5 -50 7.5
    endloop
  endfacet
  facet normal -0 0 1
    outer loop
      vertex -10 -6.35085 7.5
      vertex -7.5 -11.9904 7.5
      vertex -7.5 -4.90748 7.5
    endloop
  endfacet
  facet normal 0 0 1
    outer loop
      vertex -7.5 -11.9904 7.5
      vertex -10 -6.35085 7.5
      vertex -10 -16.3205 7.5
    endloop
  endfacet
  facet normal -0 0 1
    outer loop
      vertex 7.5 11.9904 7.5
      vertex 10 6.35085 7.5
      vertex 10 16.3205 7.5
    endloop
  endfacet
  facet normal 0 0 1
    outer loop
      vertex 10 6.35085 7.5
      vertex 7.5 11.9904 7.5
      vertex 7.5 4.90748 7.5
    endloop
  endfacet
  facet normal -0 0 1
    outer loop
      vertex -7.5 50 -2.5
      vertex 7.5 13.9904 -2.5
      vertex 7.5 50 -2.5
    endloop
  endfacet
  facet normal 0 0 1
    outer loop
      vertex -7.5 -3.75278 -2.5
      vertex 7.5 13.9904 -2.5
      vertex -7.5 50 -2.5
    endloop
  endfacet
  facet normal 0 0 1
    outer loop
      vertex 7.5 13.9904 -2.5
      vertex -7.5 -3.75278 -2.5
      vertex -0.366025 0.366025 -2.5
    endloop
  endfacet
  facet normal 0 0 1
    outer loop
      vertex -7.5 -13.9904 -2.5
      vertex 7.5 3.75278 -2.5
      vertex 0.366025 -0.366025 -2.5
    endloop
  endfacet
  facet normal 0 0 1
    outer loop
      vertex 7.5 3.75278 -2.5
      vertex -7.5 -13.9904 -2.5
      vertex 7.5 -50 -2.5
    endloop
  endfacet
  facet normal 0 0 1
    outer loop
      vertex 7.5 -50 -2.5
      vertex -7.5 -13.9904 -2.5
      vertex -7.5 -50 -2.5
    endloop
  endfacet
  facet normal 0 0 1
    outer loop
      vertex -1.36602 -1.36602 -2.5
      vertex -7.5 -4.90748 -2.5
      vertex -7.5 -11.9904 -2.5
    endloop
  endfacet
  facet normal 0 -0 1
    outer loop
      vertex 7.5 4.90748 -2.5
      vertex 7.5 11.9904 -2.5
      vertex 1.36602 1.36602 -2.5
    endloop
  endfacet
  facet normal 1 -0 0
    outer loop
      vertex -7.5 -3.75278 7.5
      vertex -7.5 50 -2.5
      vertex -7.5 50 7.5
    endloop
  endfacet
  facet normal 1 0 0
    outer loop
      vertex -7.5 50 -2.5
      vertex -7.5 -3.75278 7.5
      vertex -7.5 -3.75278 -2.5
    endloop
  endfacet
  facet normal 1 -0 0
    outer loop
      vertex -7.5 -50 7.5
      vertex -7.5 -13.9904 -2.5
      vertex -7.5 -13.9904 7.5
    endloop
  endfacet
  facet normal 1 0 0
    outer loop
      vertex -7.5 -13.9904 -2.5
      vertex -7.5 -50 7.5
      vertex -7.5 -50 -2.5
    endloop
  endfacet
  facet normal 1 -0 0
    outer loop
      vertex -7.5 -11.9904 7.5
      vertex -7.5 -4.90748 -2.5
      vertex -7.5 -4.90748 7.5
    endloop
  endfacet
  facet normal 1 0 0
    outer loop
      vertex -7.5 -4.90748 -2.5
      vertex -7.5 -11.9904 7.5
      vertex -7.5 -11.9904 -2.5
    endloop
  endfacet
  facet normal 0 1 0
    outer loop
      vertex 10 50 7.5
      vertex 7.5 50 -2.5
      vertex 7.5 50 7.5
    endloop
  endfacet
  facet normal 0 1 0
    outer loop
      vertex 7.5 50 -2.5
      vertex 10 50 -7.5
      vertex -7.5 50 -2.5
    endloop
  endfacet
  facet normal 0 1 -0
    outer loop
      vertex 10 50 -7.5
      vertex 7.5 50 -2.5
      vertex 10 50 7.5
    endloop
  endfacet
  facet normal 0 1 -0
    outer loop
      vertex -7.5 50 -2.5
      vertex -10 50 7.5
      vertex -7.5 50 7.5
    endloop
  endfacet
  facet normal 0 1 0
    outer loop
      vertex -7.5 50 -2.5
      vertex -10 50 -7.5
      vertex -10 50 7.5
    endloop
  endfacet
  facet normal 0 1 0
    outer loop
      vertex -10 50 -7.5
      vertex -7.5 50 -2.5
      vertex 10 50 -7.5
    endloop
  endfacet
  facet normal 0 -1 0
    outer loop
      vertex -10 -50 7.5
      vertex -7.5 -50 -2.5
      vertex -7.5 -50 7.5
    endloop
  endfacet
  facet normal 0 -1 -0
    outer loop
      vertex -7.5 -50 -2.5
      vertex -10 -50 -7.5
      vertex 7.5 -50 -2.5
    endloop
  endfacet
  facet normal 0 -1 0
    outer loop
      vertex -10 -50 -7.5
      vertex -7.5 -50 -2.5
      vertex -10 -50 7.5
    endloop
  endfacet
  facet normal 0 -1 0
    outer loop
      vertex 7.5 -50 -2.5
      vertex 10 -50 7.5
      vertex 7.5 -50 7.5
    endloop
  endfacet
  facet normal 0 -1 0
    outer loop
      vertex 7.5 -50 -2.5
      vertex 10 -50 -7.5
      vertex 10 -50 7.5
    endloop
  endfacet
  facet normal 0 -1 0
    outer loop
      vertex 10 -50 -7.5
      vertex 7.5 -50 -2.5
      vertex -10 -50 -7.5
    endloop
  endfacet
  facet normal 0.866024 -0.500002 0
    outer loop
      vertex -7.5 -11.9904 7.5
      vertex -10 -16.3205 7.5
      vertex -7.5 -11.9904 -2.5
    endloop
  endfacet
  facet normal 0.866026 -0.499999 0
    outer loop
      vertex -7.5 -11.9904 -2.5
      vertex -1.36602 -1.36602 -3
      vertex -1.36602 -1.36602 -2.5
    endloop
  endfacet
  facet normal 0.866025 -0.5 -2.35352e-05
    outer loop
      vertex -7.5 -11.9904 -2.5
      vertex -10 -16.3205 -3
      vertex -1.36602 -1.36602 -3
    endloop
  endfacet
  facet normal 0.866024 -0.500002 0
    outer loop
      vertex -10 -16.3205 -3
      vertex -7.5 -11.9904 -2.5
      vertex -10 -16.3205 7.5
    endloop
  endfacet
  facet normal 0.866024 -0.500002 0
    outer loop
      vertex 7.5 13.9904 -2.5
      vertex 10 18.3205 7.5
      vertex 7.5 13.9904 7.5
    endloop
  endfacet
  facet normal 0.866024 -0.500002 0
    outer loop
      vertex 10 18.3205 7.5
      vertex 7.5 13.9904 -2.5
      vertex 10 18.3205 -3
    endloop
  endfacet
  facet normal 0.866026 -0.499999 0
    outer loop
      vertex -0.366025 0.366025 -3
      vertex 7.5 13.9904 -2.5
      vertex -0.366025 0.366025 -2.5
    endloop
  endfacet
  facet normal 0.866025 -0.5 2.53373e-05
    outer loop
      vertex 7.5 13.9904 -2.5
      vertex -0.366025 0.366025 -3
      vertex 10 18.3205 -3
    endloop
  endfacet
  facet normal 0 0 1
    outer loop
      vertex -10 -5.19615 -3
      vertex -1.36602 -1.36602 -3
      vertex -0.366025 0.366025 -3
    endloop
  endfacet
  facet normal 0 0 1
    outer loop
      vertex -1.36602 -1.36602 -3
      vertex -10 -5.19615 -3
      vertex -10 -6.35085 -3
    endloop
  endfacet
  facet normal 0 0 1
    outer loop
      vertex 10 18.3205 -3
      vertex 1.36602 1.36602 -3
      vertex 10 16.3205 -3
    endloop
  endfacet
  facet normal 0 0 1
    outer loop
      vertex -0.366025 0.366025 -3
      vertex 1.36602 1.36602 -3
      vertex 10 18.3205 -3
    endloop
  endfacet
  facet normal 0 0 1
    outer loop
      vertex 1.36602 1.36602 -3
      vertex -0.366025 0.366025 -3
      vertex 0.366025 -0.366025 -3
    endloop
  endfacet
  facet normal 0 0 1
    outer loop
      vertex -1.36602 -1.36602 -3
      vertex 0.366025 -0.366025 -3
      vertex -0.366025 0.366025 -3
    endloop
  endfacet
  facet normal 0 0 1
    outer loop
      vertex -10 -16.3205 -3
      vertex 0.366025 -0.366025 -3
      vertex -1.36602 -1.36602 -3
    endloop
  endfacet
  facet normal 0 0 1
    outer loop
      vertex 0.366025 -0.366025 -3
      vertex -10 -16.3205 -3
      vertex -10 -18.3205 -3
    endloop
  endfacet
  facet normal 0 0 1
    outer loop
      vertex 1.36602 1.36602 -3
      vertex 10 5.19615 -3
      vertex 10 6.35085 -3
    endloop
  endfacet
  facet normal 0 0 1
    outer loop
      vertex 10 5.19615 -3
      vertex 1.36602 1.36602 -3
      vertex 0.366025 -0.366025 -3
    endloop
  endfacet
  facet normal -0.866026 0.499999 0
    outer loop
      vertex 0.366025 -0.366025 -3
      vertex -7.5 -13.9904 -2.5
      vertex 0.366025 -0.366025 -2.5
    endloop
  endfacet
  facet normal -0.866025 0.5 2.53373e-05
    outer loop
      vertex -10 -18.3205 -3
      vertex -7.5 -13.9904 -2.5
      vertex 0.366025 -0.366025 -3
    endloop
  endfacet
  facet normal -0.866024 0.500002 0
    outer loop
      vertex -10 -18.3205 7.5
      vertex -7.5 -13.9904 -2.5
      vertex -10 -18.3205 -3
    endloop
  endfacet
  facet normal -0.866024 0.500002 0
    outer loop
      vertex -7.5 -13.9904 -2.5
      vertex -10 -18.3205 7.5
      vertex -7.5 -13.9904 7.5
    endloop
  endfacet
  facet normal -0.866024 0.500002 0
    outer loop
      vertex 10 16.3205 -3
      vertex 7.5 11.9904 -2.5
      vertex 10 16.3205 7.5
    endloop
  endfacet
  facet normal -0.866025 0.5 -2.35352e-05
    outer loop
      vertex 1.36602 1.36602 -3
      vertex 7.5 11.9904 -2.5
      vertex 10 16.3205 -3
    endloop
  endfacet
  facet normal -0.866026 0.499999 0
    outer loop
      vertex 7.5 11.9904 -2.5
      vertex 1.36602 1.36602 -3
      vertex 1.36602 1.36602 -2.5
    endloop
  endfacet
  facet normal -0.866024 0.500002 0
    outer loop
      vertex 10 16.3205 7.5
      vertex 7.5 11.9904 -2.5
      vertex 7.5 11.9904 7.5
    endloop
  endfacet
  facet normal 0.499999 -0.866026 0
    outer loop
      vertex -10 -5.19615 7.5
      vertex -7.5 -3.75278 -2.5
      vertex -7.5 -3.75278 7.5
    endloop
  endfacet
  facet normal 0.499999 -0.866026 0
    outer loop
      vertex -10 -5.19615 -3
      vertex -7.5 -3.75278 -2.5
      vertex -10 -5.19615 7.5
    endloop
  endfacet
  facet normal 0.5 -0.866026 -8.45069e-06
    outer loop
      vertex -0.366025 0.366025 -3
      vertex -7.5 -3.75278 -2.5
      vertex -10 -5.19615 -3
    endloop
  endfacet
  facet normal 0.5 -0.866025 0
    outer loop
      vertex -7.5 -3.75278 -2.5
      vertex -0.366025 0.366025 -3
      vertex -0.366025 0.366025 -2.5
    endloop
  endfacet
  facet normal 0.500001 -0.866025 0
    outer loop
      vertex 1.36602 1.36602 -2.5
      vertex 1.36602 1.36602 -3
      vertex 7.5 4.90748 -2.5
    endloop
  endfacet
  facet normal 0.499999 -0.866026 0
    outer loop
      vertex 7.5 4.90748 -2.5
      vertex 10 6.35085 7.5
      vertex 7.5 4.90748 7.5
    endloop
  endfacet
  facet normal 0.499999 -0.866026 0
    outer loop
      vertex 7.5 4.90748 -2.5
      vertex 10 6.35085 -3
      vertex 10 6.35085 7.5
    endloop
  endfacet
  facet normal 0.5 -0.866025 9.48626e-06
    outer loop
      vertex 10 6.35085 -3
      vertex 7.5 4.90748 -2.5
      vertex 1.36602 1.36602 -3
    endloop
  endfacet
  facet normal -0.500001 0.866025 0
    outer loop
      vertex -1.36602 -1.36602 -2.5
      vertex -1.36602 -1.36602 -3
      vertex -7.5 -4.90748 -2.5
    endloop
  endfacet
  facet normal -0.499999 0.866026 0
    outer loop
      vertex -7.5 -4.90748 -2.5
      vertex -10 -6.35085 7.5
      vertex -7.5 -4.90748 7.5
    endloop
  endfacet
  facet normal -0.499999 0.866026 0
    outer loop
      vertex -7.5 -4.90748 -2.5
      vertex -10 -6.35085 -3
      vertex -10 -6.35085 7.5
    endloop
  endfacet
  facet normal -0.5 0.866025 9.48626e-06
    outer loop
      vertex -10 -6.35085 -3
      vertex -7.5 -4.90748 -2.5
      vertex -1.36602 -1.36602 -3
    endloop
  endfacet
  facet normal -0.499999 0.866026 0
    outer loop
      vertex 10 5.19615 7.5
      vertex 7.5 3.75278 -2.5
      vertex 7.5 3.75278 7.5
    endloop
  endfacet
  facet normal -0.499999 0.866026 0
    outer loop
      vertex 10 5.19615 -3
      vertex 7.5 3.75278 -2.5
      vertex 10 5.19615 7.5
    endloop
  endfacet
  facet normal -0.5 0.866026 -8.45069e-06
    outer loop
      vertex 0.366025 -0.366025 -3
      vertex 7.5 3.75278 -2.5
      vertex 10 5.19615 -3
    endloop
  endfacet
  facet normal -0.5 0.866025 0
    outer loop
      vertex 7.5 3.75278 -2.5
      vertex 0.366025 -0.366025 -3
      vertex 0.366025 -0.366025 -2.5
    endloop
  endfacet
  facet normal 1 0 0
    outer loop
      vertex 10 5.19615 7.5
      vertex 10 -50 7.5
      vertex 10 5.19615 -3
    endloop
  endfacet
  facet normal 1 0 0
    outer loop
      vertex 10 16.3205 7.5
      vertex 10 6.35085 7.5
      vertex 10 16.3205 -3
    endloop
  endfacet
  facet normal 1 0 0
    outer loop
      vertex 10 18.3205 -3
      vertex 10 50 7.5
      vertex 10 18.3205 7.5
    endloop
  endfacet
  facet normal 1 0 0
    outer loop
      vertex 10 50 7.5
      vertex 10 18.3205 -3
      vertex 10 50 -7.5
    endloop
  endfacet
  facet normal 1 -0 0
    outer loop
      vertex 10 16.3205 -3
      vertex 10 50 -7.5
      vertex 10 18.3205 -3
    endloop
  endfacet
  facet normal 1 0 0
    outer loop
      vertex 10 6.35085 -3
      vertex 10 16.3205 -3
      vertex 10 6.35085 7.5
    endloop
  endfacet
  facet normal 1 -0 0
    outer loop
      vertex 10 6.35085 -3
      vertex 10 50 -7.5
      vertex 10 16.3205 -3
    endloop
  endfacet
  facet normal 1 -0 0
    outer loop
      vertex 10 5.19615 -3
      vertex 10 50 -7.5
      vertex 10 6.35085 -3
    endloop
  endfacet
  facet normal 1 0 0
    outer loop
      vertex 10 5.19615 -3
      vertex 10 -50 -7.5
      vertex 10 50 -7.5
    endloop
  endfacet
  facet normal 1 0 0
    outer loop
      vertex 10 -50 -7.5
      vertex 10 5.19615 -3
      vertex 10 -50 7.5
    endloop
  endfacet
  facet normal 0 0 -1
    outer loop
      vertex -10 -50 -7.5
      vertex 10 50 -7.5
      vertex 10 -50 -7.5
    endloop
  endfacet
  facet normal -0 0 -1
    outer loop
      vertex 10 50 -7.5
      vertex -10 -50 -7.5
      vertex -10 50 -7.5
    endloop
  endfacet
  facet normal -1 0 0
    outer loop
      vertex -10 50 -7.5
      vertex -10 -5.19615 -3
      vertex -10 50 7.5
    endloop
  endfacet
  facet normal -1 0 0
    outer loop
      vertex -10 -50 -7.5
      vertex -10 -5.19615 -3
      vertex -10 50 -7.5
    endloop
  endfacet
  facet normal -1 0 0
    outer loop
      vertex -10 -6.35085 -3
      vertex -10 -16.3205 -3
      vertex -10 -6.35085 7.5
    endloop
  endfacet
  facet normal -1 -0 0
    outer loop
      vertex -10 -5.19615 -3
      vertex -10 -50 -7.5
      vertex -10 -6.35085 -3
    endloop
  endfacet
  facet normal -1 -0 0
    outer loop
      vertex -10 -6.35085 -3
      vertex -10 -50 -7.5
      vertex -10 -16.3205 -3
    endloop
  endfacet
  facet normal -1 -0 0
    outer loop
      vertex -10 -16.3205 -3
      vertex -10 -50 -7.5
      vertex -10 -18.3205 -3
    endloop
  endfacet
  facet normal -1 0 0
    outer loop
      vertex -10 -50 7.5
      vertex -10 -18.3205 -3
      vertex -10 -50 -7.5
    endloop
  endfacet
  facet normal -1 0 0
    outer loop
      vertex -10 -18.3205 -3
      vertex -10 -50 7.5
      vertex -10 -18.3205 7.5
    endloop
  endfacet
  facet normal -1 -0 0
    outer loop
      vertex -10 50 7.5
      vertex -10 -5.19615 -3
      vertex -10 -5.19615 7.5
    endloop
  endfacet
  facet normal -1 -0 0
    outer loop
      vertex -10 -6.35085 7.5
      vertex -10 -16.3205 -3
      vertex -10 -16.3205 7.5
    endloop
  endfacet
endsolid OpenSCAD_Model
