solid OpenSCAD_Model
  facet normal -1 0 0
    outer loop
      vertex 7.5 13.9904 -2.5
      vertex 7.5 50 7.5
      vertex 7.5 50 -2.5
    endloop
  endfacet
  facet normal -1 -0 0
    outer loop
      vertex 7.5 50 7.5
      vertex 7.5 13.9904 -2.5
      vertex 7.5 13.9904 7.5
    endloop
  endfacet
  facet normal -1 0 0
    outer loop
      vertex 7.5 -50 -2.5
      vertex 7.5 11.9904 7.5
      vertex 7.5 11.9904 -2.5
    endloop
  endfacet
  facet normal -1 -0 0
    outer loop
      vertex 7.5 11.9904 7.5
      vertex 7.5 -50 -2.5
      vertex 7.5 -50 7.5
    endloop
  endfacet
  facet normal -0 0 1
    outer loop
      vertex -10 50 7.5
      vertex -7.5 -11.9904 7.5
      vertex -7.5 50 7.5
    endloop
  endfacet
  facet normal 0 0 1
    outer loop
      vertex -7.5 -11.9904 7.5
      vertex -10 50 7.5
      vertex -10 -16.3205 7.5
    endloop
  endfacet
  facet normal -0 0 1
    outer loop
      vertex 7.5 50 7.5
      vertex 10 18.3205 7.5
      vertex 10 50 7.5
    endloop
  endfacet
  facet normal 0 0 1
    outer loop
      vertex 10 18.3205 7.5
      vertex 7.5 50 7.5
      vertex 7.5 13.9904 7.5
    endloop
  endfacet
  facet normal -0 0 1
    outer loop
      vertex -10 -18.3205 7.5
      vertex -7.5 -50 7.5
      vertex -7.5 -13.9904 7.5
    endloop
  endfacet
  facet normal 0 0 1
    outer loop
      vertex -7.5 -50 7.5
      vertex -10 -18.3205 7.5
      vertex -10 -50 7.5
    endloop
  endfacet
  facet normal -0 0 1
    outer loop
      vertex 7.5 11.9904 7.5
      vertex 10 -50 7.5
      vertex 10 16.3205 7.5
    endloop
  endfacet
  facet normal 0 0 1
    outer loop
      vertex 10 -50 7.5
      vertex 7.5 11.9904 7.5
      vertex 7.5 -50 7.5
    endloop
  endfacet
  facet normal -0 0 1
    outer loop
      vertex -7.5 50 -2.5
      vertex 7.5 13.9904 -2.5
      vertex 7.5 50 -2.5
    endloop
  endfacet
  facet normal 0 0 1
    outer loop
      vertex 7.5 13.9904 -2.5
      vertex -7.5 50 -2.5
      vertex -7.5 -11.9904 -2.5
    endloop
  endfacet
  facet normal -0 0 1
    outer loop
      vertex -7.5 -13.9904 -2.5
      vertex 7.5 -50 -2.5
      vertex 7.5 11.9904 -2.5
    endloop
  endfacet
  facet normal 0 0 1
    outer loop
      vertex 7.5 -50 -2.5
      vertex -7.5 -13.9904 -2.5
      vertex -7.5 -50 -2.5
    endloop
  endfacet
  facet normal 1 -0 0
    outer loop
      vertex -7.5 -11.9904 7.5
      vertex -7.5 50 -2.5
      vertex -7.5 50 7.5
    endloop
  endfacet
  facet normal 1 0 0
    outer loop
      vertex -7.5 50 -2.5
      vertex -7.5 -11.9904 7.5
      vertex -7.5 -11.9904 -2.5
    endloop
  endfacet
  facet normal 1 -0 0
    outer loop
      vertex -7.5 -50 7.5
      vertex -7.5 -13.9904 -2.5
      vertex -7.5 -13.9904 7.5
    endloop
  endfacet
  facet normal 1 0 0
    outer loop
      vertex -7.5 -13.9904 -2.5
      vertex -7.5 -50 7.5
      vertex -7.5 -50 -2.5
    endloop
  endfacet
  facet normal 0 1 0
    outer loop
      vertex 10 50 7.5
      vertex 7.5 50 -2.5
      vertex 7.5 50 7.5
    endloop
  endfacet
  facet normal 0 1 0
    outer loop
      vertex 7.5 50 -2.5
      vertex 10 50 -7.5
      vertex -7.5 50 -2.5
    endloop
  endfacet
  facet normal 0 1 -0
    outer loop
      vertex 10 50 -7.5
      vertex 7.5 50 -2.5
      vertex 10 50 7.5
    endloop
  endfacet
  facet normal 0 1 -0
    outer loop
      vertex -7.5 50 -2.5
      vertex -10 50 7.5
      vertex -7.5 50 7.5
    endloop
  endfacet
  facet normal 0 1 0
    outer loop
      vertex -7.5 50 -2.5
      vertex -10 50 -7.5
      vertex -10 50 7.5
    endloop
  endfacet
  facet normal 0 1 0
    outer loop
      vertex -10 50 -7.5
      vertex -7.5 50 -2.5
      vertex 10 50 -7.5
    endloop
  endfacet
  facet normal 0 -1 0
    outer loop
      vertex -10 -50 7.5
      vertex -7.5 -50 -2.5
      vertex -7.5 -50 7.5
    endloop
  endfacet
  facet normal 0 -1 -0
    outer loop
      vertex -7.5 -50 -2.5
      vertex -10 -50 -7.5
      vertex 7.5 -50 -2.5
    endloop
  endfacet
  facet normal 0 -1 0
    outer loop
      vertex -10 -50 -7.5
      vertex -7.5 -50 -2.5
      vertex -10 -50 7.5
    endloop
  endfacet
  facet normal 0 -1 0
    outer loop
      vertex 7.5 -50 -2.5
      vertex 10 -50 7.5
      vertex 7.5 -50 7.5
    endloop
  endfacet
  facet normal 0 -1 0
    outer loop
      vertex 7.5 -50 -2.5
      vertex 10 -50 -7.5
      vertex 10 -50 7.5
    endloop
  endfacet
  facet normal 0 -1 0
    outer loop
      vertex 10 -50 -7.5
      vertex 7.5 -50 -2.5
      vertex -10 -50 -7.5
    endloop
  endfacet
  facet normal 0.866024 -0.500002 0
    outer loop
      vertex -7.5 -11.9904 7.5
      vertex -10 -16.3205 7.5
      vertex -7.5 -11.9904 -2.5
    endloop
  endfacet
  facet normal 0.866024 -0.500002 0
    outer loop
      vertex 7.5 13.9904 -2.5
      vertex 10 18.3205 7.5
      vertex 7.5 13.9904 7.5
    endloop
  endfacet
  facet normal 0.866024 -0.500002 0
    outer loop
      vertex 10 18.3205 7.5
      vertex 7.5 13.9904 -2.5
      vertex 10 18.3205 -3
    endloop
  endfacet
  facet normal 0.866026 -0.499999 3.33333e-05
    outer loop
      vertex -7.5 -11.9904 -2.5
      vertex 10 18.3205 -3
      vertex 7.5 13.9904 -2.5
    endloop
  endfacet
  facet normal 0.866025 -0.5 -2.5e-05
    outer loop
      vertex -7.5 -11.9904 -2.5
      vertex -10 -16.3205 -3
      vertex 10 18.3205 -3
    endloop
  endfacet
  facet normal 0.866024 -0.500002 0
    outer loop
      vertex -10 -16.3205 -3
      vertex -7.5 -11.9904 -2.5
      vertex -10 -16.3205 7.5
    endloop
  endfacet
  facet normal 0 0 1
    outer loop
      vertex -10 -16.3205 -3
      vertex 10 16.3205 -3
      vertex 10 18.3205 -3
    endloop
  endfacet
  facet normal 0 0 1
    outer loop
      vertex 10 16.3205 -3
      vertex -10 -16.3205 -3
      vertex -10 -18.3205 -3
    endloop
  endfacet
  facet normal -0.866024 0.500002 0
    outer loop
      vertex 10 16.3205 -3
      vertex 7.5 11.9904 -2.5
      vertex 10 16.3205 7.5
    endloop
  endfacet
  facet normal -0.866026 0.499999 -3.33333e-05
    outer loop
      vertex 10 16.3205 -3
      vertex -7.5 -13.9904 -2.5
      vertex 7.5 11.9904 -2.5
    endloop
  endfacet
  facet normal -0.866025 0.5 2.5e-05
    outer loop
      vertex -10 -18.3205 -3
      vertex -7.5 -13.9904 -2.5
      vertex 10 16.3205 -3
    endloop
  endfacet
  facet normal -0.866024 0.500002 0
    outer loop
      vertex -10 -18.3205 7.5
      vertex -7.5 -13.9904 -2.5
      vertex -10 -18.3205 -3
    endloop
  endfacet
  facet normal -0.866024 0.500002 0
    outer loop
      vertex -7.5 -13.9904 -2.5
      vertex -10 -18.3205 7.5
      vertex -7.5 -13.9904 7.5
    endloop
  endfacet
  facet normal -0.866024 0.500002 0
    outer loop
      vertex 10 16.3205 7.5
      vertex 7.5 11.9904 -2.5
      vertex 7.5 11.9904 7.5
    endloop
  endfacet
  facet normal 1 0 0
    outer loop
      vertex 10 16.3205 7.5
      vertex 10 -50 7.5
      vertex 10 16.3205 -3
    endloop
  endfacet
  facet normal 1 0 0
    outer loop
      vertex 10 18.3205 -3
      vertex 10 50 7.5
      vertex 10 18.3205 7.5
    endloop
  endfacet
  facet normal 1 0 0
    outer loop
      vertex 10 50 7.5
      vertex 10 18.3205 -3
      vertex 10 50 -7.5
    endloop
  endfacet
  facet normal 1 -0 0
    outer loop
      vertex 10 16.3205 -3
      vertex 10 50 -7.5
      vertex 10 18.3205 -3
    endloop
  endfacet
  facet normal 1 0 0
    outer loop
      vertex 10 16.3205 -3
      vertex 10 -50 -7.5
      vertex 10 50 -7.5
    endloop
  endfacet
  facet normal 1 0 0
    outer loop
      vertex 10 -50 -7.5
      vertex 10 16.3205 -3
      vertex 10 -50 7.5
    endloop
  endfacet
  facet normal 0 0 -1
    outer loop
      vertex -10 -50 -7.5
      vertex 10 50 -7.5
      vertex 10 -50 -7.5
    endloop
  endfacet
  facet normal -0 0 -1
    outer loop
      vertex 10 50 -7.5
      vertex -10 -50 -7.5
      vertex -10 50 -7.5
    endloop
  endfacet
  facet normal -1 0 0
    outer loop
      vertex -10 50 -7.5
      vertex -10 -16.3205 -3
      vertex -10 50 7.5
    endloop
  endfacet
  facet normal -1 0 0
    outer loop
      vertex -10 -50 -7.5
      vertex -10 -16.3205 -3
      vertex -10 50 -7.5
    endloop
  endfacet
  facet normal -1 -0 0
    outer loop
      vertex -10 -16.3205 -3
      vertex -10 -50 -7.5
      vertex -10 -18.3205 -3
    endloop
  endfacet
  facet normal -1 0 0
    outer loop
      vertex -10 -50 7.5
      vertex -10 -18.3205 -3
      vertex -10 -50 -7.5
    endloop
  endfacet
  facet normal -1 0 0
    outer loop
      vertex -10 -18.3205 -3
      vertex -10 -50 7.5
      vertex -10 -18.3205 7.5
    endloop
  endfacet
  facet normal -1 -0 0
    outer loop
      vertex -10 50 7.5
      vertex -10 -16.3205 -3
      vertex -10 -16.3205 7.5
    endloop
  endfacet
endsolid OpenSCAD_Model
