solid OpenSCAD_Model
  facet normal -0 0 1
    outer loop
      vertex 73.4209 127.169 6
      vertex 75.6295 126.994 6
      vertex 75.3269 127.169 6
    endloop
  endfacet
  facet normal 0 0 1
    outer loop
      vertex 73.4209 127.169 6
      vertex 63.1295 105.343 6
      vertex 75.6295 126.994 6
    endloop
  endfacet
  facet normal 0 -0 1
    outer loop
      vertex 63.1295 105.343 6
      vertex 73.4209 127.169 6
      vertex 61.3974 106.343 6
    endloop
  endfacet
  facet normal 0.50063 0.865661 -0
    outer loop
      vertex 75.6295 126.994 0
      vertex 75.3269 127.169 6
      vertex 75.6295 126.994 6
    endloop
  endfacet
  facet normal 0.50063 0.865661 0
    outer loop
      vertex 75.3269 127.169 6
      vertex 75.6295 126.994 0
      vertex 75.3269 127.169 0
    endloop
  endfacet
  facet normal -0.499989 -0.866032 0
    outer loop
      vertex 61.3974 106.343 5
      vertex 63.1295 105.343 6
      vertex 61.3974 106.343 6
    endloop
  endfacet
  facet normal -0.499989 -0.866032 -0
    outer loop
      vertex 63.1295 105.343 6
      vertex 61.3974 106.343 5
      vertex 63.1295 105.343 5
    endloop
  endfacet
  facet normal -0.866026 0.5 0
    outer loop
      vertex 72.2662 125.169 5
      vertex 73.4209 127.169 0
      vertex 72.2662 125.169 0
    endloop
  endfacet
  facet normal -0.866026 0.5 0
    outer loop
      vertex 73.4209 127.169 0
      vertex 72.2662 125.169 5
      vertex 73.4209 127.169 6
    endloop
  endfacet
  facet normal -0.866033 0.499986 0
    outer loop
      vertex 61.3974 106.343 6
      vertex 72.2662 125.169 5
      vertex 61.3974 106.343 5
    endloop
  endfacet
  facet normal -0.866033 0.499988 3.25272e-05
    outer loop
      vertex 72.2662 125.169 5
      vertex 61.3974 106.343 6
      vertex 73.4209 127.169 6
    endloop
  endfacet
  facet normal 0 0 -1
    outer loop
      vertex -74.5756 125.169 0
      vertex -75.3269 127.169 0
      vertex -73.4209 127.169 0
    endloop
  endfacet
  facet normal 0 -0 -1
    outer loop
      vertex -75.3269 127.169 0
      vertex -74.5756 125.169 0
      vertex -75.6295 126.994 0
    endloop
  endfacet
  facet normal 0 0 -1
    outer loop
      vertex -49.1722 77.1688 0
      vertex -63.0286 117.169 0
      vertex -44.5534 85.1688 0
    endloop
  endfacet
  facet normal -0 -0 -1
    outer loop
      vertex -63.0286 117.169 0
      vertex -49.1722 77.1688 0
      vertex -72.2662 117.169 0
    endloop
  endfacet
  facet normal 0 0 -1
    outer loop
      vertex -37.6252 81.1688 0
      vertex -26.0782 117.169 0
      vertex -16.8406 117.169 0
    endloop
  endfacet
  facet normal 0 0 -1
    outer loop
      vertex -44.5534 85.1688 0
      vertex -37.6252 81.1688 0
      vertex -42.244 73.1688 0
    endloop
  endfacet
  facet normal 0 0 -1
    outer loop
      vertex -37.6252 81.1688 0
      vertex -44.5534 85.1688 0
      vertex -26.0782 117.169 0
    endloop
  endfacet
  facet normal 0 0 -1
    outer loop
      vertex -42.244 73.1688 0
      vertex -49.1722 77.1688 0
      vertex -44.5534 85.1688 0
    endloop
  endfacet
  facet normal 0 0 -1
    outer loop
      vertex -59.1994 43.8013 0
      vertex -49.1722 77.1688 0
      vertex -42.244 73.1688 0
    endloop
  endfacet
  facet normal 0 0 -1
    outer loop
      vertex -49.1722 77.1688 0
      vertex -59.1994 43.8013 0
      vertex -66.1276 47.8013 0
    endloop
  endfacet
  facet normal 0 0 -1
    outer loop
      vertex 42.244 73.1688 0
      vertex -37.6252 81.1688 0
      vertex 37.6252 81.1688 0
    endloop
  endfacet
  facet normal 0 -0 -1
    outer loop
      vertex -37.6252 81.1688 0
      vertex 42.244 73.1688 0
      vertex -42.244 73.1688 0
    endloop
  endfacet
  facet normal 0 0 -1
    outer loop
      vertex 59.1994 43.8013 0
      vertex 49.1722 77.1688 0
      vertex 66.1276 47.8013 0
    endloop
  endfacet
  facet normal 0 0 -1
    outer loop
      vertex 42.244 73.1688 0
      vertex 49.1722 77.1688 0
      vertex 59.1994 43.8013 0
    endloop
  endfacet
  facet normal -0 0 -1
    outer loop
      vertex 49.1722 77.1688 0
      vertex 42.244 73.1688 0
      vertex 44.5534 85.1688 0
    endloop
  endfacet
  facet normal 0 0 -1
    outer loop
      vertex 37.6252 81.1688 0
      vertex 44.5534 85.1688 0
      vertex 42.244 73.1688 0
    endloop
  endfacet
  facet normal 0 0 -1
    outer loop
      vertex 37.6252 81.1688 0
      vertex 26.0782 117.169 0
      vertex 44.5534 85.1688 0
    endloop
  endfacet
  facet normal -0 -0 -1
    outer loop
      vertex 26.0782 117.169 0
      vertex 37.6252 81.1688 0
      vertex 16.8406 117.169 0
    endloop
  endfacet
  facet normal 0 0 -1
    outer loop
      vertex 77.6474 117.169 0
      vertex 74.5756 125.169 0
      vertex 77.6474 125.169 0
    endloop
  endfacet
  facet normal 0 0 -1
    outer loop
      vertex 72.2662 117.169 0
      vertex 74.5756 125.169 0
      vertex 77.6474 117.169 0
    endloop
  endfacet
  facet normal -0 0 -1
    outer loop
      vertex 74.5756 125.169 0
      vertex 72.2662 117.169 0
      vertex 72.2662 125.169 0
    endloop
  endfacet
  facet normal 0 0 -1
    outer loop
      vertex 74.5756 125.169 0
      vertex 72.2662 125.169 0
      vertex 73.4209 127.169 0
    endloop
  endfacet
  facet normal 0 0 -1
    outer loop
      vertex 72.2662 117.169 0
      vertex 63.0286 117.169 0
      vertex 72.2662 125.169 0
    endloop
  endfacet
  facet normal 0 0 -1
    outer loop
      vertex 49.1722 77.1688 0
      vertex 63.0286 117.169 0
      vertex 72.2662 117.169 0
    endloop
  endfacet
  facet normal 0 0 -1
    outer loop
      vertex 63.0286 117.169 0
      vertex 49.1722 77.1688 0
      vertex 44.5534 85.1688 0
    endloop
  endfacet
  facet normal 0 0 -1
    outer loop
      vertex 74.5756 125.169 0
      vertex 75.3269 127.169 0
      vertex 75.6295 126.994 0
    endloop
  endfacet
  facet normal -0 0 -1
    outer loop
      vertex 75.3269 127.169 0
      vertex 74.5756 125.169 0
      vertex 73.4209 127.169 0
    endloop
  endfacet
  facet normal 0 0 -1
    outer loop
      vertex 26.0782 117.169 0
      vertex 72.2662 125.169 0
      vertex 63.0286 117.169 0
    endloop
  endfacet
  facet normal 0 0 -1
    outer loop
      vertex 16.8406 117.169 0
      vertex 72.2662 125.169 0
      vertex 26.0782 117.169 0
    endloop
  endfacet
  facet normal 0 0 -1
    outer loop
      vertex -16.8406 117.169 0
      vertex 72.2662 125.169 0
      vertex 16.8406 117.169 0
    endloop
  endfacet
  facet normal 0 0 -1
    outer loop
      vertex -72.2662 125.169 0
      vertex -16.8406 117.169 0
      vertex -26.0782 117.169 0
    endloop
  endfacet
  facet normal 0 0 -1
    outer loop
      vertex -72.2662 125.169 0
      vertex -26.0782 117.169 0
      vertex -63.0286 117.169 0
    endloop
  endfacet
  facet normal 0 0 -1
    outer loop
      vertex -72.2662 125.169 0
      vertex -63.0286 117.169 0
      vertex -72.2662 117.169 0
    endloop
  endfacet
  facet normal 0 0 -1
    outer loop
      vertex -16.8406 117.169 0
      vertex -72.2662 125.169 0
      vertex 72.2662 125.169 0
    endloop
  endfacet
  facet normal 0 0 -1
    outer loop
      vertex -74.5756 125.169 0
      vertex -72.2662 125.169 0
      vertex -72.2662 117.169 0
    endloop
  endfacet
  facet normal 0 0 -1
    outer loop
      vertex -72.2662 125.169 0
      vertex -74.5756 125.169 0
      vertex -73.4209 127.169 0
    endloop
  endfacet
  facet normal 0 0 -1
    outer loop
      vertex -77.6474 117.169 0
      vertex -74.5756 125.169 0
      vertex -72.2662 117.169 0
    endloop
  endfacet
  facet normal -0 0 -1
    outer loop
      vertex -74.5756 125.169 0
      vertex -77.6474 117.169 0
      vertex -77.6474 125.169 0
    endloop
  endfacet
  facet normal 0.865977 -0.500084 0
    outer loop
      vertex 75.6295 126.994 6
      vertex 74.5756 125.169 5
      vertex 75.6295 126.994 0
    endloop
  endfacet
  facet normal 0.866029 -0.499994 -0.000219553
    outer loop
      vertex 63.1295 105.343 6
      vertex 74.5756 125.169 5
      vertex 75.6295 126.994 6
    endloop
  endfacet
  facet normal 0.866034 -0.499985 0
    outer loop
      vertex 74.5756 125.169 5
      vertex 63.1295 105.343 6
      vertex 63.1295 105.343 5
    endloop
  endfacet
  facet normal 0.865977 -0.500084 0
    outer loop
      vertex 75.6295 126.994 0
      vertex 74.5756 125.169 5
      vertex 74.5756 125.169 0
    endloop
  endfacet
  facet normal 0.499989 -0.866032 0
    outer loop
      vertex -63.1295 105.343 5
      vertex -61.3974 106.343 6
      vertex -63.1295 105.343 6
    endloop
  endfacet
  facet normal 0.499989 -0.866032 0
    outer loop
      vertex -61.3974 106.343 6
      vertex -63.1295 105.343 5
      vertex -61.3974 106.343 5
    endloop
  endfacet
  facet normal 0 0 1
    outer loop
      vertex -73.4209 127.169 6
      vertex -63.1295 105.343 6
      vertex -61.3974 106.343 6
    endloop
  endfacet
  facet normal 0 0 1
    outer loop
      vertex -75.6295 126.994 6
      vertex -73.4209 127.169 6
      vertex -75.3269 127.169 6
    endloop
  endfacet
  facet normal 0 0 1
    outer loop
      vertex -73.4209 127.169 6
      vertex -75.6295 126.994 6
      vertex -63.1295 105.343 6
    endloop
  endfacet
  facet normal -0.50063 0.865661 0
    outer loop
      vertex -75.3269 127.169 0
      vertex -75.6295 126.994 6
      vertex -75.3269 127.169 6
    endloop
  endfacet
  facet normal -0.50063 0.865661 0
    outer loop
      vertex -75.6295 126.994 6
      vertex -75.3269 127.169 0
      vertex -75.6295 126.994 0
    endloop
  endfacet
  facet normal 0.866026 0.5 0
    outer loop
      vertex -73.4209 127.169 6
      vertex -72.2662 125.169 5
      vertex -73.4209 127.169 0
    endloop
  endfacet
  facet normal 0.866033 0.499988 3.25272e-05
    outer loop
      vertex -61.3974 106.343 6
      vertex -72.2662 125.169 5
      vertex -73.4209 127.169 6
    endloop
  endfacet
  facet normal 0.866033 0.499986 0
    outer loop
      vertex -72.2662 125.169 5
      vertex -61.3974 106.343 6
      vertex -61.3974 106.343 5
    endloop
  endfacet
  facet normal 0.866026 0.5 0
    outer loop
      vertex -73.4209 127.169 0
      vertex -72.2662 125.169 5
      vertex -72.2662 125.169 0
    endloop
  endfacet
  facet normal -0.865977 -0.500084 -0
    outer loop
      vertex -74.5756 125.169 5
      vertex -75.6295 126.994 0
      vertex -74.5756 125.169 0
    endloop
  endfacet
  facet normal -0.865977 -0.500084 0
    outer loop
      vertex -75.6295 126.994 0
      vertex -74.5756 125.169 5
      vertex -75.6295 126.994 6
    endloop
  endfacet
  facet normal -0.866034 -0.499985 -0
    outer loop
      vertex -63.1295 105.343 6
      vertex -74.5756 125.169 5
      vertex -63.1295 105.343 5
    endloop
  endfacet
  facet normal -0.866029 -0.499994 -0.000219553
    outer loop
      vertex -74.5756 125.169 5
      vertex -63.1295 105.343 6
      vertex -75.6295 126.994 6
    endloop
  endfacet
  facet normal 0 1 -0
    outer loop
      vertex -73.4209 127.169 0
      vertex -75.3269 127.169 6
      vertex -73.4209 127.169 6
    endloop
  endfacet
  facet normal 0 1 0
    outer loop
      vertex -75.3269 127.169 6
      vertex -73.4209 127.169 0
      vertex -75.3269 127.169 0
    endloop
  endfacet
  facet normal 0 1 -0
    outer loop
      vertex 75.3269 127.169 0
      vertex 73.4209 127.169 6
      vertex 75.3269 127.169 6
    endloop
  endfacet
  facet normal 0 1 0
    outer loop
      vertex 73.4209 127.169 6
      vertex 75.3269 127.169 0
      vertex 73.4209 127.169 0
    endloop
  endfacet
  facet normal 0 0 1
    outer loop
      vertex 72.2662 125.169 5
      vertex 26.0782 117.169 5
      vertex 63.0286 117.169 5
    endloop
  endfacet
  facet normal 0 0 1
    outer loop
      vertex 72.2662 125.169 5
      vertex 16.8406 117.169 5
      vertex 26.0782 117.169 5
    endloop
  endfacet
  facet normal 0 0 1
    outer loop
      vertex 72.2662 125.169 5
      vertex -16.8406 117.169 5
      vertex 16.8406 117.169 5
    endloop
  endfacet
  facet normal -0 0 1
    outer loop
      vertex -72.2662 125.169 5
      vertex -16.8406 117.169 5
      vertex 72.2662 125.169 5
    endloop
  endfacet
  facet normal 0 0 1
    outer loop
      vertex -16.8406 117.169 5
      vertex -72.2662 125.169 5
      vertex -26.0782 117.169 5
    endloop
  endfacet
  facet normal 0 0 1
    outer loop
      vertex -26.0782 117.169 5
      vertex -72.2662 125.169 5
      vertex -63.0286 117.169 5
    endloop
  endfacet
  facet normal -0 0 1
    outer loop
      vertex 63.0286 117.169 5
      vertex 61.3974 106.343 5
      vertex 72.2662 125.169 5
    endloop
  endfacet
  facet normal 0 0 1
    outer loop
      vertex 44.5534 85.1688 5
      vertex 61.3974 106.343 5
      vertex 63.0286 117.169 5
    endloop
  endfacet
  facet normal 0 0 1
    outer loop
      vertex 61.3974 106.343 5
      vertex 44.5534 85.1688 5
      vertex 49.1722 77.1688 5
    endloop
  endfacet
  facet normal -0 0 1
    outer loop
      vertex 74.5756 125.169 5
      vertex 77.6474 117.169 5
      vertex 77.6474 125.169 5
    endloop
  endfacet
  facet normal 0 0 1
    outer loop
      vertex 74.5756 125.169 5
      vertex 72.2662 117.169 5
      vertex 77.6474 117.169 5
    endloop
  endfacet
  facet normal 0 0 1
    outer loop
      vertex 63.1295 105.343 5
      vertex 72.2662 117.169 5
      vertex 74.5756 125.169 5
    endloop
  endfacet
  facet normal -0 0 1
    outer loop
      vertex 63.1295 105.343 5
      vertex 49.1722 77.1688 5
      vertex 72.2662 117.169 5
    endloop
  endfacet
  facet normal 0 0 1
    outer loop
      vertex 49.1722 77.1688 5
      vertex 63.1295 105.343 5
      vertex 61.3974 106.343 5
    endloop
  endfacet
  facet normal 0 0 1
    outer loop
      vertex 49.1722 77.1688 5
      vertex 59.1994 43.8013 5
      vertex 66.1276 47.8013 5
    endloop
  endfacet
  facet normal 0 0 1
    outer loop
      vertex 42.244 73.1688 5
      vertex 49.1722 77.1688 5
      vertex 44.5534 85.1688 5
    endloop
  endfacet
  facet normal 0 0 1
    outer loop
      vertex 49.1722 77.1688 5
      vertex 42.244 73.1688 5
      vertex 59.1994 43.8013 5
    endloop
  endfacet
  facet normal 0 0 1
    outer loop
      vertex 44.5534 85.1688 5
      vertex 37.6252 81.1688 5
      vertex 42.244 73.1688 5
    endloop
  endfacet
  facet normal 0 0 1
    outer loop
      vertex 26.0782 117.169 5
      vertex 37.6252 81.1688 5
      vertex 44.5534 85.1688 5
    endloop
  endfacet
  facet normal 0 0 1
    outer loop
      vertex 37.6252 81.1688 5
      vertex 26.0782 117.169 5
      vertex 16.8406 117.169 5
    endloop
  endfacet
  facet normal -0 0 1
    outer loop
      vertex -63.1295 105.343 5
      vertex -44.5534 85.1688 5
      vertex -61.3974 106.343 5
    endloop
  endfacet
  facet normal 0 0 1
    outer loop
      vertex -63.0286 117.169 5
      vertex -61.3974 106.343 5
      vertex -44.5534 85.1688 5
    endloop
  endfacet
  facet normal 0 0 1
    outer loop
      vertex -61.3974 106.343 5
      vertex -63.0286 117.169 5
      vertex -72.2662 125.169 5
    endloop
  endfacet
  facet normal -0 0 1
    outer loop
      vertex -37.6252 81.1688 5
      vertex 42.244 73.1688 5
      vertex 37.6252 81.1688 5
    endloop
  endfacet
  facet normal 0 0 1
    outer loop
      vertex 42.244 73.1688 5
      vertex -37.6252 81.1688 5
      vertex -42.244 73.1688 5
    endloop
  endfacet
  facet normal -0 0 1
    outer loop
      vertex -26.0782 117.169 5
      vertex -37.6252 81.1688 5
      vertex -16.8406 117.169 5
    endloop
  endfacet
  facet normal -0 0 1
    outer loop
      vertex -44.5534 85.1688 5
      vertex -37.6252 81.1688 5
      vertex -26.0782 117.169 5
    endloop
  endfacet
  facet normal 0 0 1
    outer loop
      vertex -37.6252 81.1688 5
      vertex -44.5534 85.1688 5
      vertex -42.244 73.1688 5
    endloop
  endfacet
  facet normal -0 0 1
    outer loop
      vertex -49.1722 77.1688 5
      vertex -42.244 73.1688 5
      vertex -44.5534 85.1688 5
    endloop
  endfacet
  facet normal 0 0 1
    outer loop
      vertex -49.1722 77.1688 5
      vertex -59.1994 43.8013 5
      vertex -42.244 73.1688 5
    endloop
  endfacet
  facet normal 0 -0 1
    outer loop
      vertex -59.1994 43.8013 5
      vertex -49.1722 77.1688 5
      vertex -66.1276 47.8013 5
    endloop
  endfacet
  facet normal 0 0 1
    outer loop
      vertex -44.5534 85.1688 5
      vertex -63.1295 105.343 5
      vertex -49.1722 77.1688 5
    endloop
  endfacet
  facet normal 0 0 1
    outer loop
      vertex -63.1295 105.343 5
      vertex -72.2662 117.169 5
      vertex -49.1722 77.1688 5
    endloop
  endfacet
  facet normal 0 0 1
    outer loop
      vertex -74.5756 125.169 5
      vertex -72.2662 117.169 5
      vertex -63.1295 105.343 5
    endloop
  endfacet
  facet normal 0 0 1
    outer loop
      vertex -77.6474 117.169 5
      vertex -74.5756 125.169 5
      vertex -77.6474 125.169 5
    endloop
  endfacet
  facet normal 0 0 1
    outer loop
      vertex -74.5756 125.169 5
      vertex -77.6474 117.169 5
      vertex -72.2662 117.169 5
    endloop
  endfacet
  facet normal 0 1 -0
    outer loop
      vertex 37.6252 81.1688 0
      vertex -37.6252 81.1688 5
      vertex 37.6252 81.1688 5
    endloop
  endfacet
  facet normal 0 1 0
    outer loop
      vertex -37.6252 81.1688 5
      vertex 37.6252 81.1688 0
      vertex -37.6252 81.1688 0
    endloop
  endfacet
  facet normal 0 -1 0
    outer loop
      vertex -42.244 73.1688 0
      vertex 42.244 73.1688 5
      vertex -42.244 73.1688 5
    endloop
  endfacet
  facet normal 0 -1 -0
    outer loop
      vertex 42.244 73.1688 5
      vertex -42.244 73.1688 0
      vertex 42.244 73.1688 0
    endloop
  endfacet
  facet normal 1 -0 0
    outer loop
      vertex 77.6474 117.169 5
      vertex 77.6474 125.169 0
      vertex 77.6474 125.169 5
    endloop
  endfacet
  facet normal 1 0 0
    outer loop
      vertex 77.6474 125.169 0
      vertex 77.6474 117.169 5
      vertex 77.6474 117.169 0
    endloop
  endfacet
  facet normal -1 0 0
    outer loop
      vertex -77.6474 117.169 0
      vertex -77.6474 125.169 5
      vertex -77.6474 125.169 0
    endloop
  endfacet
  facet normal -1 -0 0
    outer loop
      vertex -77.6474 125.169 5
      vertex -77.6474 117.169 0
      vertex -77.6474 117.169 5
    endloop
  endfacet
  facet normal 0 1 -0
    outer loop
      vertex -74.5756 125.169 0
      vertex -77.6474 125.169 5
      vertex -74.5756 125.169 5
    endloop
  endfacet
  facet normal 0 1 0
    outer loop
      vertex -77.6474 125.169 5
      vertex -74.5756 125.169 0
      vertex -77.6474 125.169 0
    endloop
  endfacet
  facet normal 0 1 -0
    outer loop
      vertex 77.6474 125.169 0
      vertex 74.5756 125.169 5
      vertex 77.6474 125.169 5
    endloop
  endfacet
  facet normal 0 1 0
    outer loop
      vertex 74.5756 125.169 5
      vertex 77.6474 125.169 0
      vertex 74.5756 125.169 0
    endloop
  endfacet
  facet normal 0 1 -0
    outer loop
      vertex 72.2662 125.169 0
      vertex -72.2662 125.169 5
      vertex 72.2662 125.169 5
    endloop
  endfacet
  facet normal 0 1 0
    outer loop
      vertex -72.2662 125.169 5
      vertex 72.2662 125.169 0
      vertex -72.2662 125.169 0
    endloop
  endfacet
  facet normal 0 -1 0
    outer loop
      vertex -77.6474 117.169 0
      vertex -72.2662 117.169 5
      vertex -77.6474 117.169 5
    endloop
  endfacet
  facet normal 0 -1 -0
    outer loop
      vertex -72.2662 117.169 5
      vertex -77.6474 117.169 0
      vertex -72.2662 117.169 0
    endloop
  endfacet
  facet normal 0 -1 0
    outer loop
      vertex 72.2662 117.169 0
      vertex 77.6474 117.169 5
      vertex 72.2662 117.169 5
    endloop
  endfacet
  facet normal 0 -1 -0
    outer loop
      vertex 77.6474 117.169 5
      vertex 72.2662 117.169 0
      vertex 77.6474 117.169 0
    endloop
  endfacet
  facet normal 0 -1 0
    outer loop
      vertex -63.0286 117.169 0
      vertex -26.0782 117.169 5
      vertex -63.0286 117.169 5
    endloop
  endfacet
  facet normal 0 -1 -0
    outer loop
      vertex -26.0782 117.169 5
      vertex -63.0286 117.169 0
      vertex -26.0782 117.169 0
    endloop
  endfacet
  facet normal 0 -1 0
    outer loop
      vertex -16.8406 117.169 0
      vertex 16.8406 117.169 5
      vertex -16.8406 117.169 5
    endloop
  endfacet
  facet normal 0 -1 -0
    outer loop
      vertex 16.8406 117.169 5
      vertex -16.8406 117.169 0
      vertex 16.8406 117.169 0
    endloop
  endfacet
  facet normal 0 -1 0
    outer loop
      vertex 26.0782 117.169 0
      vertex 63.0286 117.169 5
      vertex 26.0782 117.169 5
    endloop
  endfacet
  facet normal 0 -1 -0
    outer loop
      vertex 63.0286 117.169 5
      vertex 26.0782 117.169 0
      vertex 63.0286 117.169 0
    endloop
  endfacet
  facet normal -0.5 -0.866025 0
    outer loop
      vertex -66.1276 47.8013 0
      vertex -59.1994 43.8013 5
      vertex -66.1276 47.8013 5
    endloop
  endfacet
  facet normal -0.5 -0.866025 -0
    outer loop
      vertex -59.1994 43.8013 5
      vertex -66.1276 47.8013 0
      vertex -59.1994 43.8013 0
    endloop
  endfacet
  facet normal -0.866025 0.500001 0
    outer loop
      vertex -66.1276 47.8013 0
      vertex -49.1722 77.1688 5
      vertex -49.1722 77.1688 0
    endloop
  endfacet
  facet normal -0.866025 0.500001 0
    outer loop
      vertex -49.1722 77.1688 5
      vertex -66.1276 47.8013 0
      vertex -66.1276 47.8013 5
    endloop
  endfacet
  facet normal -0.866027 0.499997 0
    outer loop
      vertex -44.5534 85.1688 0
      vertex -26.0782 117.169 5
      vertex -26.0782 117.169 0
    endloop
  endfacet
  facet normal -0.866027 0.499997 0
    outer loop
      vertex -26.0782 117.169 5
      vertex -44.5534 85.1688 0
      vertex -44.5534 85.1688 5
    endloop
  endfacet
  facet normal 0.866025 -0.500001 0
    outer loop
      vertex -59.1994 43.8013 5
      vertex -42.244 73.1688 0
      vertex -42.244 73.1688 5
    endloop
  endfacet
  facet normal 0.866025 -0.500001 0
    outer loop
      vertex -42.244 73.1688 0
      vertex -59.1994 43.8013 5
      vertex -59.1994 43.8013 0
    endloop
  endfacet
  facet normal 0.866027 -0.499998 0
    outer loop
      vertex -37.6252 81.1688 5
      vertex -16.8406 117.169 0
      vertex -16.8406 117.169 5
    endloop
  endfacet
  facet normal 0.866027 -0.499998 0
    outer loop
      vertex -16.8406 117.169 0
      vertex -37.6252 81.1688 5
      vertex -37.6252 81.1688 0
    endloop
  endfacet
  facet normal 0.5 -0.866025 0
    outer loop
      vertex 59.1994 43.8013 0
      vertex 66.1276 47.8013 5
      vertex 59.1994 43.8013 5
    endloop
  endfacet
  facet normal 0.5 -0.866025 0
    outer loop
      vertex 66.1276 47.8013 5
      vertex 59.1994 43.8013 0
      vertex 66.1276 47.8013 0
    endloop
  endfacet
  facet normal 0.866025 0.500001 0
    outer loop
      vertex 66.1276 47.8013 5
      vertex 49.1722 77.1688 0
      vertex 49.1722 77.1688 5
    endloop
  endfacet
  facet normal 0.866025 0.500001 0
    outer loop
      vertex 49.1722 77.1688 0
      vertex 66.1276 47.8013 5
      vertex 66.1276 47.8013 0
    endloop
  endfacet
  facet normal 0.866027 0.499997 0
    outer loop
      vertex 44.5534 85.1688 5
      vertex 26.0782 117.169 0
      vertex 26.0782 117.169 5
    endloop
  endfacet
  facet normal 0.866027 0.499997 0
    outer loop
      vertex 26.0782 117.169 0
      vertex 44.5534 85.1688 5
      vertex 44.5534 85.1688 0
    endloop
  endfacet
  facet normal -0.866025 -0.500001 0
    outer loop
      vertex 59.1994 43.8013 0
      vertex 42.244 73.1688 5
      vertex 42.244 73.1688 0
    endloop
  endfacet
  facet normal -0.866025 -0.500001 0
    outer loop
      vertex 42.244 73.1688 5
      vertex 59.1994 43.8013 0
      vertex 59.1994 43.8013 5
    endloop
  endfacet
  facet normal -0.866027 -0.499998 0
    outer loop
      vertex 37.6252 81.1688 0
      vertex 16.8406 117.169 5
      vertex 16.8406 117.169 0
    endloop
  endfacet
  facet normal -0.866027 -0.499998 0
    outer loop
      vertex 16.8406 117.169 5
      vertex 37.6252 81.1688 0
      vertex 37.6252 81.1688 5
    endloop
  endfacet
  facet normal -0.866027 0.499997 0
    outer loop
      vertex 44.5534 85.1688 0
      vertex 63.0286 117.169 5
      vertex 63.0286 117.169 0
    endloop
  endfacet
  facet normal -0.866027 0.499997 0
    outer loop
      vertex 63.0286 117.169 5
      vertex 44.5534 85.1688 0
      vertex 44.5534 85.1688 5
    endloop
  endfacet
  facet normal 0.866027 -0.499998 0
    outer loop
      vertex 49.1722 77.1688 5
      vertex 72.2662 117.169 0
      vertex 72.2662 117.169 5
    endloop
  endfacet
  facet normal 0.866027 -0.499998 0
    outer loop
      vertex 72.2662 117.169 0
      vertex 49.1722 77.1688 5
      vertex 49.1722 77.1688 0
    endloop
  endfacet
  facet normal 0.866027 0.499997 0
    outer loop
      vertex -44.5534 85.1688 5
      vertex -63.0286 117.169 0
      vertex -63.0286 117.169 5
    endloop
  endfacet
  facet normal 0.866027 0.499997 0
    outer loop
      vertex -63.0286 117.169 0
      vertex -44.5534 85.1688 5
      vertex -44.5534 85.1688 0
    endloop
  endfacet
  facet normal -0.866027 -0.499998 0
    outer loop
      vertex -49.1722 77.1688 0
      vertex -72.2662 117.169 5
      vertex -72.2662 117.169 0
    endloop
  endfacet
  facet normal -0.866027 -0.499998 0
    outer loop
      vertex -72.2662 117.169 5
      vertex -49.1722 77.1688 0
      vertex -49.1722 77.1688 5
    endloop
  endfacet
endsolid OpenSCAD_Model
