solid OpenSCAD_Model
  facet normal 0 0 1
    outer loop
      vertex 71.9198 125.169 5
      vertex 63.0286 117.169 5
      vertex 69.8876 121.649 5
    endloop
  endfacet
  facet normal 0 0 1
    outer loop
      vertex 71.9198 125.169 5
      vertex 26.0782 117.169 5
      vertex 63.0286 117.169 5
    endloop
  endfacet
  facet normal 0 0 1
    outer loop
      vertex 71.9198 125.169 5
      vertex 16.8406 117.169 5
      vertex 26.0782 117.169 5
    endloop
  endfacet
  facet normal 0 0 1
    outer loop
      vertex 71.9198 125.169 5
      vertex -16.8406 117.169 5
      vertex 16.8406 117.169 5
    endloop
  endfacet
  facet normal -0 0 1
    outer loop
      vertex -71.9198 125.169 5
      vertex -16.8406 117.169 5
      vertex 71.9198 125.169 5
    endloop
  endfacet
  facet normal 0 0 1
    outer loop
      vertex -16.8406 117.169 5
      vertex -71.9198 125.169 5
      vertex -26.0782 117.169 5
    endloop
  endfacet
  facet normal 0 0 1
    outer loop
      vertex -26.0782 117.169 5
      vertex -71.9198 125.169 5
      vertex -63.0286 117.169 5
    endloop
  endfacet
  facet normal 0 0 1
    outer loop
      vertex -63.0286 117.169 5
      vertex -71.9198 125.169 5
      vertex -69.8876 121.649 5
    endloop
  endfacet
  facet normal -0 0 1
    outer loop
      vertex 72.6126 125.169 5
      vertex 77.6474 117.169 5
      vertex 77.6474 125.169 5
    endloop
  endfacet
  facet normal -0 0 1
    outer loop
      vertex 70.4072 121.349 5
      vertex 77.6474 117.169 5
      vertex 72.6126 125.169 5
    endloop
  endfacet
  facet normal 0 0 1
    outer loop
      vertex 77.6474 117.169 5
      vertex 70.4072 121.349 5
      vertex 71.6474 117.169 5
    endloop
  endfacet
  facet normal 0 0 1
    outer loop
      vertex 69.8876 121.649 5
      vertex 71.6474 117.169 5
      vertex 70.4072 121.349 5
    endloop
  endfacet
  facet normal 0 0 1
    outer loop
      vertex 63.0286 117.169 5
      vertex 71.6474 117.169 5
      vertex 69.8876 121.649 5
    endloop
  endfacet
  facet normal -0 0 1
    outer loop
      vertex 63.0286 117.169 5
      vertex 72.1115 116.901 5
      vertex 71.6474 117.169 5
    endloop
  endfacet
  facet normal 0 0 1
    outer loop
      vertex 44.5534 85.1688 5
      vertex 72.1115 116.901 5
      vertex 63.0286 117.169 5
    endloop
  endfacet
  facet normal 0 0 1
    outer loop
      vertex 72.1115 116.901 5
      vertex 44.5534 85.1688 5
      vertex 49.1722 77.1688 5
    endloop
  endfacet
  facet normal 0 0 1
    outer loop
      vertex 49.1722 77.1688 5
      vertex 59.1994 43.8013 5
      vertex 66.1276 47.8013 5
    endloop
  endfacet
  facet normal 0 0 1
    outer loop
      vertex 42.244 73.1688 5
      vertex 49.1722 77.1688 5
      vertex 44.5534 85.1688 5
    endloop
  endfacet
  facet normal 0 0 1
    outer loop
      vertex 49.1722 77.1688 5
      vertex 42.244 73.1688 5
      vertex 59.1994 43.8013 5
    endloop
  endfacet
  facet normal 0 0 1
    outer loop
      vertex 44.5534 85.1688 5
      vertex 37.6252 81.1688 5
      vertex 42.244 73.1688 5
    endloop
  endfacet
  facet normal 0 0 1
    outer loop
      vertex 26.0782 117.169 5
      vertex 37.6252 81.1688 5
      vertex 44.5534 85.1688 5
    endloop
  endfacet
  facet normal 0 0 1
    outer loop
      vertex 37.6252 81.1688 5
      vertex 26.0782 117.169 5
      vertex 16.8406 117.169 5
    endloop
  endfacet
  facet normal 0 0 1
    outer loop
      vertex -77.6474 117.169 5
      vertex -70.4072 121.349 5
      vertex -72.6126 125.169 5
    endloop
  endfacet
  facet normal 0 0 1
    outer loop
      vertex -77.6474 117.169 5
      vertex -72.6126 125.169 5
      vertex -77.6474 125.169 5
    endloop
  endfacet
  facet normal 0 0 1
    outer loop
      vertex -70.4072 121.349 5
      vertex -77.6474 117.169 5
      vertex -71.6474 117.169 5
    endloop
  endfacet
  facet normal -0 0 1
    outer loop
      vertex -72.1115 116.901 5
      vertex -44.5534 85.1688 5
      vertex -63.0286 117.169 5
    endloop
  endfacet
  facet normal 0 0 1
    outer loop
      vertex -71.6474 117.169 5
      vertex -63.0286 117.169 5
      vertex -69.8876 121.649 5
    endloop
  endfacet
  facet normal 0 0 1
    outer loop
      vertex -71.6474 117.169 5
      vertex -69.8876 121.649 5
      vertex -70.4072 121.349 5
    endloop
  endfacet
  facet normal 0 0 1
    outer loop
      vertex -72.1115 116.901 5
      vertex -63.0286 117.169 5
      vertex -71.6474 117.169 5
    endloop
  endfacet
  facet normal 0 0 1
    outer loop
      vertex -44.5534 85.1688 5
      vertex -72.1115 116.901 5
      vertex -49.1722 77.1688 5
    endloop
  endfacet
  facet normal -0 0 1
    outer loop
      vertex -37.6252 81.1688 5
      vertex 42.244 73.1688 5
      vertex 37.6252 81.1688 5
    endloop
  endfacet
  facet normal 0 0 1
    outer loop
      vertex 42.244 73.1688 5
      vertex -37.6252 81.1688 5
      vertex -42.244 73.1688 5
    endloop
  endfacet
  facet normal -0 0 1
    outer loop
      vertex -26.0782 117.169 5
      vertex -37.6252 81.1688 5
      vertex -16.8406 117.169 5
    endloop
  endfacet
  facet normal -0 0 1
    outer loop
      vertex -44.5534 85.1688 5
      vertex -37.6252 81.1688 5
      vertex -26.0782 117.169 5
    endloop
  endfacet
  facet normal 0 0 1
    outer loop
      vertex -37.6252 81.1688 5
      vertex -44.5534 85.1688 5
      vertex -42.244 73.1688 5
    endloop
  endfacet
  facet normal -0 0 1
    outer loop
      vertex -49.1722 77.1688 5
      vertex -42.244 73.1688 5
      vertex -44.5534 85.1688 5
    endloop
  endfacet
  facet normal 0 0 1
    outer loop
      vertex -49.1722 77.1688 5
      vertex -59.1994 43.8013 5
      vertex -42.244 73.1688 5
    endloop
  endfacet
  facet normal 0 -0 1
    outer loop
      vertex -59.1994 43.8013 5
      vertex -49.1722 77.1688 5
      vertex -66.1276 47.8013 5
    endloop
  endfacet
  facet normal 0 0 -1
    outer loop
      vertex -72.1115 116.901 0
      vertex -44.5534 85.1688 0
      vertex -49.1722 77.1688 0
    endloop
  endfacet
  facet normal 0 0 -1
    outer loop
      vertex -44.5534 85.1688 0
      vertex -72.1115 116.901 0
      vertex -63.0286 117.169 0
    endloop
  endfacet
  facet normal -0 0 -1
    outer loop
      vertex -63.0286 117.169 0
      vertex -72.1115 116.901 0
      vertex -71.6474 117.169 0
    endloop
  endfacet
  facet normal 0 0 -1
    outer loop
      vertex -37.6252 81.1688 0
      vertex -26.0782 117.169 0
      vertex -16.8406 117.169 0
    endloop
  endfacet
  facet normal 0 0 -1
    outer loop
      vertex -44.5534 85.1688 0
      vertex -37.6252 81.1688 0
      vertex -42.244 73.1688 0
    endloop
  endfacet
  facet normal 0 0 -1
    outer loop
      vertex -37.6252 81.1688 0
      vertex -44.5534 85.1688 0
      vertex -26.0782 117.169 0
    endloop
  endfacet
  facet normal 0 0 -1
    outer loop
      vertex -42.244 73.1688 0
      vertex -49.1722 77.1688 0
      vertex -44.5534 85.1688 0
    endloop
  endfacet
  facet normal 0 0 -1
    outer loop
      vertex -59.1994 43.8013 0
      vertex -49.1722 77.1688 0
      vertex -42.244 73.1688 0
    endloop
  endfacet
  facet normal 0 0 -1
    outer loop
      vertex -49.1722 77.1688 0
      vertex -59.1994 43.8013 0
      vertex -66.1276 47.8013 0
    endloop
  endfacet
  facet normal 0 0 -1
    outer loop
      vertex 42.244 73.1688 0
      vertex -37.6252 81.1688 0
      vertex 37.6252 81.1688 0
    endloop
  endfacet
  facet normal 0 -0 -1
    outer loop
      vertex -37.6252 81.1688 0
      vertex 42.244 73.1688 0
      vertex -42.244 73.1688 0
    endloop
  endfacet
  facet normal 0 0 -1
    outer loop
      vertex 59.1994 43.8013 0
      vertex 49.1722 77.1688 0
      vertex 66.1276 47.8013 0
    endloop
  endfacet
  facet normal 0 0 -1
    outer loop
      vertex 42.244 73.1688 0
      vertex 49.1722 77.1688 0
      vertex 59.1994 43.8013 0
    endloop
  endfacet
  facet normal -0 0 -1
    outer loop
      vertex 49.1722 77.1688 0
      vertex 42.244 73.1688 0
      vertex 44.5534 85.1688 0
    endloop
  endfacet
  facet normal 0 0 -1
    outer loop
      vertex 37.6252 81.1688 0
      vertex 44.5534 85.1688 0
      vertex 42.244 73.1688 0
    endloop
  endfacet
  facet normal 0 0 -1
    outer loop
      vertex 37.6252 81.1688 0
      vertex 26.0782 117.169 0
      vertex 44.5534 85.1688 0
    endloop
  endfacet
  facet normal -0 -0 -1
    outer loop
      vertex 26.0782 117.169 0
      vertex 37.6252 81.1688 0
      vertex 16.8406 117.169 0
    endloop
  endfacet
  facet normal 0 0 -1
    outer loop
      vertex 72.1115 116.901 0
      vertex 63.0286 117.169 0
      vertex 71.6474 117.169 0
    endloop
  endfacet
  facet normal 0 0 -1
    outer loop
      vertex 44.5534 85.1688 0
      vertex 72.1115 116.901 0
      vertex 49.1722 77.1688 0
    endloop
  endfacet
  facet normal -0 0 -1
    outer loop
      vertex 72.1115 116.901 0
      vertex 44.5534 85.1688 0
      vertex 63.0286 117.169 0
    endloop
  endfacet
  facet normal 0 0 -1
    outer loop
      vertex 71.6474 117.169 0
      vertex 77.6474 125.169 0
      vertex 77.6474 117.169 0
    endloop
  endfacet
  facet normal 0 0 -1
    outer loop
      vertex 63.0286 117.169 0
      vertex 77.6474 125.169 0
      vertex 71.6474 117.169 0
    endloop
  endfacet
  facet normal 0 0 -1
    outer loop
      vertex 26.0782 117.169 0
      vertex 77.6474 125.169 0
      vertex 63.0286 117.169 0
    endloop
  endfacet
  facet normal 0 0 -1
    outer loop
      vertex 16.8406 117.169 0
      vertex 77.6474 125.169 0
      vertex 26.0782 117.169 0
    endloop
  endfacet
  facet normal 0 0 -1
    outer loop
      vertex -16.8406 117.169 0
      vertex 77.6474 125.169 0
      vertex 16.8406 117.169 0
    endloop
  endfacet
  facet normal 0 0 -1
    outer loop
      vertex -77.6474 125.169 0
      vertex -16.8406 117.169 0
      vertex -26.0782 117.169 0
    endloop
  endfacet
  facet normal 0 0 -1
    outer loop
      vertex -77.6474 125.169 0
      vertex -26.0782 117.169 0
      vertex -63.0286 117.169 0
    endloop
  endfacet
  facet normal 0 0 -1
    outer loop
      vertex -77.6474 125.169 0
      vertex -63.0286 117.169 0
      vertex -71.6474 117.169 0
    endloop
  endfacet
  facet normal 0 0 -1
    outer loop
      vertex -77.6474 125.169 0
      vertex -71.6474 117.169 0
      vertex -77.6474 117.169 0
    endloop
  endfacet
  facet normal 0 0 -1
    outer loop
      vertex -16.8406 117.169 0
      vertex -77.6474 125.169 0
      vertex 77.6474 125.169 0
    endloop
  endfacet
  facet normal 0 1 -0
    outer loop
      vertex 37.6252 81.1688 0
      vertex -37.6252 81.1688 5
      vertex 37.6252 81.1688 5
    endloop
  endfacet
  facet normal 0 1 0
    outer loop
      vertex -37.6252 81.1688 5
      vertex 37.6252 81.1688 0
      vertex -37.6252 81.1688 0
    endloop
  endfacet
  facet normal 0 -1 0
    outer loop
      vertex -42.244 73.1688 0
      vertex 42.244 73.1688 5
      vertex -42.244 73.1688 5
    endloop
  endfacet
  facet normal 0 -1 -0
    outer loop
      vertex 42.244 73.1688 5
      vertex -42.244 73.1688 0
      vertex 42.244 73.1688 0
    endloop
  endfacet
  facet normal 1 -0 0
    outer loop
      vertex 77.6474 117.169 5
      vertex 77.6474 125.169 0
      vertex 77.6474 125.169 5
    endloop
  endfacet
  facet normal 1 0 0
    outer loop
      vertex 77.6474 125.169 0
      vertex 77.6474 117.169 5
      vertex 77.6474 117.169 0
    endloop
  endfacet
  facet normal -1 0 0
    outer loop
      vertex -77.6474 117.169 0
      vertex -77.6474 125.169 5
      vertex -77.6474 125.169 0
    endloop
  endfacet
  facet normal -1 -0 0
    outer loop
      vertex -77.6474 125.169 5
      vertex -77.6474 117.169 0
      vertex -77.6474 117.169 5
    endloop
  endfacet
  facet normal 0 1 0
    outer loop
      vertex 77.6474 125.169 5
      vertex 72.6126 125.169 4
      vertex 72.6126 125.169 5
    endloop
  endfacet
  facet normal 0 1 0
    outer loop
      vertex 77.6474 125.169 0
      vertex 71.9198 125.169 4
      vertex 72.6126 125.169 4
    endloop
  endfacet
  facet normal 0 1 0
    outer loop
      vertex 71.9198 125.169 4
      vertex 77.6474 125.169 0
      vertex -71.9198 125.169 4
    endloop
  endfacet
  facet normal 0 1 0
    outer loop
      vertex -77.6474 125.169 0
      vertex -71.9198 125.169 4
      vertex 77.6474 125.169 0
    endloop
  endfacet
  facet normal 0 1 -0
    outer loop
      vertex 77.6474 125.169 0
      vertex 72.6126 125.169 4
      vertex 77.6474 125.169 5
    endloop
  endfacet
  facet normal 0 1 -0
    outer loop
      vertex 71.9198 125.169 4
      vertex -71.9198 125.169 5
      vertex 71.9198 125.169 5
    endloop
  endfacet
  facet normal 0 1 0
    outer loop
      vertex -71.9198 125.169 5
      vertex 71.9198 125.169 4
      vertex -71.9198 125.169 4
    endloop
  endfacet
  facet normal 0 1 -0
    outer loop
      vertex -72.6126 125.169 4
      vertex -77.6474 125.169 5
      vertex -72.6126 125.169 5
    endloop
  endfacet
  facet normal 0 1 0
    outer loop
      vertex -72.6126 125.169 4
      vertex -77.6474 125.169 0
      vertex -77.6474 125.169 5
    endloop
  endfacet
  facet normal 0 1 0
    outer loop
      vertex -71.9198 125.169 4
      vertex -77.6474 125.169 0
      vertex -72.6126 125.169 4
    endloop
  endfacet
  facet normal 0 -1 0
    outer loop
      vertex -77.6474 117.169 0
      vertex -71.6474 117.169 5
      vertex -77.6474 117.169 5
    endloop
  endfacet
  facet normal 0 -1 -0
    outer loop
      vertex -71.6474 117.169 5
      vertex -77.6474 117.169 0
      vertex -71.6474 117.169 0
    endloop
  endfacet
  facet normal 0 -1 0
    outer loop
      vertex 71.6474 117.169 0
      vertex 77.6474 117.169 5
      vertex 71.6474 117.169 5
    endloop
  endfacet
  facet normal 0 -1 -0
    outer loop
      vertex 77.6474 117.169 5
      vertex 71.6474 117.169 0
      vertex 77.6474 117.169 0
    endloop
  endfacet
  facet normal 0 -1 0
    outer loop
      vertex -63.0286 117.169 0
      vertex -26.0782 117.169 5
      vertex -63.0286 117.169 5
    endloop
  endfacet
  facet normal 0 -1 -0
    outer loop
      vertex -26.0782 117.169 5
      vertex -63.0286 117.169 0
      vertex -26.0782 117.169 0
    endloop
  endfacet
  facet normal 0 -1 0
    outer loop
      vertex -16.8406 117.169 0
      vertex 16.8406 117.169 5
      vertex -16.8406 117.169 5
    endloop
  endfacet
  facet normal 0 -1 -0
    outer loop
      vertex 16.8406 117.169 5
      vertex -16.8406 117.169 0
      vertex 16.8406 117.169 0
    endloop
  endfacet
  facet normal 0 -1 0
    outer loop
      vertex 26.0782 117.169 0
      vertex 63.0286 117.169 5
      vertex 26.0782 117.169 5
    endloop
  endfacet
  facet normal 0 -1 -0
    outer loop
      vertex 63.0286 117.169 5
      vertex 26.0782 117.169 0
      vertex 63.0286 117.169 0
    endloop
  endfacet
  facet normal -0.5 -0.866025 0
    outer loop
      vertex -66.1276 47.8013 0
      vertex -59.1994 43.8013 5
      vertex -66.1276 47.8013 5
    endloop
  endfacet
  facet normal -0.5 -0.866025 -0
    outer loop
      vertex -59.1994 43.8013 5
      vertex -66.1276 47.8013 0
      vertex -59.1994 43.8013 0
    endloop
  endfacet
  facet normal -0.866025 0.500001 0
    outer loop
      vertex -66.1276 47.8013 0
      vertex -49.1722 77.1688 5
      vertex -49.1722 77.1688 0
    endloop
  endfacet
  facet normal -0.866025 0.500001 0
    outer loop
      vertex -49.1722 77.1688 5
      vertex -66.1276 47.8013 0
      vertex -66.1276 47.8013 5
    endloop
  endfacet
  facet normal -0.866027 0.499997 0
    outer loop
      vertex -44.5534 85.1688 0
      vertex -26.0782 117.169 5
      vertex -26.0782 117.169 0
    endloop
  endfacet
  facet normal -0.866027 0.499997 0
    outer loop
      vertex -26.0782 117.169 5
      vertex -44.5534 85.1688 0
      vertex -44.5534 85.1688 5
    endloop
  endfacet
  facet normal 0.866025 -0.500001 0
    outer loop
      vertex -59.1994 43.8013 5
      vertex -42.244 73.1688 0
      vertex -42.244 73.1688 5
    endloop
  endfacet
  facet normal 0.866025 -0.500001 0
    outer loop
      vertex -42.244 73.1688 0
      vertex -59.1994 43.8013 5
      vertex -59.1994 43.8013 0
    endloop
  endfacet
  facet normal 0.866027 -0.499998 0
    outer loop
      vertex -37.6252 81.1688 5
      vertex -16.8406 117.169 0
      vertex -16.8406 117.169 5
    endloop
  endfacet
  facet normal 0.866027 -0.499998 0
    outer loop
      vertex -16.8406 117.169 0
      vertex -37.6252 81.1688 5
      vertex -37.6252 81.1688 0
    endloop
  endfacet
  facet normal 0.5 -0.866025 0
    outer loop
      vertex 59.1994 43.8013 0
      vertex 66.1276 47.8013 5
      vertex 59.1994 43.8013 5
    endloop
  endfacet
  facet normal 0.5 -0.866025 0
    outer loop
      vertex 66.1276 47.8013 5
      vertex 59.1994 43.8013 0
      vertex 66.1276 47.8013 0
    endloop
  endfacet
  facet normal 0.866025 0.500001 0
    outer loop
      vertex 66.1276 47.8013 5
      vertex 49.1722 77.1688 0
      vertex 49.1722 77.1688 5
    endloop
  endfacet
  facet normal 0.866025 0.500001 0
    outer loop
      vertex 49.1722 77.1688 0
      vertex 66.1276 47.8013 5
      vertex 66.1276 47.8013 0
    endloop
  endfacet
  facet normal 0.866027 0.499997 0
    outer loop
      vertex 44.5534 85.1688 5
      vertex 26.0782 117.169 0
      vertex 26.0782 117.169 5
    endloop
  endfacet
  facet normal 0.866027 0.499997 0
    outer loop
      vertex 26.0782 117.169 0
      vertex 44.5534 85.1688 5
      vertex 44.5534 85.1688 0
    endloop
  endfacet
  facet normal -0.866025 -0.500001 0
    outer loop
      vertex 59.1994 43.8013 0
      vertex 42.244 73.1688 5
      vertex 42.244 73.1688 0
    endloop
  endfacet
  facet normal -0.866025 -0.500001 0
    outer loop
      vertex 42.244 73.1688 5
      vertex 59.1994 43.8013 0
      vertex 59.1994 43.8013 5
    endloop
  endfacet
  facet normal -0.866027 -0.499998 0
    outer loop
      vertex 37.6252 81.1688 0
      vertex 16.8406 117.169 5
      vertex 16.8406 117.169 0
    endloop
  endfacet
  facet normal -0.866027 -0.499998 0
    outer loop
      vertex 16.8406 117.169 5
      vertex 37.6252 81.1688 0
      vertex 37.6252 81.1688 5
    endloop
  endfacet
  facet normal 0.500072 0.865984 -0
    outer loop
      vertex 72.1115 116.901 0
      vertex 71.6474 117.169 5
      vertex 72.1115 116.901 5
    endloop
  endfacet
  facet normal 0.500072 0.865984 0
    outer loop
      vertex 71.6474 117.169 5
      vertex 72.1115 116.901 0
      vertex 71.6474 117.169 0
    endloop
  endfacet
  facet normal -0.866027 0.499997 0
    outer loop
      vertex 44.5534 85.1688 0
      vertex 63.0286 117.169 5
      vertex 63.0286 117.169 0
    endloop
  endfacet
  facet normal -0.866027 0.499997 0
    outer loop
      vertex 63.0286 117.169 5
      vertex 44.5534 85.1688 0
      vertex 44.5534 85.1688 5
    endloop
  endfacet
  facet normal 0.866026 -0.499998 0
    outer loop
      vertex 49.1722 77.1688 5
      vertex 72.1115 116.901 0
      vertex 72.1115 116.901 5
    endloop
  endfacet
  facet normal 0.866026 -0.499998 0
    outer loop
      vertex 72.1115 116.901 0
      vertex 49.1722 77.1688 5
      vertex 49.1722 77.1688 0
    endloop
  endfacet
  facet normal -0.500072 0.865984 0
    outer loop
      vertex -71.6474 117.169 0
      vertex -72.1115 116.901 5
      vertex -71.6474 117.169 5
    endloop
  endfacet
  facet normal -0.500072 0.865984 0
    outer loop
      vertex -72.1115 116.901 5
      vertex -71.6474 117.169 0
      vertex -72.1115 116.901 0
    endloop
  endfacet
  facet normal 0.866027 0.499997 0
    outer loop
      vertex -44.5534 85.1688 5
      vertex -63.0286 117.169 0
      vertex -63.0286 117.169 5
    endloop
  endfacet
  facet normal 0.866027 0.499997 0
    outer loop
      vertex -63.0286 117.169 0
      vertex -44.5534 85.1688 5
      vertex -44.5534 85.1688 0
    endloop
  endfacet
  facet normal -0.866026 -0.499998 0
    outer loop
      vertex -49.1722 77.1688 0
      vertex -72.1115 116.901 5
      vertex -72.1115 116.901 0
    endloop
  endfacet
  facet normal -0.866026 -0.499998 0
    outer loop
      vertex -72.1115 116.901 5
      vertex -49.1722 77.1688 0
      vertex -49.1722 77.1688 5
    endloop
  endfacet
  facet normal 0.500011 0.866019 -0
    outer loop
      vertex 70.4072 121.349 4
      vertex 69.8876 121.649 5
      vertex 70.4072 121.349 5
    endloop
  endfacet
  facet normal 0.500011 0.866019 0
    outer loop
      vertex 69.8876 121.649 5
      vertex 70.4072 121.349 4
      vertex 69.8876 121.649 4
    endloop
  endfacet
  facet normal 0.866033 -0.499987 0
    outer loop
      vertex 69.8876 121.649 5
      vertex 71.9198 125.169 4
      vertex 71.9198 125.169 5
    endloop
  endfacet
  facet normal 0.866033 -0.499987 0
    outer loop
      vertex 71.9198 125.169 4
      vertex 69.8876 121.649 5
      vertex 69.8876 121.649 4
    endloop
  endfacet
  facet normal -0 0 1
    outer loop
      vertex 71.9198 125.169 4
      vertex 70.4072 121.349 4
      vertex 72.6126 125.169 4
    endloop
  endfacet
  facet normal 0 -0 1
    outer loop
      vertex 70.4072 121.349 4
      vertex 71.9198 125.169 4
      vertex 69.8876 121.649 4
    endloop
  endfacet
  facet normal -0.866033 0.499987 0
    outer loop
      vertex 70.4072 121.349 4
      vertex 72.6126 125.169 5
      vertex 72.6126 125.169 4
    endloop
  endfacet
  facet normal -0.866033 0.499987 0
    outer loop
      vertex 72.6126 125.169 5
      vertex 70.4072 121.349 4
      vertex 70.4072 121.349 5
    endloop
  endfacet
  facet normal -0.500011 0.866019 0
    outer loop
      vertex -69.8876 121.649 4
      vertex -70.4072 121.349 5
      vertex -69.8876 121.649 5
    endloop
  endfacet
  facet normal -0.500011 0.866019 0
    outer loop
      vertex -70.4072 121.349 5
      vertex -69.8876 121.649 4
      vertex -70.4072 121.349 4
    endloop
  endfacet
  facet normal 0 0 1
    outer loop
      vertex -71.9198 125.169 4
      vertex -70.4072 121.349 4
      vertex -69.8876 121.649 4
    endloop
  endfacet
  facet normal 0 0 1
    outer loop
      vertex -70.4072 121.349 4
      vertex -71.9198 125.169 4
      vertex -72.6126 125.169 4
    endloop
  endfacet
  facet normal -0.866033 -0.499987 0
    outer loop
      vertex -69.8876 121.649 4
      vertex -71.9198 125.169 5
      vertex -71.9198 125.169 4
    endloop
  endfacet
  facet normal -0.866033 -0.499987 0
    outer loop
      vertex -71.9198 125.169 5
      vertex -69.8876 121.649 4
      vertex -69.8876 121.649 5
    endloop
  endfacet
  facet normal 0.866033 0.499987 0
    outer loop
      vertex -70.4072 121.349 5
      vertex -72.6126 125.169 4
      vertex -72.6126 125.169 5
    endloop
  endfacet
  facet normal 0.866033 0.499987 0
    outer loop
      vertex -72.6126 125.169 4
      vertex -70.4072 121.349 5
      vertex -70.4072 121.349 4
    endloop
  endfacet
endsolid OpenSCAD_Model
