solid OpenSCAD_Model
  facet normal -0.866025 -0.500001 0
    outer loop
      vertex 136.795 2.59808 0
      vertex 69.1474 119.767 2
      vertex 69.1474 119.767 0
    endloop
  endfacet
  facet normal -0.866025 -0.500001 0
    outer loop
      vertex 69.1474 119.767 2
      vertex 136.795 2.59808 0
      vertex 136.795 2.59808 2
    endloop
  endfacet
  facet normal -0 0 1
    outer loop
      vertex 69.1474 119.767 2
      vertex 141.795 11.2583 2
      vertex 74.1474 128.427 2
    endloop
  endfacet
  facet normal 0 0 1
    outer loop
      vertex 141.795 11.2583 2
      vertex 69.1474 119.767 2
      vertex 136.795 2.59808 2
    endloop
  endfacet
  facet normal -0 0 1
    outer loop
      vertex -61.1474 128.427 2
      vertex 69.1474 119.767 2
      vertex 74.1474 128.427 2
    endloop
  endfacet
  facet normal 0 0 1
    outer loop
      vertex 69.1474 119.767 2
      vertex -61.1474 128.427 2
      vertex -66.1474 119.767 2
    endloop
  endfacet
  facet normal 0 0 -1
    outer loop
      vertex 69.1474 119.767 0
      vertex 139.795 7.79423 0
      vertex 136.795 2.59808 0
    endloop
  endfacet
  facet normal 0 0 -1
    outer loop
      vertex 139.795 7.79423 0
      vertex 69.1474 119.767 0
      vertex 72.1474 124.963 0
    endloop
  endfacet
  facet normal 0 0 -1
    outer loop
      vertex 69.1474 119.767 0
      vertex -63.1474 124.963 0
      vertex 72.1474 124.963 0
    endloop
  endfacet
  facet normal 0 -0 -1
    outer loop
      vertex -63.1474 124.963 0
      vertex 69.1474 119.767 0
      vertex -66.1474 119.767 0
    endloop
  endfacet
  facet normal -0.866025 -0.500001 0
    outer loop
      vertex 139.795 7.79423 -4
      vertex 72.1474 124.963 0
      vertex 72.1474 124.963 -4
    endloop
  endfacet
  facet normal -0.866025 -0.500001 0
    outer loop
      vertex 72.1474 124.963 0
      vertex 139.795 7.79423 -4
      vertex 139.795 7.79423 0
    endloop
  endfacet
  facet normal 0 0 -1
    outer loop
      vertex 72.1474 124.963 -4
      vertex 141.795 11.2583 -4
      vertex 139.795 7.79423 -4
    endloop
  endfacet
  facet normal 0 0 -1
    outer loop
      vertex 141.795 11.2583 -4
      vertex 72.1474 124.963 -4
      vertex 74.1474 128.427 -4
    endloop
  endfacet
  facet normal 0 0 -1
    outer loop
      vertex 72.1474 124.963 -4
      vertex -61.1474 128.427 -4
      vertex 74.1474 128.427 -4
    endloop
  endfacet
  facet normal 0 -0 -1
    outer loop
      vertex -61.1474 128.427 -4
      vertex 72.1474 124.963 -4
      vertex -63.1474 124.963 -4
    endloop
  endfacet
  facet normal 0.866023 -0.500003 0
    outer loop
      vertex 141.795 11.2583 2
      vertex 139.795 7.79423 0
      vertex 141.795 11.2583 -4
    endloop
  endfacet
  facet normal 0.866025 -0.500001 -4.50001e-06
    outer loop
      vertex 136.795 2.59808 2
      vertex 139.795 7.79423 0
      vertex 141.795 11.2583 2
    endloop
  endfacet
  facet normal 0.866025 -0.5 0
    outer loop
      vertex 139.795 7.79423 0
      vertex 136.795 2.59808 2
      vertex 136.795 2.59808 0
    endloop
  endfacet
  facet normal 0.866023 -0.500003 0
    outer loop
      vertex 141.795 11.2583 -4
      vertex 139.795 7.79423 0
      vertex 139.795 7.79423 -4
    endloop
  endfacet
  facet normal 0.866025 0.500001 0
    outer loop
      vertex 141.795 11.2583 2
      vertex 74.1474 128.427 -4
      vertex 74.1474 128.427 2
    endloop
  endfacet
  facet normal 0.866025 0.500001 0
    outer loop
      vertex 74.1474 128.427 -4
      vertex 141.795 11.2583 2
      vertex 141.795 11.2583 -4
    endloop
  endfacet
  facet normal 0 -1 0
    outer loop
      vertex -66.1474 119.767 0
      vertex 69.1474 119.767 2
      vertex -66.1474 119.767 2
    endloop
  endfacet
  facet normal 0 -1 -0
    outer loop
      vertex 69.1474 119.767 2
      vertex -66.1474 119.767 0
      vertex 69.1474 119.767 0
    endloop
  endfacet
  facet normal 0 -1 0
    outer loop
      vertex -63.1474 124.963 -4
      vertex 72.1474 124.963 0
      vertex -63.1474 124.963 0
    endloop
  endfacet
  facet normal 0 -1 -0
    outer loop
      vertex 72.1474 124.963 0
      vertex -63.1474 124.963 -4
      vertex 72.1474 124.963 -4
    endloop
  endfacet
  facet normal -0.866019 0.500011 0
    outer loop
      vertex -63.1474 124.963 0
      vertex -61.1474 128.427 -4
      vertex -63.1474 124.963 -4
    endloop
  endfacet
  facet normal -0.866019 0.500011 0
    outer loop
      vertex -61.1474 128.427 -4
      vertex -63.1474 124.963 0
      vertex -61.1474 128.427 2
    endloop
  endfacet
  facet normal -0.866019 0.500011 0
    outer loop
      vertex -66.1474 119.767 2
      vertex -63.1474 124.963 0
      vertex -66.1474 119.767 0
    endloop
  endfacet
  facet normal -0.866019 0.500011 -1.24348e-15
    outer loop
      vertex -63.1474 124.963 0
      vertex -66.1474 119.767 2
      vertex -61.1474 128.427 2
    endloop
  endfacet
  facet normal 0 1 -0
    outer loop
      vertex 74.1474 128.427 -4
      vertex -61.1474 128.427 2
      vertex 74.1474 128.427 2
    endloop
  endfacet
  facet normal 0 1 0
    outer loop
      vertex -61.1474 128.427 2
      vertex 74.1474 128.427 -4
      vertex -61.1474 128.427 -4
    endloop
  endfacet
endsolid OpenSCAD_Model
