solid OpenSCAD_Model
  facet normal -1 0 0
    outer loop
      vertex 3.5 48.194 20
      vertex 3.5 57.8048 20.1975
      vertex 3.5 57.9233 20
    endloop
  endfacet
  facet normal -1 -0 0
    outer loop
      vertex 3.5 57.8048 20.1975
      vertex 3.5 48.194 20
      vertex 3.5 55.6309 23.8207
    endloop
  endfacet
  facet normal -1 -0 0
    outer loop
      vertex 3.5 55.6309 23.8207
      vertex 3.5 48.194 20
      vertex 3.5 54.9205 25
    endloop
  endfacet
  facet normal -1 -0 0
    outer loop
      vertex 3.5 54.9205 25
      vertex 3.5 48.194 20
      vertex 3.5 48.194 25
    endloop
  endfacet
  facet normal 0 0 -1
    outer loop
      vertex -43.4858 -21.0651 25
      vertex -44.9392 -17.7927 25
      vertex -43.8003 20.4244 25
    endloop
  endfacet
  facet normal 0 0 -1
    outer loop
      vertex -44.9392 -17.7927 25
      vertex -44.9392 17.7927 25
      vertex -43.8003 20.4244 25
    endloop
  endfacet
  facet normal 0 0 -1
    outer loop
      vertex -45.9677 -14.9358 25
      vertex -44.9392 17.7927 25
      vertex -44.9392 -17.7927 25
    endloop
  endfacet
  facet normal 0 0 -1
    outer loop
      vertex -45.9677 -14.9358 25
      vertex -45.9677 14.9358 25
      vertex -44.9392 17.7927 25
    endloop
  endfacet
  facet normal 0 0 -1
    outer loop
      vertex -46.8149 -12.02 25
      vertex -45.9677 14.9358 25
      vertex -45.9677 -14.9358 25
    endloop
  endfacet
  facet normal 0 0 -1
    outer loop
      vertex -46.8149 -12.02 25
      vertex -46.8149 12.02 25
      vertex -45.9677 14.9358 25
    endloop
  endfacet
  facet normal 0 0 -1
    outer loop
      vertex -47.4772 -9.05676 25
      vertex -46.8149 12.02 25
      vertex -46.8149 -12.02 25
    endloop
  endfacet
  facet normal 0 0 -1
    outer loop
      vertex -47.4772 -9.05676 25
      vertex -47.4772 9.05676 25
      vertex -46.8149 12.02 25
    endloop
  endfacet
  facet normal 0 0 -1
    outer loop
      vertex -47.9522 -6.05777 25
      vertex -47.4772 9.05676 25
      vertex -47.4772 -9.05676 25
    endloop
  endfacet
  facet normal 0 0 -1
    outer loop
      vertex -47.9522 -6.05777 25
      vertex -47.9522 6.05777 25
      vertex -47.4772 9.05676 25
    endloop
  endfacet
  facet normal 0 0 -1
    outer loop
      vertex -48.238 -3.03487 25
      vertex -47.9522 6.05777 25
      vertex -47.9522 -6.05777 25
    endloop
  endfacet
  facet normal 0 0 -1
    outer loop
      vertex -48.238 -3.03487 25
      vertex -48.238 3.03487 25
      vertex -47.9522 6.05777 25
    endloop
  endfacet
  facet normal 0 -0 -1
    outer loop
      vertex -48.238 3.03487 25
      vertex -48.238 -3.03487 25
      vertex -48.3333 0 25
    endloop
  endfacet
  facet normal 0 0 -1
    outer loop
      vertex 39.5767 27.7119 25
      vertex 45.7924 -30.4797 25
      vertex 39.9773 -27.1224 25
    endloop
  endfacet
  facet normal 0 0 -1
    outer loop
      vertex 45.7924 -30.4797 25
      vertex 39.5767 27.7119 25
      vertex 45.0628 31.5533 25
    endloop
  endfacet
  facet normal 0 0 -1
    outer loop
      vertex 37.2415 -30.8088 25
      vertex 39.9773 -27.1224 25
      vertex 39.1025 -28.4096 25
    endloop
  endfacet
  facet normal -0 0 -1
    outer loop
      vertex 39.9773 -27.1224 25
      vertex 37.2415 -30.8088 25
      vertex 39.5767 27.7119 25
    endloop
  endfacet
  facet normal 0 0 -1
    outer loop
      vertex 37.2415 30.8088 25
      vertex 39.5767 27.7119 25
      vertex 37.2415 -30.8088 25
    endloop
  endfacet
  facet normal 0 0 -1
    outer loop
      vertex 39.5767 27.7119 25
      vertex 37.2415 30.8088 25
      vertex 39.1025 28.4096 25
    endloop
  endfacet
  facet normal 0 0 -1
    outer loop
      vertex 35.2335 -33.0864 25
      vertex 37.2415 30.8088 25
      vertex 37.2415 -30.8088 25
    endloop
  endfacet
  facet normal 0 0 -1
    outer loop
      vertex 35.2335 -33.0864 25
      vertex 35.2335 33.0864 25
      vertex 37.2415 30.8088 25
    endloop
  endfacet
  facet normal 0 0 -1
    outer loop
      vertex 33.0864 -35.2335 25
      vertex 35.2335 33.0864 25
      vertex 35.2335 -33.0864 25
    endloop
  endfacet
  facet normal 0 0 -1
    outer loop
      vertex 33.0864 -35.2335 25
      vertex 33.0864 35.2335 25
      vertex 35.2335 33.0864 25
    endloop
  endfacet
  facet normal 0 0 -1
    outer loop
      vertex 30.8088 -37.2415 25
      vertex 33.0864 35.2335 25
      vertex 33.0864 -35.2335 25
    endloop
  endfacet
  facet normal 0 0 -1
    outer loop
      vertex 30.8088 -37.2415 25
      vertex 30.8088 37.2415 25
      vertex 33.0864 35.2335 25
    endloop
  endfacet
  facet normal 0 0 -1
    outer loop
      vertex 28.4096 -39.1025 25
      vertex 30.8088 37.2415 25
      vertex 30.8088 -37.2415 25
    endloop
  endfacet
  facet normal 0 0 -1
    outer loop
      vertex 28.4096 -39.1025 25
      vertex 28.4096 39.1025 25
      vertex 30.8088 37.2415 25
    endloop
  endfacet
  facet normal 0 0 -1
    outer loop
      vertex 25.8983 -40.8092 25
      vertex 28.4096 39.1025 25
      vertex 28.4096 -39.1025 25
    endloop
  endfacet
  facet normal 0 0 -1
    outer loop
      vertex 25.8983 -40.8092 25
      vertex 25.8983 40.8092 25
      vertex 28.4096 39.1025 25
    endloop
  endfacet
  facet normal 0 0 -1
    outer loop
      vertex 23.2848 -42.3548 25
      vertex 25.8983 40.8092 25
      vertex 25.8983 -40.8092 25
    endloop
  endfacet
  facet normal 0 0 -1
    outer loop
      vertex 23.2848 -42.3548 25
      vertex 23.2848 42.3548 25
      vertex 25.8983 40.8092 25
    endloop
  endfacet
  facet normal 0 0 -1
    outer loop
      vertex 20.5793 -43.7333 25
      vertex 23.2848 42.3548 25
      vertex 23.2848 -42.3548 25
    endloop
  endfacet
  facet normal 0 0 -1
    outer loop
      vertex 20.5793 -43.7333 25
      vertex 20.5793 43.7333 25
      vertex 23.2848 42.3548 25
    endloop
  endfacet
  facet normal 0 0 -1
    outer loop
      vertex 17.7927 -44.9392 25
      vertex 20.5793 43.7333 25
      vertex 20.5793 -43.7333 25
    endloop
  endfacet
  facet normal 0 0 -1
    outer loop
      vertex 17.7927 -44.9392 25
      vertex 17.7927 44.9392 25
      vertex 20.5793 43.7333 25
    endloop
  endfacet
  facet normal 0 0 -1
    outer loop
      vertex 14.9358 -45.9677 25
      vertex 17.7927 44.9392 25
      vertex 17.7927 -44.9392 25
    endloop
  endfacet
  facet normal 0 0 -1
    outer loop
      vertex 14.9358 -45.9677 25
      vertex 14.9358 45.9677 25
      vertex 17.7927 44.9392 25
    endloop
  endfacet
  facet normal 0 0 -1
    outer loop
      vertex 12.02 -46.8149 25
      vertex 14.9358 45.9677 25
      vertex 14.9358 -45.9677 25
    endloop
  endfacet
  facet normal 0 0 -1
    outer loop
      vertex 12.02 -46.8149 25
      vertex 12.02 46.8149 25
      vertex 14.9358 45.9677 25
    endloop
  endfacet
  facet normal 0 0 -1
    outer loop
      vertex 9.05676 -47.4772 25
      vertex 12.02 46.8149 25
      vertex 12.02 -46.8149 25
    endloop
  endfacet
  facet normal 0 0 -1
    outer loop
      vertex 9.05676 -47.4772 25
      vertex 9.05676 47.4772 25
      vertex 12.02 46.8149 25
    endloop
  endfacet
  facet normal 0 0 -1
    outer loop
      vertex 4.21055 -48.1268 25
      vertex 9.05676 -47.4772 25
      vertex 6.05777 -47.9522 25
    endloop
  endfacet
  facet normal -0 0 -1
    outer loop
      vertex 9.05676 -47.4772 25
      vertex 4.21055 -48.1268 25
      vertex 9.05676 47.4772 25
    endloop
  endfacet
  facet normal -0 0 -1
    outer loop
      vertex 9.05676 47.4772 25
      vertex 4.21055 -48.1268 25
      vertex 6.05777 47.9522 25
    endloop
  endfacet
  facet normal -0 0 -1
    outer loop
      vertex 6.05777 47.9522 25
      vertex 4.21055 -48.1268 25
      vertex 3.5 48.194 25
    endloop
  endfacet
  facet normal 0 0 -1
    outer loop
      vertex 45.7924 -30.4797 25
      vertex 108.333 0 25
      vertex 54.1667 -93.8194 25
    endloop
  endfacet
  facet normal 0 0 -1
    outer loop
      vertex 45.0628 31.5533 25
      vertex 108.333 0 25
      vertex 45.7924 -30.4797 25
    endloop
  endfacet
  facet normal 0 0 -1
    outer loop
      vertex 54.1667 -93.8194 25
      vertex 44.5229 -32.3478 25
      vertex 45.7924 -30.4797 25
    endloop
  endfacet
  facet normal 0 0 -1
    outer loop
      vertex 54.1667 -93.8194 25
      vertex 42.4039 -35.0796 25
      vertex 44.5229 -32.3478 25
    endloop
  endfacet
  facet normal 0 0 -1
    outer loop
      vertex 54.1667 -93.8194 25
      vertex 40.1176 -37.6729 25
      vertex 42.4039 -35.0796 25
    endloop
  endfacet
  facet normal 0 0 -1
    outer loop
      vertex 54.1667 -93.8194 25
      vertex 37.6729 -40.1176 25
      vertex 40.1176 -37.6729 25
    endloop
  endfacet
  facet normal 0 0 -1
    outer loop
      vertex 54.1667 -93.8194 25
      vertex 35.0796 -42.4039 25
      vertex 37.6729 -40.1176 25
    endloop
  endfacet
  facet normal 0 0 -1
    outer loop
      vertex 54.1667 -93.8194 25
      vertex 32.3478 -44.5229 25
      vertex 35.0796 -42.4039 25
    endloop
  endfacet
  facet normal 0 0 -1
    outer loop
      vertex 54.1667 -93.8194 25
      vertex 29.4883 -46.4662 25
      vertex 32.3478 -44.5229 25
    endloop
  endfacet
  facet normal 0 0 -1
    outer loop
      vertex 54.1667 -93.8194 25
      vertex 26.5125 -48.2261 25
      vertex 29.4883 -46.4662 25
    endloop
  endfacet
  facet normal 0 0 -1
    outer loop
      vertex 54.1667 -93.8194 25
      vertex 23.4321 -49.7956 25
      vertex 26.5125 -48.2261 25
    endloop
  endfacet
  facet normal 0 0 -1
    outer loop
      vertex 54.1667 -93.8194 25
      vertex 20.2591 -51.1687 25
      vertex 23.4321 -49.7956 25
    endloop
  endfacet
  facet normal 0 0 -1
    outer loop
      vertex 54.1667 -93.8194 25
      vertex 17.0062 -52.3398 25
      vertex 20.2591 -51.1687 25
    endloop
  endfacet
  facet normal 0 0 -1
    outer loop
      vertex 54.1667 -93.8194 25
      vertex 13.6862 -53.3044 25
      vertex 17.0062 -52.3398 25
    endloop
  endfacet
  facet normal 0 0 -1
    outer loop
      vertex 54.1667 -93.8194 25
      vertex 10.3122 -54.0585 25
      vertex 13.6862 -53.3044 25
    endloop
  endfacet
  facet normal 0 0 -1
    outer loop
      vertex 54.1667 -93.8194 25
      vertex 6.8975 -54.5994 25
      vertex 10.3122 -54.0585 25
    endloop
  endfacet
  facet normal 0 0 -1
    outer loop
      vertex 54.1667 -93.8194 25
      vertex 4.79422 -54.7982 25
      vertex 6.8975 -54.5994 25
    endloop
  endfacet
  facet normal 0 0 -1
    outer loop
      vertex -43.8003 20.4244 25
      vertex 3.5 48.194 25
      vertex -43.4858 -21.0651 25
    endloop
  endfacet
  facet normal 0 0 -1
    outer loop
      vertex 4.21055 -48.1268 25
      vertex -43.4858 -21.0651 25
      vertex 3.5 48.194 25
    endloop
  endfacet
  facet normal 0 0 -1
    outer loop
      vertex -49.2933 -24.418 25
      vertex 4.21055 -48.1268 25
      vertex 4.79422 -54.7982 25
    endloop
  endfacet
  facet normal 0 0 -1
    outer loop
      vertex -54.1667 -93.8194 25
      vertex 4.79422 -54.7982 25
      vertex 54.1667 -93.8194 25
    endloop
  endfacet
  facet normal 0 -0 -1
    outer loop
      vertex -49.2933 -24.418 25
      vertex 4.79422 -54.7982 25
      vertex -54.1667 -93.8194 25
    endloop
  endfacet
  facet normal 0 0 -1
    outer loop
      vertex 4.21055 -48.1268 25
      vertex -49.2933 -24.418 25
      vertex -43.4858 -21.0651 25
    endloop
  endfacet
  facet normal 0 0 -1
    outer loop
      vertex -108.333 0 25
      vertex -49.2933 -24.418 25
      vertex -54.1667 -93.8194 25
    endloop
  endfacet
  facet normal 0 0 -1
    outer loop
      vertex -49.2933 -24.418 25
      vertex -108.333 0 25
      vertex -49.7956 -23.4321 25
    endloop
  endfacet
  facet normal 0 0 -1
    outer loop
      vertex -49.7956 -23.4321 25
      vertex -108.333 0 25
      vertex -51.1687 -20.2591 25
    endloop
  endfacet
  facet normal 0 0 -1
    outer loop
      vertex -51.1687 -20.2591 25
      vertex -108.333 0 25
      vertex -52.3398 -17.0062 25
    endloop
  endfacet
  facet normal 0 0 -1
    outer loop
      vertex -52.3398 -17.0062 25
      vertex -108.333 0 25
      vertex -53.3044 -13.6862 25
    endloop
  endfacet
  facet normal 0 0 -1
    outer loop
      vertex -53.3044 -13.6862 25
      vertex -108.333 0 25
      vertex -54.0585 -10.3122 25
    endloop
  endfacet
  facet normal 0 0 -1
    outer loop
      vertex -54.0585 -10.3122 25
      vertex -108.333 0 25
      vertex -54.5994 -6.8975 25
    endloop
  endfacet
  facet normal 0 0 -1
    outer loop
      vertex -54.5994 -6.8975 25
      vertex -108.333 0 25
      vertex -54.9247 -3.45557 25
    endloop
  endfacet
  facet normal 0 0 -1
    outer loop
      vertex -54.9247 -3.45557 25
      vertex -108.333 0 25
      vertex -55.0333 0 25
    endloop
  endfacet
  facet normal 0 0 -1
    outer loop
      vertex 108.333 0 25
      vertex 45.0628 31.5533 25
      vertex 54.1667 93.8194 25
    endloop
  endfacet
  facet normal 0 0 -1
    outer loop
      vertex 44.5229 32.3478 25
      vertex 54.1667 93.8194 25
      vertex 45.0628 31.5533 25
    endloop
  endfacet
  facet normal 0 0 -1
    outer loop
      vertex 42.4039 35.0796 25
      vertex 54.1667 93.8194 25
      vertex 44.5229 32.3478 25
    endloop
  endfacet
  facet normal 0 0 -1
    outer loop
      vertex 40.1176 37.6729 25
      vertex 54.1667 93.8194 25
      vertex 42.4039 35.0796 25
    endloop
  endfacet
  facet normal 0 0 -1
    outer loop
      vertex 37.6729 40.1176 25
      vertex 54.1667 93.8194 25
      vertex 40.1176 37.6729 25
    endloop
  endfacet
  facet normal 0 0 -1
    outer loop
      vertex 35.0796 42.4039 25
      vertex 54.1667 93.8194 25
      vertex 37.6729 40.1176 25
    endloop
  endfacet
  facet normal 0 0 -1
    outer loop
      vertex 32.3478 44.5229 25
      vertex 54.1667 93.8194 25
      vertex 35.0796 42.4039 25
    endloop
  endfacet
  facet normal 0 0 -1
    outer loop
      vertex 29.4883 46.4662 25
      vertex 54.1667 93.8194 25
      vertex 32.3478 44.5229 25
    endloop
  endfacet
  facet normal 0 0 -1
    outer loop
      vertex 26.5125 48.2261 25
      vertex 54.1667 93.8194 25
      vertex 29.4883 46.4662 25
    endloop
  endfacet
  facet normal 0 0 -1
    outer loop
      vertex 23.4321 49.7956 25
      vertex 54.1667 93.8194 25
      vertex 26.5125 48.2261 25
    endloop
  endfacet
  facet normal 0 0 -1
    outer loop
      vertex 20.2591 51.1687 25
      vertex 54.1667 93.8194 25
      vertex 23.4321 49.7956 25
    endloop
  endfacet
  facet normal 0 0 -1
    outer loop
      vertex 17.0062 52.3398 25
      vertex 54.1667 93.8194 25
      vertex 20.2591 51.1687 25
    endloop
  endfacet
  facet normal 0 0 -1
    outer loop
      vertex 13.6862 53.3044 25
      vertex 54.1667 93.8194 25
      vertex 17.0062 52.3398 25
    endloop
  endfacet
  facet normal 0 0 -1
    outer loop
      vertex 10.3122 54.0585 25
      vertex 54.1667 93.8194 25
      vertex 13.6862 53.3044 25
    endloop
  endfacet
  facet normal 0 0 -1
    outer loop
      vertex 6.8975 54.5994 25
      vertex 54.1667 93.8194 25
      vertex 10.3122 54.0585 25
    endloop
  endfacet
  facet normal 0 0 -1
    outer loop
      vertex 3.5 54.9205 25
      vertex 54.1667 93.8194 25
      vertex 6.8975 54.5994 25
    endloop
  endfacet
  facet normal 0 0 -1
    outer loop
      vertex -44.9392 -17.7927 25
      vertex -43.4858 -21.0651 25
      vertex -43.7333 -20.5793 25
    endloop
  endfacet
  facet normal -0 0 -1
    outer loop
      vertex 3.5 48.194 25
      vertex -43.8003 20.4244 25
      vertex 3.5 54.9205 25
    endloop
  endfacet
  facet normal 0 0 -1
    outer loop
      vertex -49.872 23.2557 25
      vertex 3.5 54.9205 25
      vertex -43.8003 20.4244 25
    endloop
  endfacet
  facet normal -0 0 -1
    outer loop
      vertex 3.5 54.9205 25
      vertex -49.872 23.2557 25
      vertex -54.1667 93.8194 25
    endloop
  endfacet
  facet normal 0 0 -1
    outer loop
      vertex 3.5 54.9205 25
      vertex -54.1667 93.8194 25
      vertex 54.1667 93.8194 25
    endloop
  endfacet
  facet normal 0 0 -1
    outer loop
      vertex -108.333 0 25
      vertex -49.872 23.2557 25
      vertex -51.1687 20.2591 25
    endloop
  endfacet
  facet normal 0 0 -1
    outer loop
      vertex -108.333 0 25
      vertex -51.1687 20.2591 25
      vertex -52.3398 17.0062 25
    endloop
  endfacet
  facet normal 0 0 -1
    outer loop
      vertex -108.333 0 25
      vertex -52.3398 17.0062 25
      vertex -53.3044 13.6862 25
    endloop
  endfacet
  facet normal 0 0 -1
    outer loop
      vertex -108.333 0 25
      vertex -53.3044 13.6862 25
      vertex -54.0585 10.3122 25
    endloop
  endfacet
  facet normal 0 0 -1
    outer loop
      vertex -108.333 0 25
      vertex -54.0585 10.3122 25
      vertex -54.5994 6.8975 25
    endloop
  endfacet
  facet normal 0 0 -1
    outer loop
      vertex -108.333 0 25
      vertex -54.5994 6.8975 25
      vertex -54.9247 3.45557 25
    endloop
  endfacet
  facet normal 0 0 -1
    outer loop
      vertex -108.333 0 25
      vertex -54.9247 3.45557 25
      vertex -55.0333 0 25
    endloop
  endfacet
  facet normal -0 0 -1
    outer loop
      vertex -49.872 23.2557 25
      vertex -108.333 0 25
      vertex -54.1667 93.8194 25
    endloop
  endfacet
  facet normal 0.500014 -0.866017 3.2728e-05
    outer loop
      vertex -43.4858 -21.0651 20
      vertex -49.2933 -24.418 25
      vertex -50.141 -24.9075 23.37
    endloop
  endfacet
  facet normal 0.499996 -0.866027 -1.40255e-05
    outer loop
      vertex -43.4858 -21.0651 20
      vertex -50.141 -24.9075 23.37
      vertex -51.8936 -25.9193 20
    endloop
  endfacet
  facet normal 0.499993 -0.866029 0
    outer loop
      vertex -49.2933 -24.418 25
      vertex -43.4858 -21.0651 20
      vertex -43.4858 -21.0651 25
    endloop
  endfacet
  facet normal 0.500001 0.866025 -1.07421e-05
    outer loop
      vertex 39.9773 -27.1224 20
      vertex 45.7924 -30.4797 25
      vertex 47.5578 -31.499 21.61
    endloop
  endfacet
  facet normal 0.499996 0.866028 2.42434e-05
    outer loop
      vertex 39.9773 -27.1224 20
      vertex 47.5578 -31.499 21.61
      vertex 48.3962 -31.983 20
    endloop
  endfacet
  facet normal 0.499994 0.866029 0
    outer loop
      vertex 45.7924 -30.4797 25
      vertex 39.9773 -27.1224 20
      vertex 39.9773 -27.1224 25
    endloop
  endfacet
  facet normal 0.422621 0.906307 -0
    outer loop
      vertex -43.8003 20.4244 20
      vertex -49.872 23.2557 25
      vertex -43.8003 20.4244 25
    endloop
  endfacet
  facet normal 0.422619 0.906307 -2.13509e-06
    outer loop
      vertex -49.872 23.2557 25
      vertex -43.8003 20.4244 20
      vertex -52.4317 24.4493 20.2922
    endloop
  endfacet
  facet normal 0.42262 0.906307 1.06314e-05
    outer loop
      vertex -52.4317 24.4493 20.2922
      vertex -43.8003 20.4244 20
      vertex -52.5906 24.5234 20
    endloop
  endfacet
  facet normal 0 0 -1
    outer loop
      vertex -56.2101 -14.4323 20
      vertex -46.8149 -12.02 20
      vertex -55.193 -17.9333 20
    endloop
  endfacet
  facet normal -0 0 -1
    outer loop
      vertex -45.9677 -14.9358 20
      vertex -55.193 -17.9333 20
      vertex -46.8149 -12.02 20
    endloop
  endfacet
  facet normal 0 0 -1
    outer loop
      vertex -55.193 -17.9333 20
      vertex -45.9677 -14.9358 20
      vertex -53.958 -21.3635 20
    endloop
  endfacet
  facet normal -0 0 -1
    outer loop
      vertex -44.9392 -17.7927 20
      vertex -53.958 -21.3635 20
      vertex -45.9677 -14.9358 20
    endloop
  endfacet
  facet normal 0 0 -1
    outer loop
      vertex -53.958 -21.3635 20
      vertex -44.9392 -17.7927 20
      vertex -52.5101 -24.7094 20
    endloop
  endfacet
  facet normal -0 0 -1
    outer loop
      vertex -43.7333 -20.5793 20
      vertex -52.5101 -24.7094 20
      vertex -44.9392 -17.7927 20
    endloop
  endfacet
  facet normal -0 0 -1
    outer loop
      vertex -43.4858 -21.0651 20
      vertex -52.5101 -24.7094 20
      vertex -43.7333 -20.5793 20
    endloop
  endfacet
  facet normal 0 0 -1
    outer loop
      vertex -52.5101 -24.7094 20
      vertex -43.4858 -21.0651 20
      vertex -51.8936 -25.9193 20
    endloop
  endfacet
  facet normal -0 0 -1
    outer loop
      vertex -46.8149 -12.02 20
      vertex -56.2101 -14.4323 20
      vertex -47.4772 -9.05676 20
    endloop
  endfacet
  facet normal 0 0 -1
    outer loop
      vertex -57.0054 -10.8744 20
      vertex -47.4772 -9.05676 20
      vertex -56.2101 -14.4323 20
    endloop
  endfacet
  facet normal -0 0 -1
    outer loop
      vertex -47.4772 -9.05676 20
      vertex -57.0054 -10.8744 20
      vertex -47.9522 -6.05777 20
    endloop
  endfacet
  facet normal 0 0 -1
    outer loop
      vertex -44.9392 17.7927 20
      vertex -52.5906 24.5234 20
      vertex -43.8003 20.4244 20
    endloop
  endfacet
  facet normal 0 0 -1
    outer loop
      vertex -53.958 21.3635 20
      vertex -44.9392 17.7927 20
      vertex -45.9677 14.9358 20
    endloop
  endfacet
  facet normal 0 0 -1
    outer loop
      vertex -55.193 17.9333 20
      vertex -45.9677 14.9358 20
      vertex -46.8149 12.02 20
    endloop
  endfacet
  facet normal 0 0 -1
    outer loop
      vertex -56.2101 14.4323 20
      vertex -46.8149 12.02 20
      vertex -47.4772 9.05676 20
    endloop
  endfacet
  facet normal 0 0 -1
    outer loop
      vertex -57.0054 10.8744 20
      vertex -47.4772 9.05676 20
      vertex -47.9522 6.05777 20
    endloop
  endfacet
  facet normal 0 0 -1
    outer loop
      vertex -57.5757 -7.27351 20
      vertex -47.9522 -6.05777 20
      vertex -57.0054 -10.8744 20
    endloop
  endfacet
  facet normal -0 0 -1
    outer loop
      vertex -47.9522 -6.05777 20
      vertex -57.5757 -7.27351 20
      vertex -48.238 -3.03487 20
    endloop
  endfacet
  facet normal 0 0 -1
    outer loop
      vertex -44.9392 17.7927 20
      vertex -53.958 21.3635 20
      vertex -52.5906 24.5234 20
    endloop
  endfacet
  facet normal 0 0 -1
    outer loop
      vertex -57.9188 -3.64394 20
      vertex -48.238 -3.03487 20
      vertex -57.5757 -7.27351 20
    endloop
  endfacet
  facet normal 0 0 -1
    outer loop
      vertex -45.9677 14.9358 20
      vertex -55.193 17.9333 20
      vertex -53.958 21.3635 20
    endloop
  endfacet
  facet normal -0 0 -1
    outer loop
      vertex -48.238 -3.03487 20
      vertex -57.9188 -3.64394 20
      vertex -48.3333 0 20
    endloop
  endfacet
  facet normal 0 0 -1
    outer loop
      vertex -46.8149 12.02 20
      vertex -56.2101 14.4323 20
      vertex -55.193 17.9333 20
    endloop
  endfacet
  facet normal 0 0 -1
    outer loop
      vertex -58.0333 0 20
      vertex -48.3333 0 20
      vertex -57.9188 -3.64394 20
    endloop
  endfacet
  facet normal 0 0 -1
    outer loop
      vertex -47.4772 9.05676 20
      vertex -57.0054 10.8744 20
      vertex -56.2101 14.4323 20
    endloop
  endfacet
  facet normal 0 0 -1
    outer loop
      vertex -48.3333 0 20
      vertex -58.0333 0 20
      vertex -48.238 3.03487 20
    endloop
  endfacet
  facet normal 0 0 -1
    outer loop
      vertex -47.9522 6.05777 20
      vertex -57.5757 7.27351 20
      vertex -57.0054 10.8744 20
    endloop
  endfacet
  facet normal 0 -0 -1
    outer loop
      vertex -57.9188 3.64394 20
      vertex -48.238 3.03487 20
      vertex -58.0333 0 20
    endloop
  endfacet
  facet normal -0 0 -1
    outer loop
      vertex -47.9522 6.05777 20
      vertex -57.9188 3.64394 20
      vertex -57.5757 7.27351 20
    endloop
  endfacet
  facet normal 0 0 -1
    outer loop
      vertex -48.238 3.03487 20
      vertex -57.9188 3.64394 20
      vertex -47.9522 6.05777 20
    endloop
  endfacet
  facet normal 0 0 -1
    outer loop
      vertex 39.1025 28.4096 20
      vertex 46.95 34.1111 20
      vertex 47.5193 33.2734 20
    endloop
  endfacet
  facet normal -0 0 -1
    outer loop
      vertex 46.95 34.1111 20
      vertex 39.1025 28.4096 20
      vertex 44.7155 36.9918 20
    endloop
  endfacet
  facet normal -0 0 -1
    outer loop
      vertex 44.7155 36.9918 20
      vertex 37.2415 30.8088 20
      vertex 42.3045 39.7266 20
    endloop
  endfacet
  facet normal 0 0 -1
    outer loop
      vertex 39.1025 28.4096 20
      vertex 47.5193 33.2734 20
      vertex 39.5767 27.7119 20
    endloop
  endfacet
  facet normal 0 0 -1
    outer loop
      vertex 44.7155 36.9918 20
      vertex 39.1025 28.4096 20
      vertex 37.2415 30.8088 20
    endloop
  endfacet
  facet normal 0 0 -1
    outer loop
      vertex 35.2335 33.0864 20
      vertex 42.3045 39.7266 20
      vertex 37.2415 30.8088 20
    endloop
  endfacet
  facet normal -0 0 -1
    outer loop
      vertex 42.3045 39.7266 20
      vertex 35.2335 33.0864 20
      vertex 39.7266 42.3045 20
    endloop
  endfacet
  facet normal 0 0 -1
    outer loop
      vertex 33.0864 35.2335 20
      vertex 39.7266 42.3045 20
      vertex 35.2335 33.0864 20
    endloop
  endfacet
  facet normal -0 0 -1
    outer loop
      vertex 39.7266 42.3045 20
      vertex 33.0864 35.2335 20
      vertex 36.9918 44.7155 20
    endloop
  endfacet
  facet normal 0 0 -1
    outer loop
      vertex 30.8088 37.2415 20
      vertex 36.9918 44.7155 20
      vertex 33.0864 35.2335 20
    endloop
  endfacet
  facet normal -0 0 -1
    outer loop
      vertex 36.9918 44.7155 20
      vertex 30.8088 37.2415 20
      vertex 34.1111 46.95 20
    endloop
  endfacet
  facet normal 0 0 -1
    outer loop
      vertex 28.4096 39.1025 20
      vertex 34.1111 46.95 20
      vertex 30.8088 37.2415 20
    endloop
  endfacet
  facet normal -0 0 -1
    outer loop
      vertex 34.1111 46.95 20
      vertex 28.4096 39.1025 20
      vertex 31.0958 48.9992 20
    endloop
  endfacet
  facet normal 0 0 -1
    outer loop
      vertex 25.8983 40.8092 20
      vertex 31.0958 48.9992 20
      vertex 28.4096 39.1025 20
    endloop
  endfacet
  facet normal -0 0 -1
    outer loop
      vertex 31.0958 48.9992 20
      vertex 25.8983 40.8092 20
      vertex 27.9578 50.855 20
    endloop
  endfacet
  facet normal 0 0 -1
    outer loop
      vertex 23.2848 42.3548 20
      vertex 27.9578 50.855 20
      vertex 25.8983 40.8092 20
    endloop
  endfacet
  facet normal -0 0 -1
    outer loop
      vertex 27.9578 50.855 20
      vertex 23.2848 42.3548 20
      vertex 24.7094 52.5101 20
    endloop
  endfacet
  facet normal 0 0 -1
    outer loop
      vertex 20.5793 43.7333 20
      vertex 24.7094 52.5101 20
      vertex 23.2848 42.3548 20
    endloop
  endfacet
  facet normal -0 0 -1
    outer loop
      vertex 24.7094 52.5101 20
      vertex 20.5793 43.7333 20
      vertex 21.3635 53.958 20
    endloop
  endfacet
  facet normal 0 0 -1
    outer loop
      vertex 17.7927 44.9392 20
      vertex 21.3635 53.958 20
      vertex 20.5793 43.7333 20
    endloop
  endfacet
  facet normal -0 0 -1
    outer loop
      vertex 21.3635 53.958 20
      vertex 17.7927 44.9392 20
      vertex 17.9333 55.193 20
    endloop
  endfacet
  facet normal 0 0 -1
    outer loop
      vertex 14.9358 45.9677 20
      vertex 17.9333 55.193 20
      vertex 17.7927 44.9392 20
    endloop
  endfacet
  facet normal 0 0 -1
    outer loop
      vertex 14.9358 45.9677 20
      vertex 14.4323 56.2101 20
      vertex 17.9333 55.193 20
    endloop
  endfacet
  facet normal 0 0 -1
    outer loop
      vertex 12.02 46.8149 20
      vertex 14.4323 56.2101 20
      vertex 14.9358 45.9677 20
    endloop
  endfacet
  facet normal 0 0 -1
    outer loop
      vertex 12.02 46.8149 20
      vertex 10.8744 57.0054 20
      vertex 14.4323 56.2101 20
    endloop
  endfacet
  facet normal 0 0 -1
    outer loop
      vertex 9.05676 47.4772 20
      vertex 10.8744 57.0054 20
      vertex 12.02 46.8149 20
    endloop
  endfacet
  facet normal 0 0 -1
    outer loop
      vertex 9.05676 47.4772 20
      vertex 7.27351 57.5757 20
      vertex 10.8744 57.0054 20
    endloop
  endfacet
  facet normal 0 0 -1
    outer loop
      vertex 6.05777 47.9522 20
      vertex 7.27351 57.5757 20
      vertex 9.05676 47.4772 20
    endloop
  endfacet
  facet normal 0 0 -1
    outer loop
      vertex 3.5 48.194 20
      vertex 7.27351 57.5757 20
      vertex 6.05777 47.9522 20
    endloop
  endfacet
  facet normal -0 0 -1
    outer loop
      vertex 7.27351 57.5757 20
      vertex 3.5 48.194 20
      vertex 3.64394 57.9188 20
    endloop
  endfacet
  facet normal -0 0 -1
    outer loop
      vertex 3.64394 57.9188 20
      vertex 3.5 48.194 20
      vertex 3.5 57.9233 20
    endloop
  endfacet
  facet normal 0 0 -1
    outer loop
      vertex 39.1025 -28.4096 20
      vertex 46.95 -34.1111 20
      vertex 44.7155 -36.9918 20
    endloop
  endfacet
  facet normal 0 0 -1
    outer loop
      vertex 37.2415 -30.8088 20
      vertex 44.7155 -36.9918 20
      vertex 42.3045 -39.7266 20
    endloop
  endfacet
  facet normal 0 -0 -1
    outer loop
      vertex 39.1025 -28.4096 20
      vertex 44.7155 -36.9918 20
      vertex 37.2415 -30.8088 20
    endloop
  endfacet
  facet normal 0 0 -1
    outer loop
      vertex 35.2335 -33.0864 20
      vertex 42.3045 -39.7266 20
      vertex 39.7266 -42.3045 20
    endloop
  endfacet
  facet normal 0 0 -1
    outer loop
      vertex 46.95 -34.1111 20
      vertex 39.9773 -27.1224 20
      vertex 48.3962 -31.983 20
    endloop
  endfacet
  facet normal 0 -0 -1
    outer loop
      vertex 39.9773 -27.1224 20
      vertex 46.95 -34.1111 20
      vertex 39.1025 -28.4096 20
    endloop
  endfacet
  facet normal 0 0 -1
    outer loop
      vertex 33.0864 -35.2335 20
      vertex 39.7266 -42.3045 20
      vertex 36.9918 -44.7155 20
    endloop
  endfacet
  facet normal 0 0 -1
    outer loop
      vertex 42.3045 -39.7266 20
      vertex 35.2335 -33.0864 20
      vertex 37.2415 -30.8088 20
    endloop
  endfacet
  facet normal 0 0 -1
    outer loop
      vertex 30.8088 -37.2415 20
      vertex 36.9918 -44.7155 20
      vertex 34.1111 -46.95 20
    endloop
  endfacet
  facet normal 0 0 -1
    outer loop
      vertex 39.7266 -42.3045 20
      vertex 33.0864 -35.2335 20
      vertex 35.2335 -33.0864 20
    endloop
  endfacet
  facet normal 0 0 -1
    outer loop
      vertex 28.4096 -39.1025 20
      vertex 34.1111 -46.95 20
      vertex 31.0958 -48.9992 20
    endloop
  endfacet
  facet normal 0 0 -1
    outer loop
      vertex 36.9918 -44.7155 20
      vertex 30.8088 -37.2415 20
      vertex 33.0864 -35.2335 20
    endloop
  endfacet
  facet normal 0 0 -1
    outer loop
      vertex 34.1111 -46.95 20
      vertex 28.4096 -39.1025 20
      vertex 30.8088 -37.2415 20
    endloop
  endfacet
  facet normal 0 0 -1
    outer loop
      vertex 25.8983 -40.8092 20
      vertex 31.0958 -48.9992 20
      vertex 27.9578 -50.855 20
    endloop
  endfacet
  facet normal 0 0 -1
    outer loop
      vertex 31.0958 -48.9992 20
      vertex 25.8983 -40.8092 20
      vertex 28.4096 -39.1025 20
    endloop
  endfacet
  facet normal 0 0 -1
    outer loop
      vertex 23.2848 -42.3548 20
      vertex 27.9578 -50.855 20
      vertex 24.7094 -52.5101 20
    endloop
  endfacet
  facet normal 0 0 -1
    outer loop
      vertex 27.9578 -50.855 20
      vertex 23.2848 -42.3548 20
      vertex 25.8983 -40.8092 20
    endloop
  endfacet
  facet normal 0 0 -1
    outer loop
      vertex 20.5793 -43.7333 20
      vertex 24.7094 -52.5101 20
      vertex 21.3635 -53.958 20
    endloop
  endfacet
  facet normal 0 0 -1
    outer loop
      vertex 24.7094 -52.5101 20
      vertex 20.5793 -43.7333 20
      vertex 23.2848 -42.3548 20
    endloop
  endfacet
  facet normal 0 0 -1
    outer loop
      vertex 17.7927 -44.9392 20
      vertex 21.3635 -53.958 20
      vertex 17.9333 -55.193 20
    endloop
  endfacet
  facet normal 0 0 -1
    outer loop
      vertex 21.3635 -53.958 20
      vertex 17.7927 -44.9392 20
      vertex 20.5793 -43.7333 20
    endloop
  endfacet
  facet normal 0 0 -1
    outer loop
      vertex 17.9333 -55.193 20
      vertex 14.9358 -45.9677 20
      vertex 17.7927 -44.9392 20
    endloop
  endfacet
  facet normal 0 0 -1
    outer loop
      vertex 14.4323 -56.2101 20
      vertex 14.9358 -45.9677 20
      vertex 17.9333 -55.193 20
    endloop
  endfacet
  facet normal 0 0 -1
    outer loop
      vertex 14.4323 -56.2101 20
      vertex 12.02 -46.8149 20
      vertex 14.9358 -45.9677 20
    endloop
  endfacet
  facet normal 0 0 -1
    outer loop
      vertex 10.8744 -57.0054 20
      vertex 12.02 -46.8149 20
      vertex 14.4323 -56.2101 20
    endloop
  endfacet
  facet normal 0 0 -1
    outer loop
      vertex 10.8744 -57.0054 20
      vertex 9.05676 -47.4772 20
      vertex 12.02 -46.8149 20
    endloop
  endfacet
  facet normal 0 0 -1
    outer loop
      vertex 7.27351 -57.5757 20
      vertex 9.05676 -47.4772 20
      vertex 10.8744 -57.0054 20
    endloop
  endfacet
  facet normal 0 0 -1
    outer loop
      vertex 7.27351 -57.5757 20
      vertex 6.05777 -47.9522 20
      vertex 9.05676 -47.4772 20
    endloop
  endfacet
  facet normal 0 0 -1
    outer loop
      vertex 5.05557 -57.7854 20
      vertex 6.05777 -47.9522 20
      vertex 7.27351 -57.5757 20
    endloop
  endfacet
  facet normal 0 0 -1
    outer loop
      vertex 6.05777 -47.9522 20
      vertex 5.05557 -57.7854 20
      vertex 4.21055 -48.1268 20
    endloop
  endfacet
  facet normal -0.996195 -0.0871555 0
    outer loop
      vertex 4.21055 -48.1268 20
      vertex 4.79422 -54.7982 25
      vertex 4.21055 -48.1268 25
    endloop
  endfacet
  facet normal -0.996195 -0.0871562 -1.03837e-06
    outer loop
      vertex 4.21055 -48.1268 20
      vertex 4.95061 -56.5857 22.0081
      vertex 4.79422 -54.7982 25
    endloop
  endfacet
  facet normal -0.996195 -0.0871559 1.97129e-07
    outer loop
      vertex 4.95061 -56.5857 22.0081
      vertex 4.21055 -48.1268 20
      vertex 5.05557 -57.7854 20
    endloop
  endfacet
  facet normal 0.573576 -0.819153 1.54833e-05
    outer loop
      vertex 39.5767 27.7119 25
      vertex 45.7195 32.0131 23.6634
      vertex 45.0628 31.5533 25
    endloop
  endfacet
  facet normal 0.573573 -0.819154 0
    outer loop
      vertex 39.5767 27.7119 20
      vertex 45.7195 32.0131 23.6634
      vertex 39.5767 27.7119 25
    endloop
  endfacet
  facet normal 0.573579 -0.819151 -1.32621e-05
    outer loop
      vertex 45.7195 32.0131 23.6634
      vertex 39.5767 27.7119 20
      vertex 47.5193 33.2734 20
    endloop
  endfacet
  facet normal 0.975921 0.218124 0
    outer loop
      vertex -46.8149 -12.02 25
      vertex -47.4772 -9.05676 20
      vertex -47.4772 -9.05676 25
    endloop
  endfacet
  facet normal 0.975921 0.218124 0
    outer loop
      vertex -47.4772 -9.05676 20
      vertex -46.8149 -12.02 25
      vertex -46.8149 -12.02 20
    endloop
  endfacet
  facet normal 0.999507 -0.0313862 0
    outer loop
      vertex -48.3333 0 25
      vertex -48.238 3.03487 20
      vertex -48.238 3.03487 25
    endloop
  endfacet
  facet normal 0.999507 -0.0313862 0
    outer loop
      vertex -48.238 3.03487 20
      vertex -48.3333 0 25
      vertex -48.3333 0 20
    endloop
  endfacet
  facet normal -0.218124 0.975921 0
    outer loop
      vertex 12.02 -46.8149 20
      vertex 9.05676 -47.4772 25
      vertex 12.02 -46.8149 25
    endloop
  endfacet
  facet normal -0.218124 0.975921 0
    outer loop
      vertex 9.05676 -47.4772 25
      vertex 12.02 -46.8149 20
      vertex 9.05676 -47.4772 20
    endloop
  endfacet
  facet normal -0.790157 0.612905 0
    outer loop
      vertex 37.2415 -30.8088 20
      vertex 39.1025 -28.4096 25
      vertex 39.1025 -28.4096 20
    endloop
  endfacet
  facet normal -0.790157 0.612905 0
    outer loop
      vertex 39.1025 -28.4096 25
      vertex 37.2415 -30.8088 20
      vertex 37.2415 -30.8088 25
    endloop
  endfacet
  facet normal 0.917751 0.397156 0
    outer loop
      vertex -43.7333 -20.5793 25
      vertex -44.9392 -17.7927 20
      vertex -44.9392 -17.7927 25
    endloop
  endfacet
  facet normal 0.917751 0.397156 0
    outer loop
      vertex -44.9392 -17.7927 20
      vertex -43.7333 -20.5793 25
      vertex -43.7333 -20.5793 20
    endloop
  endfacet
  facet normal -0.707107 -0.707107 0
    outer loop
      vertex 35.2335 33.0864 20
      vertex 33.0864 35.2335 25
      vertex 33.0864 35.2335 20
    endloop
  endfacet
  facet normal -0.707107 -0.707107 0
    outer loop
      vertex 33.0864 35.2335 25
      vertex 35.2335 33.0864 20
      vertex 35.2335 33.0864 25
    endloop
  endfacet
  facet normal -0.279016 0.960286 0
    outer loop
      vertex 14.9358 -45.9677 20
      vertex 12.02 -46.8149 25
      vertex 14.9358 -45.9677 25
    endloop
  endfacet
  facet normal -0.279016 0.960286 0
    outer loop
      vertex 12.02 -46.8149 25
      vertex 14.9358 -45.9677 20
      vertex 12.02 -46.8149 20
    endloop
  endfacet
  facet normal 0.975921 -0.218124 0
    outer loop
      vertex -47.4772 9.05676 25
      vertex -46.8149 12.02 20
      vertex -46.8149 12.02 25
    endloop
  endfacet
  facet normal 0.975921 -0.218124 0
    outer loop
      vertex -46.8149 12.02 20
      vertex -47.4772 9.05676 25
      vertex -47.4772 9.05676 20
    endloop
  endfacet
  facet normal 0.987688 -0.156437 0
    outer loop
      vertex -47.9522 6.05777 25
      vertex -47.4772 9.05676 20
      vertex -47.4772 9.05676 25
    endloop
  endfacet
  facet normal 0.987688 -0.156437 0
    outer loop
      vertex -47.4772 9.05676 20
      vertex -47.9522 6.05777 25
      vertex -47.9522 6.05777 20
    endloop
  endfacet
  facet normal 0.999507 0.0313862 0
    outer loop
      vertex -48.238 -3.03487 25
      vertex -48.3333 0 20
      vertex -48.3333 0 25
    endloop
  endfacet
  facet normal 0.999507 0.0313862 0
    outer loop
      vertex -48.3333 0 20
      vertex -48.238 -3.03487 25
      vertex -48.238 -3.03487 20
    endloop
  endfacet
  facet normal -0.562088 -0.827077 0
    outer loop
      vertex 25.8983 40.8092 20
      vertex 28.4096 39.1025 25
      vertex 25.8983 40.8092 25
    endloop
  endfacet
  facet normal -0.562088 -0.827077 -0
    outer loop
      vertex 28.4096 39.1025 25
      vertex 25.8983 40.8092 20
      vertex 28.4096 39.1025 20
    endloop
  endfacet
  facet normal -0.827057 -0.562119 0
    outer loop
      vertex 39.5767 27.7119 20
      vertex 39.1025 28.4096 25
      vertex 39.1025 28.4096 20
    endloop
  endfacet
  facet normal -0.827057 -0.562119 0
    outer loop
      vertex 39.1025 28.4096 25
      vertex 39.5767 27.7119 20
      vertex 39.5767 27.7119 25
    endloop
  endfacet
  facet normal -0.156437 0.987688 0
    outer loop
      vertex 9.05676 -47.4772 20
      vertex 6.05777 -47.9522 25
      vertex 9.05676 -47.4772 25
    endloop
  endfacet
  facet normal -0.156437 0.987688 0
    outer loop
      vertex 6.05777 -47.9522 25
      vertex 9.05676 -47.4772 20
      vertex 6.05777 -47.9522 20
    endloop
  endfacet
  facet normal -0.397156 -0.917751 0
    outer loop
      vertex 17.7927 44.9392 20
      vertex 20.5793 43.7333 25
      vertex 17.7927 44.9392 25
    endloop
  endfacet
  facet normal -0.397156 -0.917751 -0
    outer loop
      vertex 20.5793 43.7333 25
      vertex 17.7927 44.9392 20
      vertex 20.5793 43.7333 20
    endloop
  endfacet
  facet normal -0.0941159 -0.995561 0
    outer loop
      vertex 3.5 48.194 20
      vertex 6.05777 47.9522 25
      vertex 3.5 48.194 25
    endloop
  endfacet
  facet normal -0.0941159 -0.995561 -0
    outer loop
      vertex 6.05777 47.9522 25
      vertex 3.5 48.194 20
      vertex 6.05777 47.9522 20
    endloop
  endfacet
  facet normal -0.661317 -0.750107 0
    outer loop
      vertex 30.8088 37.2415 20
      vertex 33.0864 35.2335 25
      vertex 30.8088 37.2415 25
    endloop
  endfacet
  facet normal -0.661317 -0.750107 -0
    outer loop
      vertex 33.0864 35.2335 25
      vertex 30.8088 37.2415 20
      vertex 33.0864 35.2335 20
    endloop
  endfacet
  facet normal 0.99556 0.0941252 0
    outer loop
      vertex -47.9522 -6.05777 25
      vertex -48.238 -3.03487 20
      vertex -48.238 -3.03487 25
    endloop
  endfacet
  facet normal 0.99556 0.0941252 0
    outer loop
      vertex -48.238 -3.03487 20
      vertex -47.9522 -6.05777 25
      vertex -47.9522 -6.05777 20
    endloop
  endfacet
  facet normal -0.827075 0.562092 0
    outer loop
      vertex 39.1025 -28.4096 20
      vertex 39.9773 -27.1224 25
      vertex 39.9773 -27.1224 20
    endloop
  endfacet
  facet normal -0.827075 0.562092 0
    outer loop
      vertex 39.9773 -27.1224 25
      vertex 39.1025 -28.4096 20
      vertex 39.1025 -28.4096 25
    endloop
  endfacet
  facet normal -0.218124 -0.975921 0
    outer loop
      vertex 9.05676 47.4772 20
      vertex 12.02 46.8149 25
      vertex 9.05676 47.4772 25
    endloop
  endfacet
  facet normal -0.218124 -0.975921 -0
    outer loop
      vertex 12.02 46.8149 25
      vertex 9.05676 47.4772 20
      vertex 12.02 46.8149 20
    endloop
  endfacet
  facet normal -0.562088 0.827077 0
    outer loop
      vertex 28.4096 -39.1025 20
      vertex 25.8983 -40.8092 25
      vertex 28.4096 -39.1025 25
    endloop
  endfacet
  facet normal -0.562088 0.827077 0
    outer loop
      vertex 25.8983 -40.8092 25
      vertex 28.4096 -39.1025 20
      vertex 25.8983 -40.8092 20
    endloop
  endfacet
  facet normal -0.509037 0.860745 0
    outer loop
      vertex 25.8983 -40.8092 20
      vertex 23.2848 -42.3548 25
      vertex 25.8983 -40.8092 25
    endloop
  endfacet
  facet normal -0.509037 0.860745 0
    outer loop
      vertex 23.2848 -42.3548 25
      vertex 25.8983 -40.8092 20
      vertex 23.2848 -42.3548 20
    endloop
  endfacet
  facet normal -0.509037 -0.860745 0
    outer loop
      vertex 23.2848 42.3548 20
      vertex 25.8983 40.8092 25
      vertex 23.2848 42.3548 25
    endloop
  endfacet
  facet normal -0.509037 -0.860745 -0
    outer loop
      vertex 25.8983 40.8092 25
      vertex 23.2848 42.3548 20
      vertex 25.8983 40.8092 20
    endloop
  endfacet
  facet normal -0.397156 0.917751 0
    outer loop
      vertex 20.5793 -43.7333 20
      vertex 17.7927 -44.9392 25
      vertex 20.5793 -43.7333 25
    endloop
  endfacet
  facet normal -0.397156 0.917751 0
    outer loop
      vertex 17.7927 -44.9392 25
      vertex 20.5793 -43.7333 20
      vertex 17.7927 -44.9392 20
    endloop
  endfacet
  facet normal -0.790157 -0.612905 0
    outer loop
      vertex 39.1025 28.4096 20
      vertex 37.2415 30.8088 25
      vertex 37.2415 30.8088 20
    endloop
  endfacet
  facet normal -0.790157 -0.612905 0
    outer loop
      vertex 37.2415 30.8088 25
      vertex 39.1025 28.4096 20
      vertex 39.1025 28.4096 25
    endloop
  endfacet
  facet normal 0.960286 -0.279016 0
    outer loop
      vertex -46.8149 12.02 25
      vertex -45.9677 14.9358 20
      vertex -45.9677 14.9358 25
    endloop
  endfacet
  facet normal 0.960286 -0.279016 0
    outer loop
      vertex -45.9677 14.9358 20
      vertex -46.8149 12.02 25
      vertex -46.8149 12.02 20
    endloop
  endfacet
  facet normal 0.960286 0.279016 0
    outer loop
      vertex -45.9677 -14.9358 25
      vertex -46.8149 -12.02 20
      vertex -46.8149 -12.02 25
    endloop
  endfacet
  facet normal 0.960286 0.279016 0
    outer loop
      vertex -46.8149 -12.02 20
      vertex -45.9677 -14.9358 25
      vertex -45.9677 -14.9358 20
    endloop
  endfacet
  facet normal -0.338724 0.940886 0
    outer loop
      vertex 17.7927 -44.9392 20
      vertex 14.9358 -45.9677 25
      vertex 17.7927 -44.9392 25
    endloop
  endfacet
  facet normal -0.338724 0.940886 0
    outer loop
      vertex 14.9358 -45.9677 25
      vertex 17.7927 -44.9392 20
      vertex 14.9358 -45.9677 20
    endloop
  endfacet
  facet normal -0.612905 0.790157 0
    outer loop
      vertex 30.8088 -37.2415 20
      vertex 28.4096 -39.1025 25
      vertex 30.8088 -37.2415 25
    endloop
  endfacet
  facet normal -0.612905 0.790157 0
    outer loop
      vertex 28.4096 -39.1025 25
      vertex 30.8088 -37.2415 20
      vertex 28.4096 -39.1025 20
    endloop
  endfacet
  facet normal -0.094101 0.995563 0
    outer loop
      vertex 6.05777 -47.9522 20
      vertex 4.21055 -48.1268 25
      vertex 6.05777 -47.9522 25
    endloop
  endfacet
  facet normal -0.094101 0.995563 0
    outer loop
      vertex 4.21055 -48.1268 25
      vertex 6.05777 -47.9522 20
      vertex 4.21055 -48.1268 20
    endloop
  endfacet
  facet normal 0.99556 -0.0941252 0
    outer loop
      vertex -48.238 3.03487 25
      vertex -47.9522 6.05777 20
      vertex -47.9522 6.05777 25
    endloop
  endfacet
  facet normal 0.99556 -0.0941252 0
    outer loop
      vertex -47.9522 6.05777 20
      vertex -48.238 3.03487 25
      vertex -48.238 3.03487 20
    endloop
  endfacet
  facet normal 0.987688 0.156437 0
    outer loop
      vertex -47.4772 -9.05676 25
      vertex -47.9522 -6.05777 20
      vertex -47.9522 -6.05777 25
    endloop
  endfacet
  facet normal 0.987688 0.156437 0
    outer loop
      vertex -47.9522 -6.05777 20
      vertex -47.4772 -9.05676 25
      vertex -47.4772 -9.05676 20
    endloop
  endfacet
  facet normal -0.750107 0.661317 0
    outer loop
      vertex 35.2335 -33.0864 20
      vertex 37.2415 -30.8088 25
      vertex 37.2415 -30.8088 20
    endloop
  endfacet
  facet normal -0.750107 0.661317 0
    outer loop
      vertex 37.2415 -30.8088 25
      vertex 35.2335 -33.0864 20
      vertex 35.2335 -33.0864 25
    endloop
  endfacet
  facet normal -0.750107 -0.661317 0
    outer loop
      vertex 37.2415 30.8088 20
      vertex 35.2335 33.0864 25
      vertex 35.2335 33.0864 20
    endloop
  endfacet
  facet normal -0.750107 -0.661317 0
    outer loop
      vertex 35.2335 33.0864 25
      vertex 37.2415 30.8088 20
      vertex 37.2415 30.8088 25
    endloop
  endfacet
  facet normal 0.917747 -0.397166 0
    outer loop
      vertex -44.9392 17.7927 25
      vertex -43.8003 20.4244 20
      vertex -43.8003 20.4244 25
    endloop
  endfacet
  facet normal 0.917747 -0.397166 0
    outer loop
      vertex -43.8003 20.4244 20
      vertex -44.9392 17.7927 25
      vertex -44.9392 17.7927 20
    endloop
  endfacet
  facet normal -0.707107 0.707107 0
    outer loop
      vertex 33.0864 -35.2335 20
      vertex 35.2335 -33.0864 25
      vertex 35.2335 -33.0864 20
    endloop
  endfacet
  facet normal -0.707107 0.707107 0
    outer loop
      vertex 35.2335 -33.0864 25
      vertex 33.0864 -35.2335 20
      vertex 33.0864 -35.2335 25
    endloop
  endfacet
  facet normal -0.661317 0.750107 0
    outer loop
      vertex 33.0864 -35.2335 20
      vertex 30.8088 -37.2415 25
      vertex 33.0864 -35.2335 25
    endloop
  endfacet
  facet normal -0.661317 0.750107 0
    outer loop
      vertex 30.8088 -37.2415 25
      vertex 33.0864 -35.2335 20
      vertex 30.8088 -37.2415 20
    endloop
  endfacet
  facet normal -0.612905 -0.790157 0
    outer loop
      vertex 28.4096 39.1025 20
      vertex 30.8088 37.2415 25
      vertex 28.4096 39.1025 25
    endloop
  endfacet
  facet normal -0.612905 -0.790157 -0
    outer loop
      vertex 30.8088 37.2415 25
      vertex 28.4096 39.1025 20
      vertex 30.8088 37.2415 20
    endloop
  endfacet
  facet normal -0.453985 -0.891009 0
    outer loop
      vertex 20.5793 43.7333 20
      vertex 23.2848 42.3548 25
      vertex 20.5793 43.7333 25
    endloop
  endfacet
  facet normal -0.453985 -0.891009 -0
    outer loop
      vertex 23.2848 42.3548 25
      vertex 20.5793 43.7333 20
      vertex 23.2848 42.3548 20
    endloop
  endfacet
  facet normal -0.156437 -0.987688 0
    outer loop
      vertex 6.05777 47.9522 20
      vertex 9.05676 47.4772 25
      vertex 6.05777 47.9522 25
    endloop
  endfacet
  facet normal -0.156437 -0.987688 -0
    outer loop
      vertex 9.05676 47.4772 25
      vertex 6.05777 47.9522 20
      vertex 9.05676 47.4772 20
    endloop
  endfacet
  facet normal 0.940886 0.338724 0
    outer loop
      vertex -44.9392 -17.7927 25
      vertex -45.9677 -14.9358 20
      vertex -45.9677 -14.9358 25
    endloop
  endfacet
  facet normal 0.940886 0.338724 0
    outer loop
      vertex -45.9677 -14.9358 20
      vertex -44.9392 -17.7927 25
      vertex -44.9392 -17.7927 20
    endloop
  endfacet
  facet normal -0.453985 0.891009 0
    outer loop
      vertex 23.2848 -42.3548 20
      vertex 20.5793 -43.7333 25
      vertex 23.2848 -42.3548 25
    endloop
  endfacet
  facet normal -0.453985 0.891009 0
    outer loop
      vertex 20.5793 -43.7333 25
      vertex 23.2848 -42.3548 20
      vertex 20.5793 -43.7333 20
    endloop
  endfacet
  facet normal -0.279016 -0.960286 0
    outer loop
      vertex 12.02 46.8149 20
      vertex 14.9358 45.9677 25
      vertex 12.02 46.8149 25
    endloop
  endfacet
  facet normal -0.279016 -0.960286 -0
    outer loop
      vertex 14.9358 45.9677 25
      vertex 12.02 46.8149 20
      vertex 14.9358 45.9677 20
    endloop
  endfacet
  facet normal 0.940886 -0.338724 0
    outer loop
      vertex -45.9677 14.9358 25
      vertex -44.9392 17.7927 20
      vertex -44.9392 17.7927 25
    endloop
  endfacet
  facet normal 0.940886 -0.338724 0
    outer loop
      vertex -44.9392 17.7927 20
      vertex -45.9677 14.9358 25
      vertex -45.9677 14.9358 20
    endloop
  endfacet
  facet normal -0.338724 -0.940886 0
    outer loop
      vertex 14.9358 45.9677 20
      vertex 17.7927 44.9392 25
      vertex 14.9358 45.9677 25
    endloop
  endfacet
  facet normal -0.338724 -0.940886 -0
    outer loop
      vertex 17.7927 44.9392 25
      vertex 14.9358 45.9677 20
      vertex 17.7927 44.9392 20
    endloop
  endfacet
  facet normal 0.891027 0.453951 0
    outer loop
      vertex -43.4858 -21.0651 25
      vertex -43.7333 -20.5793 20
      vertex -43.7333 -20.5793 25
    endloop
  endfacet
  facet normal 0.891027 0.453951 0
    outer loop
      vertex -43.7333 -20.5793 20
      vertex -43.4858 -21.0651 25
      vertex -43.4858 -21.0651 20
    endloop
  endfacet
  facet normal 0.290499 0.806902 0.514315
    outer loop
      vertex 17.9333 55.193 20
      vertex 17.0062 52.3398 25
      vertex 20.2591 51.1687 25
    endloop
  endfacet
  facet normal -0.853802 0.0807091 0.514304
    outer loop
      vertex -57.5757 7.27351 20
      vertex -57.9188 3.64394 20
      vertex -54.5994 6.8975 25
    endloop
  endfacet
  facet normal 0.567144 -0.643299 0.514309
    outer loop
      vertex 37.6729 -40.1176 25
      vertex 35.0796 -42.4039 25
      vertex 36.9918 -44.7155 20
    endloop
  endfacet
  facet normal 0.239257 0.823558 0.514304
    outer loop
      vertex 14.4323 56.2101 20
      vertex 13.6862 53.3044 25
      vertex 17.9333 55.193 20
    endloop
  endfacet
  facet normal 0.709314 0.482037 0.51431
    outer loop
      vertex 45.7195 32.0131 23.6634
      vertex 46.95 34.1111 20
      vertex 44.5229 32.3478 25
    endloop
  endfacet
  facet normal 0.709307 0.482044 0.514312
    outer loop
      vertex 46.95 34.1111 20
      vertex 45.7195 32.0131 23.6634
      vertex 47.5193 33.2734 20
    endloop
  endfacet
  facet normal -0.847047 -0.134175 0.514304
    outer loop
      vertex -54.5994 -6.8975 25
      vertex -57.5757 -7.27351 20
      vertex -54.0585 -10.3122 25
    endloop
  endfacet
  facet normal 0.567144 0.643299 0.514309
    outer loop
      vertex 36.9918 44.7155 20
      vertex 35.0796 42.4039 25
      vertex 37.6729 40.1176 25
    endloop
  endfacet
  facet normal -0.823558 0.239257 0.514304
    outer loop
      vertex -55.193 17.9333 20
      vertex -56.2101 14.4323 20
      vertex -53.3044 13.6862 25
    endloop
  endfacet
  facet normal 0.643303 -0.567136 0.514313
    outer loop
      vertex 44.7155 -36.9918 20
      vertex 40.1176 -37.6729 25
      vertex 42.3045 -39.7266 20
    endloop
  endfacet
  facet normal 0.677641 -0.525632 0.51431
    outer loop
      vertex 46.95 -34.1111 20
      vertex 44.5229 -32.3478 25
      vertex 44.7155 -36.9918 20
    endloop
  endfacet
  facet normal 0.677641 0.525632 0.514309
    outer loop
      vertex 44.7155 36.9918 20
      vertex 42.4039 35.0796 25
      vertex 44.5229 32.3478 25
    endloop
  endfacet
  facet normal -0.764141 -0.389318 0.514315
    outer loop
      vertex -49.7956 -23.4321 25
      vertex -50.141 -24.9075 23.37
      vertex -49.2933 -24.418 25
    endloop
  endfacet
  facet normal 0.340596 -0.787072 0.514307
    outer loop
      vertex 24.7094 -52.5101 20
      vertex 20.2591 -51.1687 25
      vertex 21.3635 -53.958 20
    endloop
  endfacet
  facet normal -0.85718 0.026939 0.514312
    outer loop
      vertex -54.9247 3.45557 25
      vertex -57.9188 3.64394 20
      vertex -55.0333 0 25
    endloop
  endfacet
  facet normal 0.239275 0.823546 0.514315
    outer loop
      vertex 17.9333 55.193 20
      vertex 13.6862 53.3044 25
      vertex 17.0062 52.3398 25
    endloop
  endfacet
  facet normal 0.525632 -0.677641 0.51431
    outer loop
      vertex 36.9918 -44.7155 20
      vertex 32.3478 -44.5229 25
      vertex 34.1111 -46.95 20
    endloop
  endfacet
  facet normal 0.525632 -0.677641 0.514309
    outer loop
      vertex 35.0796 -42.4039 25
      vertex 32.3478 -44.5229 25
      vertex 36.9918 -44.7155 20
    endloop
  endfacet
  facet normal -0.857182 -0.0269344 0.514309
    outer loop
      vertex -55.0333 0 25
      vertex -58.0333 0 20
      vertex -57.9188 -3.64394 20
    endloop
  endfacet
  facet normal 0.187083 -0.836947 0.514315
    outer loop
      vertex 14.4323 -56.2101 20
      vertex 10.3122 -54.0585 25
      vertex 10.8744 -57.0054 20
    endloop
  endfacet
  facet normal 0.643299 0.567144 0.514309
    outer loop
      vertex 44.7155 36.9918 20
      vertex 40.1176 37.6729 25
      vertex 42.4039 35.0796 25
    endloop
  endfacet
  facet normal 0.643303 0.567136 0.514313
    outer loop
      vertex 42.3045 39.7266 20
      vertex 40.1176 37.6729 25
      vertex 44.7155 36.9918 20
    endloop
  endfacet
  facet normal 0.0806999 -0.853796 0.514315
    outer loop
      vertex 6.8975 -54.5994 25
      vertex 4.79422 -54.7982 25
      vertex 4.95061 -56.5857 22.0081
    endloop
  endfacet
  facet normal -0.857182 0.0269344 0.514309
    outer loop
      vertex -57.9188 3.64394 20
      vertex -58.0333 0 20
      vertex -55.0333 0 25
    endloop
  endfacet
  facet normal 0.436559 -0.738175 0.514309
    outer loop
      vertex 29.4883 -46.4662 25
      vertex 26.5125 -48.2261 25
      vertex 27.9578 -50.855 20
    endloop
  endfacet
  facet normal -0.836947 0.187083 0.514315
    outer loop
      vertex -56.2101 14.4323 20
      vertex -57.0054 10.8744 20
      vertex -54.0585 10.3122 25
    endloop
  endfacet
  facet normal 0.606416 0.606416 0.514314
    outer loop
      vertex 37.6729 40.1176 25
      vertex 42.3045 39.7266 20
      vertex 39.7266 42.3045 20
    endloop
  endfacet
  facet normal 0.606416 0.606416 0.514314
    outer loop
      vertex 42.3045 39.7266 20
      vertex 37.6729 40.1176 25
      vertex 40.1176 37.6729 25
    endloop
  endfacet
  facet normal 0.187063 -0.836958 0.514304
    outer loop
      vertex 13.6862 -53.3044 25
      vertex 10.3122 -54.0585 25
      vertex 14.4323 -56.2101 20
    endloop
  endfacet
  facet normal 0.187083 0.836947 0.514315
    outer loop
      vertex 10.8744 57.0054 20
      vertex 10.3122 54.0585 25
      vertex 14.4323 56.2101 20
    endloop
  endfacet
  facet normal 0.389336 0.764136 0.514309
    outer loop
      vertex 27.9578 50.855 20
      vertex 23.4321 49.7956 25
      vertex 26.5125 48.2261 25
    endloop
  endfacet
  facet normal -0.823546 -0.239275 0.514315
    outer loop
      vertex -53.3044 -13.6862 25
      vertex -55.193 -17.9333 20
      vertex -52.3398 -17.0062 25
    endloop
  endfacet
  facet normal 0.187063 0.836958 0.514304
    outer loop
      vertex 14.4323 56.2101 20
      vertex 10.3122 54.0585 25
      vertex 13.6862 53.3044 25
    endloop
  endfacet
  facet normal -0.806901 0.290515 0.514307
    outer loop
      vertex -53.958 21.3635 20
      vertex -55.193 17.9333 20
      vertex -51.1687 20.2591 25
    endloop
  endfacet
  facet normal 0.0267982 0.857185 0.514311
    outer loop
      vertex 3.5 57.9233 20
      vertex 3.5 57.8048 20.1975
      vertex 3.64394 57.9188 20
    endloop
  endfacet
  facet normal 0.134153 0.847044 0.514315
    outer loop
      vertex 10.8744 57.0054 20
      vertex 7.27351 57.5757 20
      vertex 10.3122 54.0585 25
    endloop
  endfacet
  facet normal 0.606416 -0.606416 0.514314
    outer loop
      vertex 37.6729 -40.1176 25
      vertex 42.3045 -39.7266 20
      vertex 40.1176 -37.6729 25
    endloop
  endfacet
  facet normal 0.606416 -0.606416 0.514314
    outer loop
      vertex 42.3045 -39.7266 20
      vertex 37.6729 -40.1176 25
      vertex 39.7266 -42.3045 20
    endloop
  endfacet
  facet normal 0.482046 -0.709307 0.51431
    outer loop
      vertex 32.3478 -44.5229 25
      vertex 31.0958 -48.9992 20
      vertex 34.1111 -46.95 20
    endloop
  endfacet
  facet normal 0.643299 -0.567144 0.514309
    outer loop
      vertex 42.4039 -35.0796 25
      vertex 40.1176 -37.6729 25
      vertex 44.7155 -36.9918 20
    endloop
  endfacet
  facet normal 0.525632 0.677641 0.514309
    outer loop
      vertex 36.9918 44.7155 20
      vertex 32.3478 44.5229 25
      vertex 35.0796 42.4039 25
    endloop
  endfacet
  facet normal 0.677641 0.525632 0.51431
    outer loop
      vertex 44.7155 36.9918 20
      vertex 44.5229 32.3478 25
      vertex 46.95 34.1111 20
    endloop
  endfacet
  facet normal -0.787069 -0.3406 0.514309
    outer loop
      vertex -51.1687 -20.2591 25
      vertex -52.5101 -24.7094 20
      vertex -49.7956 -23.4321 25
    endloop
  endfacet
  facet normal 0.134175 0.847047 0.514304
    outer loop
      vertex 7.27351 57.5757 20
      vertex 6.8975 54.5994 25
      vertex 10.3122 54.0585 25
    endloop
  endfacet
  facet normal 0.0807091 0.853802 0.514304
    outer loop
      vertex 7.27351 57.5757 20
      vertex 3.64394 57.9188 20
      vertex 6.8975 54.5994 25
    endloop
  endfacet
  facet normal 0.709306 -0.482047 0.51431
    outer loop
      vertex 46.95 -34.1111 20
      vertex 47.5578 -31.499 21.61
      vertex 44.5229 -32.3478 25
    endloop
  endfacet
  facet normal 0.709327 -0.482039 0.51429
    outer loop
      vertex 47.5578 -31.499 21.61
      vertex 46.95 -34.1111 20
      vertex 48.3962 -31.983 20
    endloop
  endfacet
  facet normal 0.567136 0.643303 0.514313
    outer loop
      vertex 39.7266 42.3045 20
      vertex 36.9918 44.7155 20
      vertex 37.6729 40.1176 25
    endloop
  endfacet
  facet normal -0.847044 0.134153 0.514315
    outer loop
      vertex -57.0054 10.8744 20
      vertex -57.5757 7.27351 20
      vertex -54.0585 10.3122 25
    endloop
  endfacet
  facet normal -0.847044 -0.134153 0.514315
    outer loop
      vertex -54.0585 -10.3122 25
      vertex -57.5757 -7.27351 20
      vertex -57.0054 -10.8744 20
    endloop
  endfacet
  facet normal 0.70932 0.482016 0.514321
    outer loop
      vertex 45.7195 32.0131 23.6634
      vertex 44.5229 32.3478 25
      vertex 45.0628 31.5533 25
    endloop
  endfacet
  facet normal 0.290515 0.806901 0.514307
    outer loop
      vertex 21.3635 53.958 20
      vertex 17.9333 55.193 20
      vertex 20.2591 51.1687 25
    endloop
  endfacet
  facet normal -0.836958 0.187063 0.514304
    outer loop
      vertex -53.3044 13.6862 25
      vertex -56.2101 14.4323 20
      vertex -54.0585 10.3122 25
    endloop
  endfacet
  facet normal -0.853799 -0.0806933 0.514312
    outer loop
      vertex -54.9247 -3.45557 25
      vertex -57.9188 -3.64394 20
      vertex -54.5994 -6.8975 25
    endloop
  endfacet
  facet normal -0.853799 0.0806933 0.514312
    outer loop
      vertex -54.5994 6.8975 25
      vertex -57.9188 3.64394 20
      vertex -54.9247 3.45557 25
    endloop
  endfacet
  facet normal 0.389336 -0.764136 0.514309
    outer loop
      vertex 26.5125 -48.2261 25
      vertex 23.4321 -49.7956 25
      vertex 27.9578 -50.855 20
    endloop
  endfacet
  facet normal 0.567136 -0.643303 0.514313
    outer loop
      vertex 37.6729 -40.1176 25
      vertex 36.9918 -44.7155 20
      vertex 39.7266 -42.3045 20
    endloop
  endfacet
  facet normal 0.3406 -0.787069 0.514309
    outer loop
      vertex 23.4321 -49.7956 25
      vertex 20.2591 -51.1687 25
      vertex 24.7094 -52.5101 20
    endloop
  endfacet
  facet normal 0.677641 -0.525632 0.514309
    outer loop
      vertex 44.5229 -32.3478 25
      vertex 42.4039 -35.0796 25
      vertex 44.7155 -36.9918 20
    endloop
  endfacet
  facet normal -0.836947 -0.187083 0.514315
    outer loop
      vertex -54.0585 -10.3122 25
      vertex -57.0054 -10.8744 20
      vertex -56.2101 -14.4323 20
    endloop
  endfacet
  facet normal -0.806901 -0.290515 0.514307
    outer loop
      vertex -51.1687 -20.2591 25
      vertex -55.193 -17.9333 20
      vertex -53.958 -21.3635 20
    endloop
  endfacet
  facet normal -0.787041 0.34058 0.514366
    outer loop
      vertex -53.958 21.3635 20
      vertex -52.4317 24.4493 20.2922
      vertex -52.5906 24.5234 20
    endloop
  endfacet
  facet normal -0.78707 0.3406 0.514307
    outer loop
      vertex -52.4317 24.4493 20.2922
      vertex -53.958 21.3635 20
      vertex -51.1687 20.2591 25
    endloop
  endfacet
  facet normal -0.787072 -0.340596 0.514307
    outer loop
      vertex -51.1687 -20.2591 25
      vertex -53.958 -21.3635 20
      vertex -52.5101 -24.7094 20
    endloop
  endfacet
  facet normal 0.290515 -0.806901 0.514307
    outer loop
      vertex 20.2591 -51.1687 25
      vertex 17.9333 -55.193 20
      vertex 21.3635 -53.958 20
    endloop
  endfacet
  facet normal 0.436554 0.738176 0.514312
    outer loop
      vertex 31.0958 48.9992 20
      vertex 27.9578 50.855 20
      vertex 29.4883 46.4662 25
    endloop
  endfacet
  facet normal -0.85718 -0.026939 0.514312
    outer loop
      vertex -55.0333 0 25
      vertex -57.9188 -3.64394 20
      vertex -54.9247 -3.45557 25
    endloop
  endfacet
  facet normal -0.847047 0.134175 0.514304
    outer loop
      vertex -54.0585 10.3122 25
      vertex -57.5757 7.27351 20
      vertex -54.5994 6.8975 25
    endloop
  endfacet
  facet normal 0.0267918 0.857187 0.514308
    outer loop
      vertex 3.5 57.8048 20.1975
      vertex 3.5 55.6309 23.8207
      vertex 3.64394 57.9188 20
    endloop
  endfacet
  facet normal 0.0806927 0.853795 0.514318
    outer loop
      vertex 6.8975 54.5994 25
      vertex 3.5 55.6309 23.8207
      vertex 3.5 54.9205 25
    endloop
  endfacet
  facet normal 0.0806972 0.853799 0.51431
    outer loop
      vertex 3.5 55.6309 23.8207
      vertex 6.8975 54.5994 25
      vertex 3.64394 57.9188 20
    endloop
  endfacet
  facet normal 0.525632 0.677641 0.51431
    outer loop
      vertex 34.1111 46.95 20
      vertex 32.3478 44.5229 25
      vertex 36.9918 44.7155 20
    endloop
  endfacet
  facet normal -0.806902 0.290499 0.514315
    outer loop
      vertex -51.1687 20.2591 25
      vertex -55.193 17.9333 20
      vertex -52.3398 17.0062 25
    endloop
  endfacet
  facet normal 0.239257 -0.823558 0.514304
    outer loop
      vertex 17.9333 -55.193 20
      vertex 13.6862 -53.3044 25
      vertex 14.4323 -56.2101 20
    endloop
  endfacet
  facet normal 0.340596 0.787072 0.514307
    outer loop
      vertex 21.3635 53.958 20
      vertex 20.2591 51.1687 25
      vertex 24.7094 52.5101 20
    endloop
  endfacet
  facet normal -0.823558 -0.239257 0.514304
    outer loop
      vertex -53.3044 -13.6862 25
      vertex -56.2101 -14.4323 20
      vertex -55.193 -17.9333 20
    endloop
  endfacet
  facet normal 0.482046 0.709307 0.51431
    outer loop
      vertex 34.1111 46.95 20
      vertex 31.0958 48.9992 20
      vertex 32.3478 44.5229 25
    endloop
  endfacet
  facet normal 0.389337 -0.764136 0.514309
    outer loop
      vertex 27.9578 -50.855 20
      vertex 23.4321 -49.7956 25
      vertex 24.7094 -52.5101 20
    endloop
  endfacet
  facet normal 0.0807244 -0.8538 0.514305
    outer loop
      vertex 7.27351 -57.5757 20
      vertex 4.95061 -56.5857 22.0081
      vertex 5.05557 -57.7854 20
    endloop
  endfacet
  facet normal 0.0807228 -0.853801 0.514304
    outer loop
      vertex 4.95061 -56.5857 22.0081
      vertex 7.27351 -57.5757 20
      vertex 6.8975 -54.5994 25
    endloop
  endfacet
  facet normal -0.823546 0.239275 0.514315
    outer loop
      vertex -52.3398 17.0062 25
      vertex -55.193 17.9333 20
      vertex -53.3044 13.6862 25
    endloop
  endfacet
  facet normal 0.134175 -0.847047 0.514304
    outer loop
      vertex 10.3122 -54.0585 25
      vertex 6.8975 -54.5994 25
      vertex 7.27351 -57.5757 20
    endloop
  endfacet
  facet normal 0.134153 -0.847044 0.514315
    outer loop
      vertex 10.3122 -54.0585 25
      vertex 7.27351 -57.5757 20
      vertex 10.8744 -57.0054 20
    endloop
  endfacet
  facet normal -0.853802 -0.0807091 0.514304
    outer loop
      vertex -54.5994 -6.8975 25
      vertex -57.9188 -3.64394 20
      vertex -57.5757 -7.27351 20
    endloop
  endfacet
  facet normal 0.482042 0.709308 0.514312
    outer loop
      vertex 31.0958 48.9992 20
      vertex 29.4883 46.4662 25
      vertex 32.3478 44.5229 25
    endloop
  endfacet
  facet normal -0.764149 -0.38931 0.51431
    outer loop
      vertex -52.5101 -24.7094 20
      vertex -50.141 -24.9075 23.37
      vertex -49.7956 -23.4321 25
    endloop
  endfacet
  facet normal -0.764133 -0.389361 0.514295
    outer loop
      vertex -50.141 -24.9075 23.37
      vertex -52.5101 -24.7094 20
      vertex -51.8936 -25.9193 20
    endloop
  endfacet
  facet normal 0.436554 -0.738176 0.514312
    outer loop
      vertex 29.4883 -46.4662 25
      vertex 27.9578 -50.855 20
      vertex 31.0958 -48.9992 20
    endloop
  endfacet
  facet normal 0.482042 -0.709308 0.514312
    outer loop
      vertex 32.3478 -44.5229 25
      vertex 29.4883 -46.4662 25
      vertex 31.0958 -48.9992 20
    endloop
  endfacet
  facet normal -0.787081 0.340589 0.514299
    outer loop
      vertex -49.872 23.2557 25
      vertex -52.4317 24.4493 20.2922
      vertex -51.1687 20.2591 25
    endloop
  endfacet
  facet normal 0.436559 0.738175 0.514309
    outer loop
      vertex 27.9578 50.855 20
      vertex 26.5125 48.2261 25
      vertex 29.4883 46.4662 25
    endloop
  endfacet
  facet normal -0.836958 -0.187063 0.514304
    outer loop
      vertex -54.0585 -10.3122 25
      vertex -56.2101 -14.4323 20
      vertex -53.3044 -13.6862 25
    endloop
  endfacet
  facet normal 0.389337 0.764136 0.514309
    outer loop
      vertex 24.7094 52.5101 20
      vertex 23.4321 49.7956 25
      vertex 27.9578 50.855 20
    endloop
  endfacet
  facet normal 0.3406 0.787069 0.514309
    outer loop
      vertex 24.7094 52.5101 20
      vertex 20.2591 51.1687 25
      vertex 23.4321 49.7956 25
    endloop
  endfacet
  facet normal 0.239275 -0.823546 0.514315
    outer loop
      vertex 17.0062 -52.3398 25
      vertex 13.6862 -53.3044 25
      vertex 17.9333 -55.193 20
    endloop
  endfacet
  facet normal 0.709313 -0.482026 0.514321
    outer loop
      vertex 45.7924 -30.4797 25
      vertex 44.5229 -32.3478 25
      vertex 47.5578 -31.499 21.61
    endloop
  endfacet
  facet normal -0.806902 -0.290499 0.514315
    outer loop
      vertex -52.3398 -17.0062 25
      vertex -55.193 -17.9333 20
      vertex -51.1687 -20.2591 25
    endloop
  endfacet
  facet normal 0.290499 -0.806902 0.514315
    outer loop
      vertex 20.2591 -51.1687 25
      vertex 17.0062 -52.3398 25
      vertex 17.9333 -55.193 20
    endloop
  endfacet
  facet normal 0 -1 0
    outer loop
      vertex -54.1667 -93.8194 25
      vertex 54.1667 -93.8194 30
      vertex -54.1667 -93.8194 30
    endloop
  endfacet
  facet normal 0 -1 -0
    outer loop
      vertex 54.1667 -93.8194 30
      vertex -54.1667 -93.8194 25
      vertex 54.1667 -93.8194 25
    endloop
  endfacet
  facet normal 0.866027 -0.499998 0
    outer loop
      vertex 54.1667 -93.8194 30
      vertex 108.333 0 25
      vertex 108.333 0 30
    endloop
  endfacet
  facet normal 0.866027 -0.499998 0
    outer loop
      vertex 108.333 0 25
      vertex 54.1667 -93.8194 30
      vertex 54.1667 -93.8194 25
    endloop
  endfacet
  facet normal 0 1 -0
    outer loop
      vertex 54.1667 93.8194 25
      vertex -54.1667 93.8194 30
      vertex 54.1667 93.8194 30
    endloop
  endfacet
  facet normal 0 1 0
    outer loop
      vertex -54.1667 93.8194 30
      vertex 54.1667 93.8194 25
      vertex -54.1667 93.8194 25
    endloop
  endfacet
  facet normal 0.866027 0.499998 0
    outer loop
      vertex 108.333 0 30
      vertex 54.1667 93.8194 25
      vertex 54.1667 93.8194 30
    endloop
  endfacet
  facet normal 0.866027 0.499998 0
    outer loop
      vertex 54.1667 93.8194 25
      vertex 108.333 0 30
      vertex 108.333 0 25
    endloop
  endfacet
  facet normal -0.866027 0.499998 0
    outer loop
      vertex -108.333 0 25
      vertex -54.1667 93.8194 30
      vertex -54.1667 93.8194 25
    endloop
  endfacet
  facet normal -0.866027 0.499998 0
    outer loop
      vertex -54.1667 93.8194 30
      vertex -108.333 0 25
      vertex -108.333 0 30
    endloop
  endfacet
  facet normal -0.866027 -0.499998 0
    outer loop
      vertex -54.1667 -93.8194 25
      vertex -108.333 0 30
      vertex -108.333 0 25
    endloop
  endfacet
  facet normal -0.866027 -0.499998 0
    outer loop
      vertex -108.333 0 30
      vertex -54.1667 -93.8194 25
      vertex -54.1667 -93.8194 30
    endloop
  endfacet
  facet normal 0 0 1
    outer loop
      vertex 54.1667 93.8194 30
      vertex 54.1667 -93.8194 30
      vertex 108.333 0 30
    endloop
  endfacet
  facet normal -0 0 1
    outer loop
      vertex -54.1667 93.8194 30
      vertex 54.1667 -93.8194 30
      vertex 54.1667 93.8194 30
    endloop
  endfacet
  facet normal 0 0 1
    outer loop
      vertex -54.1667 93.8194 30
      vertex -54.1667 -93.8194 30
      vertex 54.1667 -93.8194 30
    endloop
  endfacet
  facet normal 0 -0 1
    outer loop
      vertex -54.1667 -93.8194 30
      vertex -54.1667 93.8194 30
      vertex -108.333 0 30
    endloop
  endfacet
endsolid OpenSCAD_Model
