solid OpenSCAD_Model
  facet normal 0 -1 0
    outer loop
      vertex -60.1474 104.178 -7
      vertex 60.1474 104.178 -3.6
      vertex -60.1474 104.178 -3.6
    endloop
  endfacet
  facet normal 0 -1 -0
    outer loop
      vertex 60.1474 104.178 -3.6
      vertex -60.1474 104.178 -7
      vertex 60.1474 104.178 -7
    endloop
  endfacet
  facet normal -0.866022 -0.500005 0
    outer loop
      vertex 76.6009 75.6801 -7
      vertex 60.1474 104.178 -3.6
      vertex 60.1474 104.178 -7
    endloop
  endfacet
  facet normal -0.866022 -0.500005 0
    outer loop
      vertex 60.1474 104.178 -3.6
      vertex 76.6009 75.6801 -7
      vertex 76.6009 75.6801 -3.6
    endloop
  endfacet
  facet normal 0.866022 -0.500005 0
    outer loop
      vertex -76.6009 75.6801 -3.6
      vertex -60.1474 104.178 -7
      vertex -60.1474 104.178 -3.6
    endloop
  endfacet
  facet normal 0.866022 -0.500005 0
    outer loop
      vertex -60.1474 104.178 -7
      vertex -76.6009 75.6801 -3.6
      vertex -76.6009 75.6801 -7
    endloop
  endfacet
  facet normal 0 0 -1
    outer loop
      vertex 76.6009 75.6801 -7
      vertex 130.935 15 -7
      vertex 111.635 15 -7
    endloop
  endfacet
  facet normal 0 0 -1
    outer loop
      vertex 76.6009 75.6801 -7
      vertex 69.7974 120.893 -7
      vertex 130.935 15 -7
    endloop
  endfacet
  facet normal 0 0 -1
    outer loop
      vertex 60.1474 104.178 -7
      vertex 69.7974 120.893 -7
      vertex 76.6009 75.6801 -7
    endloop
  endfacet
  facet normal 0 0 -1
    outer loop
      vertex -60.1474 104.178 -7
      vertex 69.7974 120.893 -7
      vertex 60.1474 104.178 -7
    endloop
  endfacet
  facet normal 0 0 -1
    outer loop
      vertex -60.1474 104.178 -7
      vertex -69.7974 120.893 -7
      vertex 69.7974 120.893 -7
    endloop
  endfacet
  facet normal 0 0 -1
    outer loop
      vertex -76.6009 75.6801 -7
      vertex -69.7974 120.893 -7
      vertex -60.1474 104.178 -7
    endloop
  endfacet
  facet normal 0 0 -1
    outer loop
      vertex -130.935 15 -7
      vertex -76.6009 75.6801 -7
      vertex -111.635 15 -7
    endloop
  endfacet
  facet normal -0 0 -1
    outer loop
      vertex -76.6009 75.6801 -7
      vertex -130.935 15 -7
      vertex -69.7974 120.893 -7
    endloop
  endfacet
  facet normal -0.866023 -0.500005 0
    outer loop
      vertex 111.635 15 -7
      vertex 76.6009 75.6801 -3.6
      vertex 76.6009 75.6801 -7
    endloop
  endfacet
  facet normal -0.866023 -0.500005 0
    outer loop
      vertex 76.6009 75.6801 -3.6
      vertex 111.635 15 -7
      vertex 111.635 15 -3.6
    endloop
  endfacet
  facet normal 0.866023 -0.500005 0
    outer loop
      vertex -111.635 15 -3.6
      vertex -76.6009 75.6801 -7
      vertex -76.6009 75.6801 -3.6
    endloop
  endfacet
  facet normal 0.866023 -0.500005 0
    outer loop
      vertex -76.6009 75.6801 -7
      vertex -111.635 15 -3.6
      vertex -111.635 15 -7
    endloop
  endfacet
  facet normal 0 -1 0
    outer loop
      vertex -130.935 15 -7
      vertex -111.635 15 -3.6
      vertex -130.935 15 -3.6
    endloop
  endfacet
  facet normal 0 -1 -0
    outer loop
      vertex -111.635 15 -3.6
      vertex -130.935 15 -7
      vertex -111.635 15 -7
    endloop
  endfacet
  facet normal 0 -1 0
    outer loop
      vertex 111.635 15 -7
      vertex 130.935 15 -3.6
      vertex 111.635 15 -3.6
    endloop
  endfacet
  facet normal 0 -1 -0
    outer loop
      vertex 130.935 15 -3.6
      vertex 111.635 15 -7
      vertex 130.935 15 -7
    endloop
  endfacet
  facet normal 0 1 -0
    outer loop
      vertex 69.7974 120.893 -7
      vertex -69.7974 120.893 -3.6
      vertex 69.7974 120.893 -3.6
    endloop
  endfacet
  facet normal 0 1 0
    outer loop
      vertex -69.7974 120.893 -3.6
      vertex 69.7974 120.893 -7
      vertex -69.7974 120.893 -7
    endloop
  endfacet
  facet normal 0.866025 0.500002 0
    outer loop
      vertex 130.935 15 -3.6
      vertex 69.7974 120.893 -7
      vertex 69.7974 120.893 -3.6
    endloop
  endfacet
  facet normal 0.866025 0.500002 0
    outer loop
      vertex 69.7974 120.893 -7
      vertex 130.935 15 -3.6
      vertex 130.935 15 -7
    endloop
  endfacet
  facet normal -0.866025 0.500002 0
    outer loop
      vertex -130.935 15 -7
      vertex -69.7974 120.893 -3.6
      vertex -69.7974 120.893 -7
    endloop
  endfacet
  facet normal -0.866025 0.500002 0
    outer loop
      vertex -69.7974 120.893 -3.6
      vertex -130.935 15 -7
      vertex -130.935 15 -3.6
    endloop
  endfacet
  facet normal 0 0 1
    outer loop
      vertex 130.935 15 -3.6
      vertex 76.6009 75.6801 -3.6
      vertex 111.635 15 -3.6
    endloop
  endfacet
  facet normal 0 0 1
    outer loop
      vertex 69.7974 120.893 -3.6
      vertex 76.6009 75.6801 -3.6
      vertex 130.935 15 -3.6
    endloop
  endfacet
  facet normal 0 0 1
    outer loop
      vertex 69.7974 120.893 -3.6
      vertex 60.1474 104.178 -3.6
      vertex 76.6009 75.6801 -3.6
    endloop
  endfacet
  facet normal 0 0 1
    outer loop
      vertex 69.7974 120.893 -3.6
      vertex -60.1474 104.178 -3.6
      vertex 60.1474 104.178 -3.6
    endloop
  endfacet
  facet normal -0 0 1
    outer loop
      vertex -69.7974 120.893 -3.6
      vertex -60.1474 104.178 -3.6
      vertex 69.7974 120.893 -3.6
    endloop
  endfacet
  facet normal 0 0 1
    outer loop
      vertex -69.7974 120.893 -3.6
      vertex -76.6009 75.6801 -3.6
      vertex -60.1474 104.178 -3.6
    endloop
  endfacet
  facet normal 0 0 1
    outer loop
      vertex -130.935 15 -3.6
      vertex -76.6009 75.6801 -3.6
      vertex -69.7974 120.893 -3.6
    endloop
  endfacet
  facet normal 0 0 1
    outer loop
      vertex -76.6009 75.6801 -3.6
      vertex -130.935 15 -3.6
      vertex -111.635 15 -3.6
    endloop
  endfacet
endsolid OpenSCAD_Model
